<svg xmlns="http://www.w3.org/2000/svg" viewBox="0 0 331 280"><defs><style>.cls-1{fill:#fff;}</style></defs><title>dark_1</title><g id="Layer_2" data-name="Layer 2"><g id="Layer_1-2" data-name="Layer 1"><rect width="331" height="280" rx="29.12"/><path class="cls-1" d="M71.4,36.86a24.93,24.93,0,0,1,1.71,4.71c.14.57.54,3.6,1.18,9.1l1.18,4-.11,2.89a22.94,22.94,0,0,0,1.07,4.61,1.84,1.84,0,0,0-1,.53c-.86.86-1.29,1.5-1.29,1.93a8.74,8.74,0,0,0,.64,2.89c1.72.21,2.68.64,2.89,1.28a14,14,0,0,1,.65,3,14.89,14.89,0,0,0,.53,2.79l2.46.32a41.69,41.69,0,0,0,3,16.06q-2.77,3.42-2.78,4.71a3.92,3.92,0,0,0,1,1.93c.72.85,1.14,1.28,1.29,1.28L85.1,99q.44,0,.75.75a7.4,7.4,0,0,1,.86,3.53,4.74,4.74,0,0,1-2.25,4l.43,3.75a3.43,3.43,0,0,1,.53-.11A9.2,9.2,0,0,1,89.17,112a19.74,19.74,0,0,0,2,4.6,14.6,14.6,0,0,1,1.28,2.79l5.78,20q1.61,5.46,1.61,5.89c0,.07-.32,1.21-1,3.42a13,13,0,0,1,3.86,4.72l1.39,2.46.86,4.17,1.18,4.72-8.57,2.89a77.26,77.26,0,0,1,9.64,6.21l2.78.32q1,5,1.5,7.71a120.09,120.09,0,0,0,4.17,11.35c.65,3.85,1.18,6.56,1.61,8.13h2.25l1.71,4.07h.43c.64-2.28,1.11-3.78,1.39-4.5a26.8,26.8,0,0,0,1.5-6.21,26.22,26.22,0,0,1,.75-4.49l4.82-14.46a22.21,22.21,0,0,0,.64-2.57,28.79,28.79,0,0,1,.86-4.06l2.78-6.32.75-3.32,1.39-3.21q2.79-12.1,3.11-12.64a13.18,13.18,0,0,1,2.25-2.57,16.94,16.94,0,0,1-.32-1.82q0-1.17,2.89-15,.75-3.63,4.49-11.13a62.13,62.13,0,0,1,1.72-9.42q4.92-14.15,4.92-20.67a29.14,29.14,0,0,0-.64-3.53l7.39-4.93L165,71a42.5,42.5,0,0,0,5-3.75c0-.35-.4-.67-1.18-1a51.12,51.12,0,0,0-11.78-2.78l4.18-7c-1.22-1.36-1.82-2.47-1.82-3.32a15.69,15.69,0,0,1,1.28-4.93,8.66,8.66,0,0,1,2.79-3.21l3.32-2.46q4.81-4.19,5.24-4.39a3.57,3.57,0,0,1,1.61-.43h.75l4.28,3.85q-10.49,4-10.49,6.86,0,1.28,4.6,5.46a49.85,49.85,0,0,1,5.14,6.74l4,4.71c0,.51-.68,1.47-2,2.9a12.76,12.76,0,0,0,2.68,5.78q3.32,3.85,3.53,4.17A34.79,34.79,0,0,1,187.35,82q.43,1.29,3.32,10.81c.79,5.79,1.29,9,1.5,9.53a13.16,13.16,0,0,0,2.25,3.54l-.32.32q-5.46,1-5.89,1.82l.64,1a10.62,10.62,0,0,1,1.07,5.46l5.89,6.21,2.57,5.14c1.21,1.5,1.82,2.5,1.82,3v.54h-.85l-.65.64c.22,1.43.36,2.39.43,2.89a21.45,21.45,0,0,0,1.71,5.46H203a91.1,91.1,0,0,1,4.17,11.88l1.82,5.89.32,4.71a18.06,18.06,0,0,1,2.25,4.61,45.18,45.18,0,0,1,1.82,6.64,4.61,4.61,0,0,1-.43,1.92,21.88,21.88,0,0,0-1.07,3.11,4.35,4.35,0,0,0,1.72,2.89,2.28,2.28,0,0,0,1.5.64,5.88,5.88,0,0,0,2-.53c.5,1.78,1.1,4.57,1.82,8.35a53.16,53.16,0,0,0,2.57,5.57,12.43,12.43,0,0,1,2-1.82,5,5,0,0,0,1.82-4.29,8.4,8.4,0,0,0-1.17-3.42,5.13,5.13,0,0,0,2.14-1.61,76.67,76.67,0,0,0,2.67-8.35l-.32-2.36,1-3.42,1-4.61,1.5-2.25,1.07-4,2.46-7.06,2.25-11.35q2.36-7.06,2.78-8.46a13.7,13.7,0,0,1,2.47-4.18q.21-3.11,3.85-16.59a71.67,71.67,0,0,1,2.79-11.57,11.39,11.39,0,0,0,1.07-4q0-.11-1.29-5.14l2.25-6.32A77,77,0,0,1,253,75.19c.71.07,1.32.1,1.82.1a5.53,5.53,0,0,0,2.67-.85q0-2.14-3.21-3.64a41.47,41.47,0,0,1,1.39-7.5V57.84l.75-2.89a27.55,27.55,0,0,1,.75-6.1q3-7.4,9.21-8.57c1.57-2.07,2.79-3.24,3.64-3.53.07-.21,1-.46,2.89-.75a4.84,4.84,0,0,1,.54,1.82,8.35,8.35,0,0,1-.32,2.14,30.39,30.39,0,0,0-.65,6.53l-.85,2.89a24.2,24.2,0,0,1-1.07,6,24.92,24.92,0,0,1-2.68,4.71,14.81,14.81,0,0,1,.32,2.78,18.9,18.9,0,0,1-.85,3.32,3,3,0,0,0-.11,1,17.11,17.11,0,0,0,.11,1.92,6,6,0,0,0-1.4,3.11,7.4,7.4,0,0,0,.11,1.18c-1.43.28-2.25.61-2.46,1l.53,4.18v.43A17.1,17.1,0,0,1,263,83.43a10.49,10.49,0,0,0-3.16,1c-1,.5-1.52.92-1.45,1.28l.22,1.07.21,1.93A13.9,13.9,0,0,1,260.91,92c0,.07-.68,1.25-2,3.53a11.91,11.91,0,0,0-1.07,2.89q-2.79,9.31-3,10.92a36.82,36.82,0,0,1-2.25,7.28,9.94,9.94,0,0,1-2.25,4v1.71a29.77,29.77,0,0,1-.21,3,20,20,0,0,1-.43,3.21,6.68,6.68,0,0,1-2.36,2.46v1.71L244,146.6c-1,5.22-1.67,8.46-2,9.75a44.81,44.81,0,0,1-2.68,7.06c-2,.93-3,2-3,3.11s.71,2.14,2.14,3.42a20,20,0,0,1-1.61,5.79l1,5.24-1.17,1.29a103.91,103.91,0,0,0-3.64,11l-.65,6.31-1.6,6.64a5.73,5.73,0,0,0,.85,1.93c-1.49,1-2.32,1.71-2.46,2.14-.43.29-.89,1.46-1.39,3.53,1.28,1.64,1.93,2.86,1.93,3.64,0,.22-.32,1.82-1,4.82.29,2.79.43,4.36.43,4.71,0,.57,0,2-.11,4.18v3.21c-1.35.86-2.24,1.39-2.67,1.61a17.39,17.39,0,0,0-5.25,3.74H219.9a18.82,18.82,0,0,1-2-4.71l-2.78-6.64L214,225.73a16.46,16.46,0,0,1-2.78-6.21c-.29-1.07-.46-1.72-.53-1.93a20.25,20.25,0,0,1-.86-4.6,6.74,6.74,0,0,1,1.28-3l-.21-.32-1.39-.22a12.12,12.12,0,0,0-2.14-2.78c-.93-1.29-2.07-5.92-3.43-13.92a94.1,94.1,0,0,0-1.39-12c-1.36-.36-2.18-.82-2.46-1.39s-.86-3.32-1.72-8.46l-2.89-9.53-1.07-5.25q-.21-.75-3.75-9.63a19,19,0,0,1-1.39-5.89,18.94,18.94,0,0,0-.75-3.75c1.29-1.21,1.93-2.21,1.93-3a4.54,4.54,0,0,0-.64-1.6,3.2,3.2,0,0,1-2,1.28c-.57,0-1.18-.86-1.82-2.57a69.16,69.16,0,0,1-4.07-15.52c1.36-.79,2-1.57,2-2.36a14.49,14.49,0,0,0-1.29-2.36,1.19,1.19,0,0,1-.1-.53,6.56,6.56,0,0,1,.64-2.46,19.34,19.34,0,0,0-5.46,1.39,9.56,9.56,0,0,1-1.82-4.5q-.85-2.77-4.61-14a13.79,13.79,0,0,1-1.39-3.54l-.85-2.78-.54-3.21a7.34,7.34,0,0,0-2.25-2.68,13.5,13.5,0,0,0-2.14,4.18q-.1.32-1.61,8.88l-1.39,3.64-.32,3.64-1,1.93-.65,4.18L157,108.91l-1.93,7.5q-2.46,4.61-2.57,6.32a49.91,49.91,0,0,1-1.5,10.06L147.1,146.6l-3.43,14.56c-1.29,5.22-2.14,8.18-2.57,8.89a28,28,0,0,1-2.36,2.79,45.72,45.72,0,0,1-2.57,8.56l1.82,1.39a146.49,146.49,0,0,0-4.39,14.67l-1.71,6.64-.43,3.1-.64,3.22-.21,2.57-1.07,4.28-.54,2.25a32.25,32.25,0,0,0-1.18,4.07,7.4,7.4,0,0,0,1.07,3.53q2.69,5,2.68,6c0,.42-1,1.78-3.1,4.06a16.85,16.85,0,0,1-2.47,4.07,27.37,27.37,0,0,1-5.24,2.14,16.06,16.06,0,0,1-3.86,1.5,4.92,4.92,0,0,1-2.46-1.17q-1.08-7.29-1.39-13.6-.22-1.29-2.14-8l-1.93-.64q-.65-2.58-4-11.57a8.27,8.27,0,0,1-.54-2.78,27.31,27.31,0,0,1,1.72-6.53,10,10,0,0,1-2.25-.75,8.76,8.76,0,0,0-2.25-.86,2.82,2.82,0,0,0-1.29.54,5.39,5.39,0,0,1-1.17-3.11,27.07,27.07,0,0,0-1-5.25,11.67,11.67,0,0,1-.53-2.67A6.12,6.12,0,0,1,99,185.58l-2.68-.75a21.06,21.06,0,0,0-1.71-5.14q-.21-.54-1.82-7.71a28.65,28.65,0,0,0-2.25-6.1,6.68,6.68,0,0,1-.75-2.68,11.33,11.33,0,0,1,.86-1.93,8.12,8.12,0,0,0,.64-2.25,6,6,0,0,0-3.75-1.82,17.59,17.59,0,0,0-1.17-5.67l-2.47-4.61a10.54,10.54,0,0,1-.1-2l1.92-1.18a13,13,0,0,0,.75-4.07,7.52,7.52,0,0,0-1.07-2.89,3,3,0,0,1-1.6,1,3,3,0,0,1-1.61-1H80q-.64-1.81-2.35-9.31l-2.68-10.28.21-4.18q0-4.17-4.39-5.35a38.21,38.21,0,0,0-1.82-7.07L64.44,88.25C64.37,88,64.22,87,64,85l1.5-1.39a100.24,100.24,0,0,1-4.28-9.43l-1.4-.32a84.2,84.2,0,0,1-3.21-11.45q-4.07-9.21-4.07-10.07a2.92,2.92,0,0,1,.86-2.14c.28-.14,1.14-.46,2.57-1a25.22,25.22,0,0,1,2-3.22c.22-.21,1.25-1,3.11-2.35l1.71-1.39a32.36,32.36,0,0,1,4.39-3.11l1.93-.32C69.72,38.82,70.47,38.14,71.4,36.86Z"/></g></g></svg>