<svg xmlns="http://www.w3.org/2000/svg" viewBox="0 0 220.89 208.89"><defs><style>.cls-1{fill:#fff;}</style></defs><title>white</title><g id="Layer_2" data-name="Layer 2"><g id="Layer_1-2" data-name="Layer 1"><path class="cls-1" d="M18.84.86a25.13,25.13,0,0,1,1.72,4.71q.21.85,1.18,9.1l1.17,4-.1,2.89a22.94,22.94,0,0,0,1.07,4.61,1.91,1.91,0,0,0-1,.53c-.85.86-1.28,1.5-1.28,1.93a8.5,8.5,0,0,0,.64,2.89c1.71.21,2.68.64,2.89,1.28a13.59,13.59,0,0,1,.64,3,15.24,15.24,0,0,0,.54,2.79l2.46.32a41.69,41.69,0,0,0,3,16.06C29.94,57.21,29,58.78,29,59.64a3.92,3.92,0,0,0,1,1.93c.71.85,1.14,1.28,1.28,1.28l1.29.11q.42,0,.75.75a7.4,7.4,0,0,1,.86,3.53,4.74,4.74,0,0,1-2.25,4L32.34,75a3.43,3.43,0,0,1,.53-.11A9.2,9.2,0,0,1,36.62,76a19.69,19.69,0,0,0,2,4.6,15.43,15.43,0,0,1,1.29,2.79l5.78,20q1.61,5.46,1.6,5.89,0,.11-1,3.42a13,13,0,0,1,3.86,4.72l1.39,2.46.85,4.17,1.18,4.72-8.56,2.89a76.15,76.15,0,0,1,9.63,6.21l2.79.32q1,5,1.5,7.71a117.09,117.09,0,0,0,4.17,11.35q1,5.78,1.61,8.13H67l1.71,4.07h.43c.64-2.28,1.1-3.78,1.39-4.5a27.33,27.33,0,0,0,1.5-6.21,25.25,25.25,0,0,1,.75-4.49l4.82-14.46a24.49,24.49,0,0,0,.64-2.57,31.49,31.49,0,0,1,.85-4.06l2.79-6.32.75-3.32,1.39-3.21q2.78-12.1,3.1-12.64a13.18,13.18,0,0,1,2.25-2.57c-.21-1.07-.32-1.67-.32-1.82q0-1.17,2.89-15,.75-3.63,4.5-11.13a63.77,63.77,0,0,1,1.71-9.42q4.93-14.14,4.93-20.67a31.56,31.56,0,0,0-.64-3.53l7.38-4.93L112.42,35a42.21,42.21,0,0,0,5-3.75c0-.35-.4-.67-1.18-1a51.12,51.12,0,0,0-11.78-2.78l4.18-7c-1.22-1.36-1.82-2.47-1.82-3.32a15.41,15.41,0,0,1,1.28-4.93,8.61,8.61,0,0,1,2.78-3.21l3.32-2.46c3.22-2.79,5-4.25,5.25-4.39a3.57,3.57,0,0,1,1.61-.43h.75l4.28,3.85q-10.5,4-10.49,6.86,0,1.28,4.6,5.46a49.85,49.85,0,0,1,5.14,6.74l4,4.71c0,.51-.68,1.47-2,2.9A12.86,12.86,0,0,0,130,38.12c2.22,2.57,3.39,4,3.54,4.17A34.79,34.79,0,0,1,134.8,46q.44,1.29,3.32,10.81c.78,5.79,1.29,9,1.5,9.53a12.67,12.67,0,0,0,2.25,3.54l-.32.32c-3.64.64-5.61,1.25-5.89,1.82l.64,1a10.73,10.73,0,0,1,1.07,5.46l5.89,6.21,2.57,5.14c1.21,1.5,1.82,2.5,1.82,3v.54h-.86l-.64.64c.21,1.43.36,2.39.43,2.89a21.06,21.06,0,0,0,1.71,5.46h2.14a90.72,90.72,0,0,1,4.18,11.88l1.82,5.89.32,4.71a18.06,18.06,0,0,1,2.25,4.61,45.18,45.18,0,0,1,1.82,6.64,4.61,4.61,0,0,1-.43,1.92,21.88,21.88,0,0,0-1.07,3.11A4.37,4.37,0,0,0,161,144a2.3,2.3,0,0,0,1.5.64,5.87,5.87,0,0,0,2-.53c.5,1.78,1.1,4.57,1.82,8.35A53.16,53.16,0,0,0,169,158a12,12,0,0,1,2-1.82,5.07,5.07,0,0,0,1.82-4.29,8.3,8.3,0,0,0-1.18-3.42,5.06,5.06,0,0,0,2.14-1.61,78.09,78.09,0,0,0,2.68-8.35l-.32-2.36,1-3.42,1-4.61,1.5-2.25,1.07-4,2.46-7.06,2.25-11.35q2.35-7.07,2.78-8.46a13.86,13.86,0,0,1,2.46-4.18q.22-3.11,3.86-16.59a73.06,73.06,0,0,1,2.78-11.57,11.17,11.17,0,0,0,1.07-4c0-.07-.42-1.78-1.28-5.14l2.25-6.32a77,77,0,0,1,1.18-8.13c.71.07,1.31.1,1.82.1a5.53,5.53,0,0,0,2.67-.85q0-2.14-3.21-3.64a41.47,41.47,0,0,1,1.39-7.5V21.84l.75-2.89a26.36,26.36,0,0,1,.75-6.1q3-7.39,9.21-8.57C215.39,2.21,216.6,1,217.46.75c.07-.21,1-.46,2.89-.75a4.84,4.84,0,0,1,.54,1.82A8,8,0,0,1,220.56,4a30.56,30.56,0,0,0-.64,6.53l-.85,2.89a24.12,24.12,0,0,1-1.08,6,24.75,24.75,0,0,1-2.67,4.71,14.81,14.81,0,0,1,.32,2.78,19.4,19.4,0,0,1-.86,3.32,3.41,3.41,0,0,0-.1,1c0,.57,0,1.21.1,1.92a6,6,0,0,0-1.39,3.11,6.4,6.4,0,0,0,.11,1.18c-1.43.28-2.25.61-2.47,1l.54,4.18v.43a16.85,16.85,0,0,1-1.18,4.49,10.67,10.67,0,0,0-3.16,1c-1,.5-1.51.92-1.44,1.28l.21,1.07.22,1.93A14.29,14.29,0,0,1,208.36,56c0,.07-.68,1.25-2,3.53a12.86,12.86,0,0,0-1.07,2.89q-2.77,9.31-3,10.92A36.82,36.82,0,0,1,200,80.62a9.94,9.94,0,0,1-2.25,4V86.3a27.55,27.55,0,0,1-.22,3,19.26,19.26,0,0,1-.42,3.21A6.68,6.68,0,0,1,194.76,95v1.71l-3.32,13.92c-1,5.22-1.68,8.46-2,9.75a44.81,44.81,0,0,1-2.68,7.06q-3,1.4-3,3.11c0,1,.72,2.14,2.14,3.42a20,20,0,0,1-1.6,5.79l1,5.24-1.18,1.29a106.58,106.58,0,0,0-3.64,11l-.64,6.31-1.61,6.64a5.85,5.85,0,0,0,.86,1.93c-1.5,1-2.32,1.71-2.46,2.14-.43.29-.89,1.46-1.39,3.53,1.28,1.64,1.92,2.86,1.92,3.64,0,.22-.32,1.82-1,4.82.28,2.79.43,4.36.43,4.71,0,.57,0,2-.11,4.18v3.21c-1.36.86-2.25,1.39-2.68,1.61a17.32,17.32,0,0,0-5.24,3.74h-1.18a18.82,18.82,0,0,1-2-4.71l-2.79-6.64-1.07-2.67a16.31,16.31,0,0,1-2.78-6.21c-.29-1.07-.47-1.72-.54-1.93a20.66,20.66,0,0,1-.85-4.6,6.63,6.63,0,0,1,1.28-3l-.21-.32-1.4-.22a11.82,11.82,0,0,0-2.14-2.78c-.93-1.29-2.07-5.92-3.42-13.92a96.11,96.11,0,0,0-1.39-12c-1.36-.36-2.18-.82-2.47-1.39s-.85-3.32-1.71-8.46l-2.89-9.53-1.07-5.25c-.15-.5-1.39-3.71-3.75-9.63a18.72,18.72,0,0,1-1.39-5.89,18.94,18.94,0,0,0-.75-3.75c1.28-1.21,1.93-2.21,1.93-3a4.43,4.43,0,0,0-.65-1.6,3.16,3.16,0,0,1-2,1.28c-.57,0-1.18-.86-1.82-2.57a68.62,68.62,0,0,1-4.07-15.52c1.36-.79,2-1.57,2-2.36a13.91,13.91,0,0,0-1.28-2.36,1.19,1.19,0,0,1-.11-.53,6.61,6.61,0,0,1,.65-2.46,19.47,19.47,0,0,0-5.47,1.39,9.66,9.66,0,0,1-1.82-4.5q-.86-2.77-4.6-14a13.43,13.43,0,0,1-1.39-3.54l-.86-2.78L116,45.08a7.56,7.56,0,0,0-2.25-2.68,13.27,13.27,0,0,0-2.14,4.18c-.08.21-.61,3.17-1.61,8.88l-1.39,3.64-.32,3.64-1,1.93-.64,4.18-2.25,4.06-1.92,7.5c-1.65,3.07-2.5,5.18-2.57,6.32a50.63,50.63,0,0,1-1.5,10.06L94.54,110.6l-3.42,14.56c-1.29,5.22-2.14,8.18-2.57,8.89a29.61,29.61,0,0,1-2.36,2.79,46.52,46.52,0,0,1-2.57,8.56l1.82,1.39a143.73,143.73,0,0,0-4.39,14.67l-1.71,6.64-.43,3.1-.64,3.22L78.05,177,77,181.27l-.53,2.25a30.37,30.37,0,0,0-1.18,4.07,7.4,7.4,0,0,0,1.07,3.53c1.78,3.35,2.68,5.35,2.68,6,0,.42-1,1.78-3.11,4.06a16.61,16.61,0,0,1-2.46,4.07,27.61,27.61,0,0,1-5.25,2.14,16.07,16.07,0,0,1-3.85,1.5,4.92,4.92,0,0,1-2.46-1.17q-1.08-7.29-1.4-13.6-.21-1.29-2.14-8l-1.92-.64q-.65-2.58-4-11.57a8.49,8.49,0,0,1-.53-2.78,27.61,27.61,0,0,1,1.71-6.53,10.37,10.37,0,0,1-2.25-.75,8.62,8.62,0,0,0-2.24-.86,2.82,2.82,0,0,0-1.29.54,5.4,5.4,0,0,1-1.18-3.11,26.41,26.41,0,0,0-1-5.25,11.86,11.86,0,0,1-.54-2.67,6.16,6.16,0,0,1,1.29-2.89l-2.68-.75a21.06,21.06,0,0,0-1.71-5.14q-.21-.54-1.82-7.71a28.65,28.65,0,0,0-2.25-6.1,6.68,6.68,0,0,1-.75-2.68,11.33,11.33,0,0,1,.86-1.93,8.48,8.48,0,0,0,.64-2.25A6,6,0,0,0,35,121.2a17.52,17.52,0,0,0-1.18-5.67l-2.46-4.61a10.15,10.15,0,0,1-.11-2l1.93-1.18a13,13,0,0,0,.75-4.07,7.7,7.7,0,0,0-1.07-2.89,3,3,0,0,1-1.61,1,3,3,0,0,1-1.6-1H27.41c-.43-1.21-1.21-4.31-2.36-9.31L22.38,81.16,22.59,77q0-4.17-4.39-5.35a39,39,0,0,0-1.82-7.07l-4.5-12.31q-.11-.31-.42-3.21L13,47.65a102.23,102.23,0,0,1-4.29-9.43L7.28,37.9A84.2,84.2,0,0,1,4.07,26.45Q0,17.24,0,16.38a2.88,2.88,0,0,1,.86-2.14c.28-.14,1.14-.46,2.57-1a24,24,0,0,1,2-3.22c.21-.21,1.25-1,3.11-2.35l1.71-1.39a32.36,32.36,0,0,1,4.39-3.11l1.93-.32C17.17,2.82,17.92,2.14,18.84.86Z"/></g></g></svg>