<svg id="Capa_1" enable-background="new 0 0 512 512" height="512" viewBox="0 0 512 512" width="512" xmlns="http://www.w3.org/2000/svg"><g><path d="m477.737 408.052v-238.854c0-20.068-16.268-36.336-36.336-36.336h-405.065c-20.068 0-36.336 16.268-36.336 36.336v238.854c0 20.068 16.268 36.336 36.336 36.336h405.064c20.068 0 36.337-16.268 36.337-36.336z" fill="#26a6fe"/><path d="m444.343 132.862c-11 0-7.294 0-32.372 0 20.068 0 36.336 16.268 36.336 36.336v238.854c0 20.068-16.268 36.336-36.336 36.336h32.372c20.068 0 36.336-16.269 36.336-36.336v-238.854c.001-20.068-16.268-36.336-36.336-36.336z" fill="#0593fc"/><g><path d="m285.244 376.866h-227.363c-4.3 0-7.786-3.486-7.786-7.786 0-4.301 3.486-7.786 7.786-7.786h227.363c4.3 0 7.786 3.486 7.786 7.786 0 4.301-3.486 7.786-7.786 7.786z" fill="#c0d6f2"/></g><g><path d="m171.562 406.296h-113.681c-4.3 0-7.786-3.486-7.786-7.786 0-4.301 3.486-7.786 7.786-7.786h113.681c4.3 0 7.786 3.486 7.786 7.786.001 4.3-3.485 7.786-7.786 7.786z" fill="#c0d6f2"/></g><g><g><path d="m187.368 340.007c-4.3 0-7.786-3.486-7.786-7.786v-18.679c0-4.301 3.486-7.786 7.786-7.786s7.786 3.486 7.786 7.786v18.679c0 4.3-3.486 7.786-7.786 7.786z" fill="#e2e2e2"/></g><g><path d="m222.682 340.007c-4.3 0-7.786-3.486-7.786-7.786v-18.679c0-4.301 3.486-7.786 7.786-7.786s7.786 3.486 7.786 7.786v18.679c.001 4.3-3.486 7.786-7.786 7.786z" fill="#e2e2e2"/></g><g><path d="m257.997 340.007c-4.3 0-7.786-3.486-7.786-7.786v-18.679c0-4.301 3.486-7.786 7.786-7.786s7.786 3.486 7.786 7.786v18.679c.001 4.3-3.485 7.786-7.786 7.786z" fill="#e2e2e2"/></g><g><path d="m293.312 340.007c-4.3 0-7.786-3.486-7.786-7.786v-18.679c0-4.301 3.486-7.786 7.786-7.786s7.786 3.486 7.786 7.786v18.679c0 4.3-3.486 7.786-7.786 7.786z" fill="#e2e2e2"/></g><g><path d="m352.169 340.007c-4.3 0-7.786-3.486-7.786-7.786v-18.679c0-4.301 3.486-7.786 7.786-7.786s7.786 3.486 7.786 7.786v18.679c.001 4.3-3.485 7.786-7.786 7.786z" fill="#e2e2e2"/></g><g><path d="m387.484 340.007c-4.3 0-7.786-3.486-7.786-7.786v-18.679c0-4.301 3.486-7.786 7.786-7.786s7.786 3.486 7.786 7.786v18.679c0 4.3-3.486 7.786-7.786 7.786z" fill="#e2e2e2"/></g><g><path d="m422.799 340.007c-4.3 0-7.786-3.486-7.786-7.786v-18.679c0-4.301 3.486-7.786 7.786-7.786s7.786 3.486 7.786 7.786v18.679c0 4.3-3.486 7.786-7.786 7.786z" fill="#e2e2e2"/></g><g><path d="m57.881 340.007c-4.3 0-7.786-3.486-7.786-7.786v-18.679c0-4.301 3.486-7.786 7.786-7.786s7.786 3.486 7.786 7.786v18.679c0 4.3-3.486 7.786-7.786 7.786z" fill="#e2e2e2"/></g><g><path d="m93.196 340.007c-4.3 0-7.786-3.486-7.786-7.786v-18.679c0-4.301 3.486-7.786 7.786-7.786s7.786 3.486 7.786 7.786v18.679c0 4.3-3.486 7.786-7.786 7.786z" fill="#e2e2e2"/></g><g><path d="m128.51 340.007c-4.3 0-7.786-3.486-7.786-7.786v-18.679c0-4.301 3.486-7.786 7.786-7.786s7.786 3.486 7.786 7.786v18.679c0 4.3-3.486 7.786-7.786 7.786z" fill="#e2e2e2"/></g></g><circle cx="441.233" cy="138.379" fill="#ffc344" r="70.767"/><path d="m441.233 67.612c-4.528 0-8.951.443-13.243 1.256 32.751 6.203 57.524 34.956 57.524 69.512s-24.773 63.308-57.524 69.511c4.292.813 8.715 1.256 13.243 1.256 39.084 0 70.767-31.684 70.767-70.767s-31.684-70.768-70.767-70.768z" fill="#feb137"/><g><path d="m426.435 171.152c-.3 0-.602-.017-.904-.053-2.364-.276-4.473-1.618-5.723-3.645l-21.794-35.317c-2.258-3.659-1.123-8.457 2.537-10.715 3.659-2.257 8.457-1.122 10.715 2.538l16.624 26.938 43.013-43.013c3.041-3.04 7.971-3.04 11.011 0 3.041 3.042 3.041 7.971 0 11.012l-49.974 49.974c-1.468 1.469-3.452 2.281-5.505 2.281z" fill="#fff0ad"/></g><path d="m158.233 272.092h-88.683c-6.445 0-11.669-5.224-11.669-11.669v-70.013c0-6.445 5.224-11.669 11.669-11.669h88.683c6.445 0 11.669 5.224 11.669 11.669v70.013c0 6.445-5.224 11.669-11.669 11.669z" fill="#ffd15b"/><path d="m158.233 170.954h-88.684c-10.728 0-19.455 8.728-19.455 19.456v70.014c0 10.728 8.727 19.455 19.455 19.455h88.684c10.728 0 19.455-8.727 19.455-19.455v-70.014c0-10.728-8.727-19.456-19.455-19.456zm3.883 19.456v27.22h-40.438v-31.103h36.555c2.141 0 3.883 1.742 3.883 3.883zm-96.449 70.013v-70.013c0-2.141 1.741-3.883 3.882-3.883h36.555v77.779h-36.555c-2.14-.001-3.882-1.742-3.882-3.883zm92.566 3.882h-36.555v-31.103h40.438v27.221c0 2.141-1.742 3.882-3.883 3.882z" fill="#feb137"/><path d="m427.993 272.092h-78.902c-2.293 0-4.153-1.859-4.153-4.153v-22.84c0-2.294 1.859-4.153 4.153-4.153h78.902c2.293 0 4.153 1.859 4.153 4.153v22.84c-.001 2.294-1.86 4.153-4.153 4.153z" fill="#fd4755"/></g></svg>