<?xml version="1.0" standalone="no"?>
<!DOCTYPE svg PUBLIC "-//W3C//DTD SVG 20010904//EN"
 "http://www.w3.org/TR/2001/REC-SVG-20010904/DTD/svg10.dtd">
<svg version="1.0" xmlns="http://www.w3.org/2000/svg"
 width="260.000000pt" height="260.000000pt" viewBox="0 0 260.000000 260.000000"
 preserveAspectRatio="xMidYMid meet">
<metadata>
Created by potrace 1.14, written by Peter Selinger 2001-2017
</metadata>
<g transform="translate(0.000000,260.000000) scale(0.100000,-0.100000)"
fill="#000000" stroke="none">
<path d="M2532 2579 c-9 -11 -33 -29 -53 -39 -32 -17 -70 -59 -75 -85 -13 -61
-18 -98 -18 -142 -1 -28 -5 -49 -10 -45 -5 3 -7 -2 -3 -11 3 -9 2 -30 -3 -47
-7 -25 -5 -35 11 -51 22 -22 17 -39 -11 -39 -15 0 -20 -10 -25 -47 -3 -27 -13
-69 -20 -94 -13 -41 -12 -89 1 -110 2 -4 0 -10 -6 -14 -6 -4 -8 -11 -4 -16 3
-5 0 -17 -8 -26 -7 -9 -12 -18 -10 -20 1 -1 2 -4 1 -5 -2 -7 -7 -36 -12 -68
-4 -19 -16 -73 -28 -120 -11 -47 -21 -95 -22 -107 -1 -13 -4 -23 -8 -23 -8 0
-61 -162 -63 -195 0 -14 -3 -25 -6 -25 -3 0 -6 -12 -7 -26 -2 -41 -45 -187
-59 -201 -10 -10 -16 -40 -29 -148 -5 -43 -20 -86 -34 -102 -13 -14 -16 -25
-10 -42 11 -27 -14 -81 -37 -81 -8 0 -12 5 -9 10 3 6 1 10 -6 10 -7 0 -9 3 -6
6 3 4 2 15 -3 25 -6 9 -13 35 -16 56 -8 48 -11 53 -33 53 -25 0 -45 26 -36 47
16 40 14 66 -9 140 -32 105 -47 163 -49 191 0 12 -5 22 -9 22 -4 0 -7 3 -6 8
1 4 -4 29 -12 56 -10 33 -22 51 -37 57 -13 5 -24 16 -24 26 -1 10 -2 41 -3 68
-3 57 -31 116 -80 167 -19 19 -34 45 -34 59 -1 13 -3 33 -4 44 -2 13 4 21 17
23 35 7 46 22 30 39 -8 8 -15 22 -16 31 0 9 -2 26 -5 37 -2 11 -6 34 -8 50
-12 73 -56 206 -76 227 -39 42 -53 78 -41 106 9 19 9 29 -3 46 -9 11 -29 40
-46 64 -16 23 -30 48 -30 54 0 6 -3 9 -6 5 -8 -7 -23 7 -47 46 -22 35 -15 46
54 84 l49 26 -22 24 c-29 31 -49 29 -90 -9 -19 -18 -49 -44 -66 -57 -17 -13
-29 -27 -27 -31 3 -5 1 -10 -4 -12 -12 -4 -24 -78 -13 -78 15 0 10 -34 -10
-69 -10 -18 -17 -35 -15 -37 2 -3 30 -11 62 -19 32 -9 62 -18 66 -21 16 -9 10
-24 -14 -35 -12 -5 -29 -23 -38 -38 -9 -15 -36 -40 -60 -56 -44 -29 -44 -29
-45 -89 -2 -65 -25 -176 -49 -238 -8 -21 -12 -38 -9 -38 4 0 1 -7 -6 -15 -6
-8 -9 -19 -6 -24 4 -5 -7 -49 -25 -98 -17 -48 -32 -98 -35 -110 -2 -13 -6 -35
-9 -50 -9 -41 -17 -95 -19 -119 -1 -12 -7 -28 -13 -35 -6 -8 -14 -30 -19 -49
-4 -19 -9 -39 -10 -45 -2 -5 -5 -19 -7 -30 -8 -33 -38 -139 -44 -155 -4 -8 -7
-17 -7 -20 -1 -3 -6 -12 -11 -20 -9 -15 -11 -21 -19 -70 -2 -14 -12 -50 -22
-80 -10 -30 -18 -57 -19 -60 0 -3 -6 -21 -13 -40 -6 -19 -14 -53 -16 -75 -3
-22 -11 -62 -18 -89 l-14 -48 -13 26 c-8 14 -20 26 -27 26 -8 0 -15 19 -19 48
-4 26 -13 61 -20 77 -18 42 -32 91 -45 157 -6 32 -15 57 -20 55 -11 -2 -120
65 -120 75 0 3 19 14 43 23 l43 16 -15 62 c-8 34 -27 80 -42 103 -17 25 -26
49 -23 61 3 11 0 40 -7 64 -14 50 -16 57 -23 84 -39 149 -51 188 -73 238 -18
40 -31 57 -45 57 -24 0 -33 23 -18 50 25 46 22 69 -12 100 -30 28 -31 31 -20
63 14 40 15 72 3 95 -5 10 -12 47 -14 82 -3 36 -6 66 -6 68 -1 1 -6 1 -13 0
-7 -2 -16 15 -21 39 -7 28 -16 43 -30 47 -16 4 -18 9 -12 28 13 35 9 188 -5
188 -3 0 -6 19 -8 43 -3 43 -5 56 -17 94 -7 22 -8 22 -39 6 -59 -30 -146 -103
-146 -121 0 -6 -9 -13 -19 -17 -11 -3 -21 -14 -23 -23 -4 -17 18 -98 32 -117
7 -10 18 -48 27 -95 2 -14 10 -36 18 -50 49 -90 64 -131 59 -159 -5 -25 24
-141 45 -176 7 -12 11 -29 18 -71 3 -20 14 -36 29 -45 26 -14 39 -47 31 -79
-3 -11 1 -44 8 -72 8 -29 16 -65 20 -80 3 -16 8 -40 11 -55 3 -16 7 -34 8 -41
3 -19 25 -30 52 -27 16 1 24 -3 25 -14 1 -9 3 -26 4 -39 1 -13 -4 -26 -11 -29
-20 -7 -17 -37 6 -83 11 -22 20 -48 20 -59 0 -11 9 -25 20 -31 16 -9 19 -19
16 -57 -3 -32 1 -55 12 -72 10 -14 16 -26 15 -28 -2 -2 -3 -4 -2 -5 0 -2 2
-10 4 -18 20 -97 38 -156 48 -162 6 -4 13 -24 14 -45 8 -121 9 -123 80 -148 8
-3 9 -15 2 -45 -8 -33 -5 -56 13 -113 24 -80 25 -83 27 -97 0 -5 7 -10 15 -10
18 0 45 -134 47 -234 0 -30 18 -56 37 -55 38 2 116 54 138 94 12 21 26 41 32
43 6 2 0 25 -15 58 -25 54 -25 67 -6 144 2 8 5 25 6 37 1 13 4 23 7 23 3 0 6
20 7 43 2 43 55 272 73 314 6 14 6 24 -1 29 -15 9 -4 57 31 130 18 36 33 77
33 90 0 13 3 24 7 24 4 0 6 10 6 22 -1 13 0 28 3 33 6 12 7 14 21 80 6 28 14
57 17 65 4 8 5 19 4 23 0 4 10 47 24 95 13 48 27 113 30 145 3 32 10 68 17 80
7 12 13 27 15 32 1 6 7 28 12 51 6 22 17 54 26 70 8 16 15 41 15 56 0 15 4 29
9 32 5 4 8 14 6 24 -1 9 2 23 8 30 5 6 7 12 3 12 -3 0 -1 11 4 25 5 14 12 46
16 72 10 73 21 98 39 83 7 -6 17 -26 20 -43 4 -18 16 -61 28 -97 11 -36 20
-71 19 -77 -2 -7 1 -13 6 -13 5 0 15 -26 22 -57 14 -62 27 -86 41 -77 27 16
45 11 48 -14 1 -15 2 -31 1 -37 -8 -66 -5 -99 19 -170 16 -50 32 -81 41 -81 8
-1 19 -2 23 -3 4 0 2 -11 -5 -23 -7 -13 -12 -25 -11 -28 3 -12 16 -96 16 -107
0 -7 5 -13 10 -13 5 0 7 -7 3 -15 -3 -8 -1 -15 4 -15 5 0 15 -24 23 -53 49
-184 58 -220 72 -296 2 -13 12 -29 21 -36 10 -7 19 -25 20 -41 8 -103 26 -222
40 -267 4 -12 17 -31 29 -42 15 -15 20 -27 15 -40 -10 -27 13 -117 48 -195 16
-36 37 -86 47 -113 l17 -47 28 20 c15 11 32 20 37 20 6 0 18 9 28 19 17 19 19
64 14 290 -1 14 6 30 15 37 11 7 15 21 12 37 -2 14 -2 28 2 31 6 7 10 28 17
91 5 47 26 125 47 175 9 20 12 44 8 55 -4 11 -4 30 1 43 5 12 6 22 3 22 -3 0
-1 8 4 17 7 11 5 21 -4 31 -8 7 -12 18 -9 23 4 5 0 9 -7 9 -7 1 -1 11 13 23
33 28 62 109 73 202 1 12 6 26 10 33 4 7 5 12 3 12 -3 0 3 30 12 68 9 37 17
74 16 82 0 8 8 24 18 35 9 10 15 25 13 32 -3 7 -1 15 4 18 7 4 6 13 0 26 -8
13 -7 19 0 19 6 0 9 4 5 9 -3 5 -1 12 5 16 5 3 10 15 10 26 0 10 4 19 8 19 5
0 9 6 10 13 3 48 59 246 76 272 12 18 12 26 2 41 -7 11 -13 31 -14 46 -1 21 4
28 28 37 31 10 34 18 30 78 -1 19 5 40 14 49 9 8 14 20 11 25 -4 5 -2 9 3 9 5
0 12 9 15 20 3 11 0 20 -6 20 -8 0 -7 4 1 12 7 7 12 26 12 44 0 17 9 51 19 75
11 24 21 64 23 89 2 25 7 51 12 58 4 6 5 16 2 21 -3 4 -1 23 4 42 14 49 -24
68 -58 28z"/>
</g>
</svg>
