<?xml version="1.0" encoding="utf-8"?>
<!-- Generator: Adobe Illustrator 23.0.0, SVG Export Plug-In . SVG Version: 6.00 Build 0)  -->
<svg version="1.1" id="cbb92aef-a4c8-4910-9d60-405154a20c92"
	 xmlns="http://www.w3.org/2000/svg" xmlns:xlink="http://www.w3.org/1999/xlink" x="0px" y="0px" viewBox="0 0 1116.2 857.1"
	 style="enable-background:new 0 0 1116.2 857.1;" xml:space="preserve">
<style type="text/css">
	.st0{opacity:0.1;fill:#1A1A1A;enable-background:new    ;}
	.st1{fill:none;stroke:#535461;stroke-width:2;stroke-miterlimit:10;}
	.st2{fill:#1A1A1A;}
	.st3{opacity:0.25;enable-background:new    ;}
	.st4{fill:url(#SVGID_1_);}
	.st5{fill:#FFFFFF;}
	.st6{fill:#5A5773;}
	.st7{opacity:0.1;enable-background:new    ;}
	.st8{fill:#FFD037;}
	.st9{fill:#A8A8A8;}
	.st10{opacity:0.2;enable-background:new    ;}
	.st11{opacity:0.2;fill:#5A5773;enable-background:new    ;}
	.st12{fill:url(#SVGID_2_);}
	.st13{fill:#EFB7B9;}
	.st14{fill:#FF6484;}
	.st15{fill:#444053;}
	.st16{fill:#A1616A;}
	.st17{fill:#925978;}
	.st18{opacity:0.1;}
	.st19{font-family:'Papyrus-Regular';}
	.st20{font-size:15.169px;}
</style>
<title>add to cart</title>
<path class="st0" d="M1089.2,582.7c-1,0.7-1.9,1.4-2.9,2.1c-3.6,2.6-7.4,4.9-11.3,6.9c-20.6,10.8-45.9,16.2-70.7,19.8
	c-55.4,8.1-112,9.7-168.3,11.2c-152.2,4.2-304.8,8.4-456.7-1.3c-60-3.8-121.3-10.2-175.7-29.7c-7.8-2.8-15.4-5.9-22.9-9.2
	c-15.1-6.8-29.7-15.1-41.8-25c-11.4-9.3-20.6-19.9-26.1-32.1c-11.5-25.2-5.4-53.6,7.7-78.3c5.4-10,11.6-19.6,18.4-28.8
	c10.1-13.9,21.3-27.5,31.5-41.4c36.3-49.5,59.9-112.1,26.4-162.8c-9.6-14.6-23.5-27.4-31.4-42.6c-10-19.5-9.2-41.1-6.1-62.1
	c0.4-2.7,0.9-5.3,1.3-7.9c5.4-31.1,15.7-64.7,47.2-84.1C240.6-2.8,287-1.7,327.7,5.5c63.2,11.3,121.4,34.8,180.3,56
	s120.5,40.6,185.2,42.7c57.2,1.8,123.8-11.9,161.7-47.7c36.8-34.8,106.1-37.4,156-16.4c34.3,14.4,59.8,40.4,70.6,69.6
	c2.2,5.9,3.8,11.9,4.7,18.1c0.9,5.7,1.1,11.4,0.8,17.1c-0.2,2.8-0.4,5.6-0.8,8.4c-8.3,57.6-68.4,103.1-104.9,154.5
	c-17.8,25.1-30.4,55.3-18.2,82.4c18.7,41.3,83.7,56,123,86.7c7.4,5.6,13.9,12.3,19.3,19.8C1124.6,524,1117.5,560.9,1089.2,582.7z"/>
<g id="d00831fc-a64a-413c-b5dd-d7bd6eafa01d">
	<path class="st1" d="M258,324.9c0,0-46-81.5-115.3-105c-29.1-9.9-54.5-28.4-71.8-53.7c-8.2-12-15.3-24.8-21.2-38.1"/>
	<path class="st2" d="M6,112.9c7.9,7.6,44.7,15.6,44.7,15.6s-9-36.5-16.9-44.2c-8-7.6-20.6-7.2-28.2,0.8C-1.8,93-1.6,105.3,6,112.9
		L6,112.9z"/>
	<path class="st2" d="M26.8,179c10.8,2.1,46-11.2,46-11.2S45.4,142,34.6,139.9c-10.8-1.9-21.2,5.3-23.1,16.2
		C9.7,166.6,16.4,176.7,26.8,179L26.8,179z"/>
	<path class="st2" d="M102.6,250.5c10.4-3.6,34-32.9,34-32.9s-36.7-8.4-47.1-4.8c-10.5,3.3-16.4,14.4-13.1,24.9
		c3.3,10.5,14.4,16.4,24.9,13.1C101.8,250.8,102.1,250.7,102.6,250.5L102.6,250.5z"/>
	<path class="st2" d="M172.1,291.7c10.9-1.8,39.1-26.6,39.1-26.6s-34.7-14.5-45.6-12.7c-10.9,1.8-18.2,12-16.4,22.9
		C151,286.2,161.2,293.5,172.1,291.7L172.1,291.7z"/>
	<path class="st2" d="M103.5,139.3c0,11-19.9,42.9-19.9,42.9s-19.9-31.9-20-42.9c-0.2-11,8.5-20.1,19.5-20.4s20.1,8.5,20.4,19.5
		C103.5,138.7,103.5,139,103.5,139.3L103.5,139.3z"/>
	<path class="st2" d="M184.2,188.5c-3.3,10.5-31.8,35-31.8,35s-9.5-36.5-6.2-47c3.7-10.4,15.2-15.7,25.5-12
		C181.3,168.1,186.8,178.5,184.2,188.5L184.2,188.5z"/>
	<path class="st2" d="M256,247.1c-1.5,10.9-25.5,39.9-25.5,39.9s-15.5-34.3-14-45.2c1.6-10.9,11.8-18.4,22.7-16.8
		C249.9,226.6,257.3,236.4,256,247.1L256,247.1z"/>
	<path class="st3" d="M6,112.9c7.9,7.6,44.7,15.6,44.7,15.6s-9-36.5-16.9-44.2c-8-7.6-20.6-7.2-28.2,0.8C-1.8,93-1.6,105.3,6,112.9
		L6,112.9z"/>
	<path class="st3" d="M26.8,179c10.8,2.1,46-11.2,46-11.2S45.4,142,34.6,139.9c-10.8-1.9-21.2,5.3-23.1,16.2
		C9.7,166.6,16.4,176.7,26.8,179L26.8,179z"/>
	<path class="st3" d="M102.6,250.5c10.4-3.6,34-32.9,34-32.9s-36.7-8.4-47.1-4.8c-10.5,3.3-16.4,14.4-13.1,24.9
		c3.3,10.5,14.4,16.4,24.9,13.1C101.8,250.8,102.1,250.7,102.6,250.5L102.6,250.5z"/>
	<path class="st3" d="M172.1,291.7c10.9-1.8,39.1-26.6,39.1-26.6s-34.7-14.5-45.6-12.7c-10.9,1.8-18.2,12-16.4,22.9
		C151,286.2,161.2,293.5,172.1,291.7L172.1,291.7z"/>
	<path class="st3" d="M103.5,139.3c0,11-19.9,42.9-19.9,42.9s-19.9-31.9-20-42.9c-0.2-11,8.5-20.1,19.5-20.4s20.1,8.5,20.4,19.5
		C103.5,138.7,103.5,139,103.5,139.3L103.5,139.3z"/>
	<path class="st3" d="M184.2,188.5c-3.3,10.5-31.8,35-31.8,35s-9.5-36.5-6.2-47c3.7-10.4,15.2-15.7,25.5-12
		C181.3,168.1,186.8,178.5,184.2,188.5L184.2,188.5z"/>
	<path class="st3" d="M256,247.1c-1.5,10.9-25.5,39.9-25.5,39.9s-15.5-34.3-14-45.2c1.6-10.9,11.8-18.4,22.7-16.8
		C249.9,226.6,257.3,236.4,256,247.1L256,247.1z"/>
	<path class="st1" d="M255.3,323.2c0,0-9-93.2-62.9-142.7c-22.6-20.8-38.3-48-43.9-78.2c-2.6-14.3-3.9-28.9-3.9-43.5"/>
	<path class="st2" d="M110.9,27.4c4.1,10.2,34.5,32.4,34.5,32.4s6.6-37,2.4-47.3c-4.1-10.2-15.7-15.2-25.9-11.1
		S106.7,17.2,110.9,27.4L110.9,27.4z"/>
	<path class="st2" d="M103.1,96.2c9,6.3,46.6,8.4,46.6,8.4s-14.6-34.7-23.6-41c-9-6.4-21.4-4.2-27.8,4.8S94.1,89.9,103.1,96.2z"/>
	<path class="st2" d="M143.4,192.3c11,0.9,44.4-16.3,44.4-16.3s-30.1-22.5-41.1-23.5c-10.9-1.2-20.8,6.8-21.9,17.7
		c-1.2,10.9,6.8,20.8,17.7,21.9C142.8,192.3,143.1,192.3,143.4,192.3L143.4,192.3z"/>
	<path class="st2" d="M190.3,258.1c10.7,2.8,46.5-8.5,46.5-8.5s-25.9-27.3-36.5-30.1c-10.7-2.6-21.5,4-24.1,14.7
		C173.7,244.7,179.9,255.3,190.3,258.1L190.3,258.1z"/>
	<path class="st2" d="M189.3,91c-4.4,10.1-35.6,31.2-35.6,31.2s-5.3-37.2-0.9-47.3c4.3-10.1,16-14.9,26.1-10.6
		c10.1,4.3,14.9,16,10.6,26.1C189.5,90.6,189.4,90.8,189.3,91z"/>
	<path class="st2" d="M243.1,168.6c-7.3,8.3-43.3,19.1-43.3,19.1s6.1-37.1,13.4-45.4c7.3-8.3,19.8-9.1,28.1-1.8
		S250.4,160.4,243.1,168.6z"/>
	<path class="st2" d="M285.1,251.3c-5.8,9.4-39.4,26.1-39.4,26.1s-0.3-37.6,5.5-47c5.8-9.4,18-12.3,27.4-6.6
		C288,229.7,290.9,242,285.1,251.3L285.1,251.3z"/>
</g>
<ellipse class="st0" cx="408.2" cy="837.2" rx="111.5" ry="14.5"/>
<g>
	
		<linearGradient id="SVGID_1_" gradientUnits="userSpaceOnUse" x1="654.325" y1="244.76" x2="654.325" y2="741" gradientTransform="matrix(1 0 0 -1 -41.9 836.54)">
		<stop  offset="0" style="stop-color:#808080;stop-opacity:0.25"/>
		<stop  offset="0.54" style="stop-color:#808080;stop-opacity:0.12"/>
		<stop  offset="1" style="stop-color:#808080;stop-opacity:0.1"/>
	</linearGradient>
	<path class="st4" d="M1088.1,584.7V95.5H136.8v461.1c12.1,10.1,26.8,18.7,42,25.7c7.5,3.5,15.2,6.6,23,9.5h875L1088.1,584.7z"/>
	<path class="st5" d="M1086.3,584.9V109.5H138.8v448.1c12.1,9.9,26.6,18.2,41.8,25c7.5,3.3,15.1,6.4,22.9,9.2h871.4L1086.3,584.9z"
		/>
	<rect x="138.8" y="96.9" class="st6" width="947.4" height="25.1"/>
</g>
<g>
	<ellipse class="st0" cx="182.9" cy="836.1" rx="33.9" ry="5.8"/>
	<path class="st2" d="M190.2,771.5c0,0,5.5,7.2-2.5,18s-14.6,20-12,26.8c0,0,12.1-20.2,22-20.4C207.6,795.5,201.1,783.6,190.2,771.5
		z"/>
	<path class="st7" d="M190.2,771.5c0.5,0.7,0.9,1.5,1.1,2.3c9.6,11.3,14.8,21.8,5.5,22.1c-8.6,0.3-18.9,15.7-21.4,19.5
		c0.1,0.3,0.2,0.6,0.3,0.9c0,0,12.1-20.2,22-20.4C207.6,795.6,201.1,783.6,190.2,771.5z"/>
	<path class="st8" d="M200.5,780.6c0,2.5-0.3,4.6-0.6,4.6s-0.6-2-0.6-4.6s0.4-1.3,0.7-1.3S200.5,778.1,200.5,780.6z"/>
	<path class="st8" d="M204,783.7c-2.2,1.2-4.2,1.9-4.3,1.6c-0.2-0.3,1.5-1.5,3.7-2.8s1.3-0.3,1.5,0C205,782.9,206.2,782.4,204,783.7
		z"/>
	<path class="st2" d="M161.2,771.5c0,0-5.5,7.2,2.5,18s14.6,20,12,26.8c0,0-12.1-20.2-22-20.4C143.9,795.5,150.4,783.6,161.2,771.5z
		"/>
	<path class="st7" d="M161.2,771.5c-0.5,0.7-0.9,1.5-1.1,2.3c-9.6,11.3-14.8,21.8-5.5,22.1c8.6,0.3,18.9,15.7,21.4,19.5
		c-0.1,0.3-0.2,0.6-0.3,0.9c0,0-12.1-20.2-22-20.4C143.8,795.6,150.4,783.6,161.2,771.5z"/>
	<path class="st8" d="M151,780.6c0,2.5,0.3,4.6,0.6,4.6s0.6-2,0.6-4.6s-0.4-1.3-0.7-1.3S151,778.1,151,780.6z"/>
	<path class="st8" d="M147.5,783.7c2.2,1.2,4.1,1.9,4.3,1.6s-1.5-1.5-3.7-2.8s-1.3-0.3-1.5,0C146.4,782.9,145.3,782.4,147.5,783.7z"
		/>
	<path class="st9" d="M152.8,815.3c0,0,15.4-0.5,20-3.8c4.6-3.3,23.6-7.2,24.8-2c1.2,5.3,23.1,26.3,5.7,26.4s-40.3-2.7-44.9-5.5
		S152.8,815.3,152.8,815.3z"/>
	<path class="st10" d="M203.6,834.2c-17.3,0.1-40.3-2.7-44.9-5.5c-3.5-2.2-4.9-9.8-5.4-13.4h-0.5c0,0,1,12.4,5.6,15.2
		s27.6,5.7,44.9,5.5c5,0,6.7-1.8,6.6-4.5C209.2,833.2,207.3,834.2,203.6,834.2z"/>
	<path class="st2" d="M665.7,814.8c0,0-42.3-2.5-37.3,27.1c0,0-1,5.2,3.8,7.6c0,0,0.1-2.2,4.3-1.5c1.5,0.3,3.1,0.3,4.6,0.2
		c2.1-0.1,4.1-1,5.6-2.3l0,0c0,0,11.9-4.9,16.5-24.3c0,0,3.4-4.2,3.3-5.3l-7.1,3c0,0,2.4,5.2,0.5,9.4c0,0-0.2-9.2-1.6-9
		c-0.3,0-3.7,1.8-3.7,1.8s4.2,9,1,15.5c0,0,1.2-11-2.3-14.8l-5,2.9c0,0,4.9,9.3,1.6,16.8c0,0,0.8-11.6-2.6-16.1l-4.5,3.5
		c0,0,4.6,9.1,1.8,15.4c0,0-0.4-13.5-2.8-14.5c0,0-4,3.5-4.6,5c0,0,3.2,6.6,1.2,10.1c0,0-1.2-9-2.2-9c0,0-4,6-4.4,10
		c0,0,0.2-6.1,3.4-10.6c-2.3,0.4-4.4,1.5-6.1,3.2c0,0,0.6-4.2,7-4.6c0,0,3.3-4.5,4.2-4.8c0,0-6.4-0.5-10.3,1.2c0,0,3.4-4,11.5-2.2
		l4.5-3.7c0,0-8.4-1.2-12,0.1c0,0,4.1-3.5,13.2-1l4.9-2.9c0,0-7.2-1.5-11.5-1c0,0,4.5-2.4,12.9,0.2l3.5-1.6c0,0-5.3-1-6.8-1.2
		s-1.6-0.6-1.6-0.6c3.3-0.6,6.8-0.2,9.9,1.1C658.3,818,665.8,815.2,665.7,814.8z"/>
	<ellipse class="st0" cx="636.6" cy="852" rx="29.9" ry="5.1"/>
	<path class="st2" d="M591.6,816.3c0,0-23.8-1.4-21,15.3c-0.3,1.7,0.6,3.5,2.1,4.3c0,0,0-1.2,2.5-0.8c0.9,0.1,1.7,0.2,2.6,0.1
		c1.2-0.1,2.3-0.5,3.2-1.3l0,0c0,0,6.7-2.8,9.3-13.7c0,0,1.9-2.4,1.8-3l-4,1.7c0,0,1.4,2.9,0.3,5.3c0,0-0.1-5.2-0.9-5.1
		c-0.2,0-2.1,1-2.1,1s2.4,5,0.6,8.7c0,0,0.7-6.2-1.3-8.4l-2.8,1.7c0,0,2.8,5.2,0.9,9.5c0,0,0.5-6.5-1.5-9.1l-2.6,2
		c0,0,2.6,5.2,1,8.7c0,0-0.2-7.6-1.6-8.2c-1,0.8-1.8,1.8-2.6,2.8c0,0,1.8,3.7,0.7,5.7c0,0-0.7-5.1-1.2-5.1c0,0-2.2,3.4-2.5,5.7
		c0.1-2.1,0.8-4.2,1.9-6c-1.3,0.2-2.5,0.9-3.4,1.8c0,0,0.3-2.4,4-2.6c0,0,1.8-2.5,2.3-2.7c0,0-3.6-0.3-5.8,0.7c0,0,1.9-2.2,6.5-1.2
		l2.5-2.1c0,0-4.8-0.7-6.8,0.1c0,0,2.3-2,7.5-0.5l2.8-1.6c-2.1-0.5-4.3-0.7-6.5-0.6c0,0,2.5-1.4,7.3,0.1l2-0.9c0,0-3-0.6-3.8-0.7
		s-0.9-0.3-0.9-0.3c1.9-0.3,3.8-0.1,5.6,0.6C587.6,818.1,591.7,816.6,591.6,816.3z"/>
	<ellipse class="st0" cx="575.2" cy="837.3" rx="16.9" ry="2.8"/>
	<path class="st2" d="M637,780.9c0,0-28.8-1.7-25.4,18.4c-0.4,2.1,0.7,4.2,2.6,5.2c0,0,0-1.5,3-1c1,0.2,2.1,0.2,3.1,0.2
		c1.4-0.1,2.8-0.7,3.8-1.6l0,0c0,0,8.1-3.3,11.2-16.6c0,0,2.3-2.9,2.2-3.6l-4.9,2.1c0,0,1.7,3.5,0.4,6.4c0,0-0.2-6.3-1.1-6.1
		c-0.2,0-2.5,1.2-2.5,1.2s2.9,6.1,0.7,10.5c0,0,0.8-7.5-1.6-10.1l-3.4,2c0,0,3.3,6.3,1.1,11.5c0,0,0.6-7.9-1.8-11l-3.1,2.4
		c0,0,3.1,6.2,1.2,10.5c0,0-0.3-9.2-1.9-9.9c0,0-2.7,2.4-3.1,3.4c0,0,2.2,4.5,0.8,6.9c0,0-0.8-6.1-1.5-6.1c0,0-2.7,4-3,6.8
		c0.1-2.6,0.9-5.1,2.3-7.2c-1.6,0.3-3,1-4.1,2.1c0,0,0.4-2.9,4.8-3.1c0,0,2.2-3.1,2.8-3.3c0,0-4.4-0.4-7,0.8c0,0,2.3-2.7,7.8-1.5
		l3.1-2.5c0,0-5.7-0.8-8.2,0.1c0,0,2.8-2.4,9-0.7l3.3-2c0,0-4.9-1-7.8-0.7c0,0,3.1-1.7,8.8,0.1l2.4-1.1c0,0-3.6-0.7-4.6-0.8
		s-1.1-0.4-1.1-0.4c2.3-0.4,4.6-0.1,6.7,0.8C632,783.1,637.1,781.2,637,780.9z"/>
	<ellipse class="st0" cx="617.2" cy="806.3" rx="20.4" ry="3.4"/>
</g>
<g>
	<circle class="st5" cx="157.8" cy="109.5" r="6.5"/>
	<circle class="st5" cx="175.3" cy="109.5" r="6.5"/>
	<circle class="st5" cx="192.8" cy="109.5" r="6.5"/>
</g>
<g>
	<rect x="381" y="177.3" class="st2" width="156.5" height="98.3"/>
	<rect x="164.3" y="177.3" class="st11" width="156.5" height="98.3"/>
	<rect x="597.6" y="177.3" class="st11" width="156.5" height="98.3"/>
	<rect x="164.3" y="317.9" class="st11" width="156.5" height="98.3"/>
	<rect x="381" y="317.9" class="st11" width="156.5" height="98.3"/>
	<rect x="597.6" y="317.9" class="st11" width="156.5" height="98.3"/>
	<rect x="164.3" y="458.5" class="st11" width="156.5" height="98.3"/>
	<rect x="381" y="458.5" class="st11" width="156.5" height="98.3"/>
	<rect x="597.6" y="458.5" class="st11" width="156.5" height="98.3"/>
</g>
<g>
	<g id="Layer_1-2_1_">
		<path class="st5" d="M446.6,209.5c0.1,0.3,0.2,0.5,0.3,0.8c0,0.1,0.1,0.6,0.2,1.6l0.2,0.7l0,0.5c0,0.3,0.1,0.5,0.2,0.8
			c-0.1,0-0.1,0-0.2,0.1c-0.1,0.1-0.2,0.3-0.2,0.3c0,0.2,0,0.3,0.1,0.5c0.3,0,0.5,0.1,0.5,0.2c0.1,0.2,0.1,0.3,0.1,0.5
			c0,0.2,0,0.3,0.1,0.5l0.4,0.1c0,0.9,0.2,1.9,0.5,2.8c-0.3,0.4-0.5,0.7-0.5,0.8c0,0.1,0.1,0.2,0.2,0.3c0.1,0.1,0.2,0.2,0.2,0.2
			l0.2,0c0,0,0.1,0,0.1,0.1c0.1,0.2,0.1,0.4,0.1,0.6c0,0.3-0.1,0.5-0.4,0.7l0.1,0.6c0,0,0.1,0,0.1,0c0.2,0,0.4,0.1,0.6,0.2
			c0.1,0.3,0.2,0.5,0.3,0.8c0.1,0.2,0.2,0.3,0.2,0.5l1,3.4c0.2,0.6,0.3,1,0.3,1c0,0-0.1,0.2-0.2,0.6c0.3,0.2,0.5,0.5,0.7,0.8
			l0.2,0.4l0.1,0.7l0.2,0.8l-1.5,0.5c0.6,0.3,1.1,0.7,1.7,1.1l0.5,0.1c0.1,0.6,0.2,1,0.3,1.3c0.2,0.7,0.4,1.3,0.7,2
			c0.1,0.7,0.2,1.1,0.3,1.4h0.4l0.3,0.7h0.1c0.1-0.4,0.2-0.7,0.2-0.8c0.1-0.3,0.2-0.7,0.3-1.1c0-0.3,0.1-0.5,0.1-0.8l0.8-2.5
			c0-0.1,0.1-0.3,0.1-0.4c0-0.2,0.1-0.5,0.1-0.7l0.5-1.1l0.1-0.6l0.2-0.6c0.3-1.4,0.5-2.1,0.5-2.2c0.1-0.2,0.2-0.3,0.4-0.4
			c0-0.2-0.1-0.3-0.1-0.3c0-0.1,0.2-1,0.5-2.6c0.1-0.4,0.3-1.1,0.8-1.9c0.1-0.5,0.2-1.1,0.3-1.6c0.6-1.6,0.8-2.8,0.8-3.6
			c0-0.2-0.1-0.4-0.1-0.6l1.3-0.8l0.4-0.6c0.3-0.2,0.6-0.4,0.9-0.6c0-0.1-0.1-0.1-0.2-0.2c-0.7-0.2-1.3-0.4-2-0.5l0.7-1.2
			c-0.2-0.2-0.3-0.4-0.3-0.6c0-0.3,0.1-0.6,0.2-0.8c0.1-0.2,0.3-0.4,0.5-0.6l0.6-0.4c0.6-0.5,0.9-0.7,0.9-0.8c0.1,0,0.2-0.1,0.3-0.1
			h0.1l0.7,0.7c-1.2,0.5-1.8,0.9-1.8,1.2c0,0.1,0.3,0.5,0.8,0.9c0.3,0.4,0.6,0.7,0.9,1.2l0.7,0.8c0,0.1-0.1,0.3-0.3,0.5
			c0.1,0.4,0.2,0.7,0.5,1c0.4,0.4,0.6,0.7,0.6,0.7c0.1,0.2,0.2,0.4,0.2,0.6c0.1,0.1,0.2,0.8,0.6,1.9c0.1,1,0.2,1.5,0.3,1.6
			c0.1,0.2,0.2,0.4,0.4,0.6l-0.1,0.1c-0.6,0.1-1,0.2-1,0.3l0.1,0.2c0.1,0.3,0.2,0.6,0.2,0.9l1,1.1l0.4,0.9c0.2,0.3,0.3,0.4,0.3,0.5
			v0.1h-0.1l-0.1,0.1c0,0.2,0.1,0.4,0.1,0.5c0.1,0.3,0.2,0.6,0.3,0.9h0.4c0.3,0.7,0.5,1.3,0.7,2l0.3,1l0.1,0.8
			c0.2,0.2,0.3,0.5,0.4,0.8c0.1,0.4,0.2,0.8,0.3,1.1c0,0.1,0,0.2-0.1,0.3c-0.1,0.2-0.1,0.4-0.2,0.5c0,0.2,0.1,0.4,0.3,0.5
			c0.1,0.1,0.2,0.1,0.3,0.1c0.1,0,0.2,0,0.3-0.1c0.1,0.3,0.2,0.8,0.3,1.4c0.1,0.3,0.3,0.6,0.5,1c0.1-0.1,0.2-0.2,0.3-0.3
			c0.2-0.2,0.3-0.5,0.3-0.7c0-0.2-0.1-0.4-0.2-0.6c0.1-0.1,0.3-0.2,0.4-0.3c0.2-0.5,0.3-0.9,0.5-1.4l-0.1-0.4l0.2-0.6l0.2-0.8
			l0.3-0.4l0.2-0.7l0.4-1.2l0.4-2c0.3-0.8,0.4-1.3,0.5-1.5c0.1-0.3,0.2-0.5,0.4-0.7c0-0.4,0.2-1.3,0.7-2.9c0.1-0.7,0.3-1.3,0.5-2
			c0.1-0.2,0.2-0.4,0.2-0.7c0,0-0.1-0.3-0.2-0.9l0.4-1.1c0-0.5,0.1-0.9,0.2-1.4c0.1,0,0.2,0,0.3,0c0.2,0,0.3-0.1,0.5-0.1
			c0-0.2-0.2-0.5-0.6-0.6c0-0.4,0.1-0.9,0.2-1.3v-0.9l0.1-0.5c0-0.4,0-0.7,0.1-1c0.3-0.8,0.9-1.3,1.6-1.5c0.3-0.4,0.5-0.6,0.6-0.6
			c0,0,0.2-0.1,0.5-0.1c0.1,0.1,0.1,0.2,0.1,0.3c0,0.1,0,0.3-0.1,0.4c-0.1,0.4-0.1,0.7-0.1,1.1l-0.1,0.5c0,0.4-0.1,0.7-0.2,1
			c-0.1,0.3-0.3,0.6-0.5,0.8c0,0.2,0.1,0.3,0.1,0.5c0,0.2-0.1,0.4-0.1,0.6c0,0.1,0,0.1,0,0.2c0,0.1,0,0.2,0,0.3
			c-0.1,0.2-0.2,0.3-0.2,0.5c0,0.1,0,0.1,0,0.2c-0.2,0-0.4,0.1-0.4,0.2l0.1,0.7v0.1c0,0.3-0.1,0.5-0.2,0.8c-0.2,0-0.4,0.1-0.5,0.2
			c-0.2,0.1-0.3,0.2-0.2,0.2l0,0.2l0,0.3c0.1,0.2,0.3,0.3,0.4,0.5c0,0-0.1,0.2-0.3,0.6c-0.1,0.2-0.1,0.3-0.2,0.5
			c-0.3,1.1-0.5,1.7-0.5,1.9c-0.1,0.4-0.2,0.8-0.4,1.3c-0.1,0.3-0.2,0.5-0.4,0.7v0.3c0,0.2,0,0.3,0,0.5c0,0.2,0,0.4-0.1,0.6
			c-0.1,0.2-0.2,0.3-0.4,0.4v0.3l-0.6,2.4c-0.2,0.9-0.3,1.5-0.3,1.7c-0.1,0.4-0.3,0.8-0.5,1.2c-0.3,0.2-0.5,0.3-0.5,0.5
			c0,0.2,0.1,0.4,0.4,0.6c0,0.3-0.1,0.7-0.3,1l0.2,0.9l-0.2,0.2c-0.2,0.6-0.5,1.3-0.6,1.9l-0.1,1.1l-0.3,1.1c0,0.1,0.1,0.2,0.1,0.3
			c-0.3,0.2-0.4,0.3-0.4,0.4c-0.1,0-0.2,0.3-0.2,0.6c0.2,0.3,0.3,0.5,0.3,0.6c0,0-0.1,0.3-0.2,0.8c0,0.5,0.1,0.7,0.1,0.8
			c0,0.1,0,0.3,0,0.7v0.6c-0.2,0.1-0.4,0.2-0.5,0.3c-0.3,0.2-0.6,0.4-0.9,0.6h-0.2c-0.2-0.3-0.3-0.5-0.3-0.8l-0.5-1.1l-0.2-0.5
			c-0.2-0.3-0.4-0.7-0.5-1.1c0-0.2-0.1-0.3-0.1-0.3c-0.1-0.3-0.1-0.5-0.1-0.8c0-0.2,0.1-0.4,0.2-0.5l0-0.1l-0.2,0
			c-0.1-0.2-0.2-0.3-0.4-0.5c-0.2-0.2-0.4-1-0.6-2.4c0-0.7-0.1-1.4-0.2-2.1c-0.2-0.1-0.4-0.1-0.4-0.2c0-0.1-0.1-0.6-0.3-1.5
			l-0.5-1.6l-0.2-0.9c0-0.1-0.2-0.6-0.6-1.7c-0.1-0.3-0.2-0.7-0.2-1c0-0.2-0.1-0.4-0.1-0.6c0.2-0.2,0.3-0.4,0.3-0.5
			c0-0.1-0.1-0.2-0.1-0.3c-0.1,0.1-0.2,0.2-0.3,0.2c-0.1,0-0.2-0.1-0.3-0.4c-0.3-0.9-0.6-1.8-0.7-2.7c0.2-0.1,0.3-0.3,0.3-0.4
			c-0.1-0.1-0.1-0.3-0.2-0.4c0,0,0-0.1,0-0.1c0-0.1,0-0.3,0.1-0.4c-0.3,0-0.6,0.1-0.9,0.2c-0.2-0.2-0.3-0.5-0.3-0.8
			c-0.1-0.3-0.4-1.1-0.8-2.4c-0.1-0.2-0.2-0.4-0.2-0.6l-0.1-0.5l-0.1-0.6c-0.1-0.2-0.2-0.3-0.4-0.5c-0.2,0.2-0.3,0.5-0.4,0.7
			c0,0-0.1,0.5-0.3,1.5l-0.2,0.6l-0.1,0.6l-0.2,0.3l-0.1,0.7l-0.4,0.7l-0.3,1.3c-0.3,0.5-0.4,0.9-0.4,1.1c0,0.6-0.1,1.2-0.3,1.7
			l-0.7,2.4l-0.6,2.5c-0.2,0.9-0.4,1.4-0.4,1.5c-0.1,0.2-0.3,0.3-0.4,0.5c-0.1,0.5-0.2,1-0.4,1.5l0.3,0.2c-0.3,0.8-0.5,1.7-0.8,2.5
			l-0.3,1.1l-0.1,0.5l-0.1,0.6l0,0.4l-0.2,0.7l-0.1,0.4c-0.1,0.2-0.2,0.5-0.2,0.7c0,0.2,0.1,0.4,0.2,0.6c0.3,0.6,0.5,0.9,0.5,1
			c0,0.1-0.2,0.3-0.5,0.7c-0.1,0.3-0.2,0.5-0.4,0.7c-0.3,0.2-0.6,0.3-0.9,0.4c-0.2,0.1-0.4,0.2-0.7,0.3c-0.2,0-0.3-0.1-0.4-0.2
			c-0.1-0.8-0.2-1.6-0.2-2.3c0-0.1-0.1-0.6-0.4-1.4l-0.3-0.1c-0.1-0.3-0.3-1-0.7-2c-0.1-0.2-0.1-0.3-0.1-0.5
			c0.1-0.4,0.2-0.8,0.3-1.1c-0.1,0-0.3-0.1-0.4-0.1c-0.1-0.1-0.3-0.1-0.4-0.1c-0.1,0-0.2,0-0.2,0.1c-0.1-0.2-0.2-0.3-0.2-0.5
			c0-0.3-0.1-0.6-0.2-0.9c0-0.1-0.1-0.3-0.1-0.5c0-0.2,0.1-0.4,0.2-0.5l-0.5-0.1c-0.1-0.3-0.2-0.6-0.3-0.9c0-0.1-0.1-0.5-0.3-1.3
			c-0.1-0.4-0.2-0.7-0.4-1c-0.1-0.1-0.1-0.3-0.1-0.5c0-0.1,0.1-0.2,0.1-0.3c0.1-0.1,0.1-0.3,0.1-0.4c-0.2-0.2-0.4-0.3-0.6-0.3
			c0-0.3-0.1-0.7-0.2-1l-0.4-0.8c0-0.1,0-0.2,0-0.3l0.3-0.2c0.1-0.2,0.1-0.5,0.1-0.7c0-0.2-0.1-0.3-0.2-0.5
			c-0.1,0.1-0.2,0.1-0.3,0.2c-0.1,0-0.2-0.1-0.3-0.2H448c-0.1-0.2-0.2-0.7-0.4-1.6l-0.5-1.8l0-0.7c0-0.5-0.3-0.8-0.8-0.9
			c-0.1-0.4-0.2-0.8-0.3-1.2l-0.8-2.1c0,0,0-0.2-0.1-0.6l0.3-0.2c-0.3-0.5-0.5-1.1-0.7-1.6l-0.2-0.1c-0.2-0.6-0.4-1.3-0.6-2
			c-0.5-1.1-0.7-1.6-0.7-1.7c0-0.1,0-0.3,0.1-0.4c0,0,0.2-0.1,0.4-0.2c0.1-0.2,0.2-0.4,0.3-0.6c0,0,0.2-0.2,0.5-0.4l0.3-0.2
			c0.2-0.2,0.5-0.4,0.8-0.5l0.3-0.1C446.3,209.8,446.4,209.7,446.6,209.5z"/>
	</g>
</g>
<g>
	
		<linearGradient id="SVGID_2_" gradientUnits="userSpaceOnUse" x1="475.6245" y1="-3.7199" x2="475.6245" y2="634.6624" gradientTransform="matrix(1 0 0 -1 -41.9 836.54)">
		<stop  offset="0" style="stop-color:#808080;stop-opacity:0.25"/>
		<stop  offset="0.54" style="stop-color:#808080;stop-opacity:0.12"/>
		<stop  offset="1" style="stop-color:#808080;stop-opacity:0.1"/>
	</linearGradient>
	<path class="st12" d="M509.5,423.7c0,0-28.1-51.4-23.4-59.7s8.2-20.5,8.2-20.5s10.4-7.1,10.4-10s8.2-9.6,12.5-12.5s2.2-16.7,0-18.4
		s-5.6-7.5-5.6-7.5s3-8.4,0-10.9c-3-2.5,0.4-5,0-7.5c-0.4-2.5,0-11.7,0-11.7c-3.5-4.9-7.4-7.2-11.1-8l-0.3-1.3l-1.8-7.8
		c0,0,9-17.3-5.6-26.3c-1-0.6-2.1-1.2-3.2-1.7c0,0,0-0.4-0.1-1.1c-0.2-2.6-0.8-9-2.1-13.2c-0.8-2.4-1.8-4.1-3-3.7
		c-0.3,0.1-0.6,0.3-0.8,0.5c-0.6,0.5-1.1,1.2-1.5,1.8l0,0c0,0,0,0.1-0.1,0.1l0,0c-1.7,3-2.8,6.2-3.4,9.5c-0.4,2-0.8,4-1,6l0,0
		c-0.6,1.2-1.2,2.4-1.7,3.7c-1.8,4.6-3.8,12.5-0.1,18.4c3.2,5,7.5,11.9,10.6,16.9l0.1,0.2l0.2,0.3l-0.3,0.2v0.8l0.3,4.2l2.4,36.4
		c-0.7-0.2-1.5-0.4-2.2-0.5c-1.1-0.2-2.1-0.2-3.2-0.2c-2.1-8.3-7.9-16-9-24.7c-0.1-0.9-0.2-1.7-0.2-2.6c0.1-5.5,1.5-10.9,1.3-16.4
		c0-1,0-2-0.1-3l0,0c0-0.3,0-0.5-0.1-0.8c-1.1-8-6.1-15-13.4-18.6c-2.5-1.3-5.2-2.1-7.7-3.5c-5.6-3.2-9.3-8.9-14.4-12.8
		c-3.8-2.9-9.5-4.5-13.8-3c-2.3,0.3-4.5,0.8-6.7,1.4l0,0c-5.4,1.4-10.5,3.5-15.3,6.4c-0.6,0.4-1.3,0.8-1.9,1.3
		c-1.4,0.9-2.4,2.1-3.1,3.6c-0.4,1.2-0.6,2.6-0.5,3.9c0,1,0,1.9,0.1,2.9c-0.3,16-17.5,28.4-18.9,44c0,0.4-0.1,0.7-0.1,1.1
		c0,0.1,0,0.2,0,0.3c0,0.5,0,0.9,0,1.4l0,0c0,0.2,0,0.4,0,0.6s0,0.4,0,0.6c0.3,6.9,3.8,13.2,4.5,20c0.1,0.6,0.1,1.2,0.1,1.8
		c-0.1,3.1-0.7,6.2-1.8,9.2c-2.2,0.6-4.3,1.4-6.2,2.5c-5.2,3.4-14.7,9.2-18.1,20.3c-0.9,2.9-1.3,5.9-1.3,8.9
		c-0.1,10.7-1,21.3-2.9,31.9c-0.4,2.6-1.1,5.3-1.8,7.8c-0.1,0.2-0.1,0.5-0.1,0.8l-2.1,27l-0.4,4.8l-0.5,6.8c0,0,0.1,0.4,0.4,1.1
		c0.3,1,0.6,2.1,0.8,3.1c0.6,2.3,0.7,4.7,0.3,7c-0.2,1-0.7,1.9-1.5,2.6c-0.1,0.1-0.1,0.1-0.2,0.2c-0.6,0.8-1.1,3.3-1.6,6.9
		c-0.2,1.4-0.4,3-0.5,4.7c-1,10.6-1.6,26.6-2,39.8c-0.4,13-0.5,23.3-0.5,23.3c1.7,1.1,3.5,2,5.4,2.7c-0.1,0.3-0.3,0.7-0.4,1.1
		c-1.7,4.4-2.8,9-3.3,13.7c-0.8,9.8,1.9,20.8,15.6,26.4c0.9,0.4,1.8,0.7,2.7,0.9c3,0.8,5.2,0.6,6.8-0.4c0,0.6,0.1,1.2,0.1,1.7
		c0.1,2.4,0.3,4.7,0.3,6.5c0.4,11.7,3.3,32.2,3.3,32.2s1,8.4,0.1,10.9s0,12.5,0,12.5s3,5,0,7.5s-3.9,15-3,16.7c0,0.1,0,0.1,0,0.2
		c0.7,4.2-3.1,65.8-3.1,65.8s-3.5,9.4-6.3,19.2c-2.7,9.5-4.8,19.4-2.3,21.3c1.3,0.9,4.2,1.6,7.9,2.1c0,0.4-0.1,0.8-0.1,1.2
		c-0.4,4.4-0.9,9.2-1.8,10.4c-1.2,1.7-2.4,14.9-3,22l-0.1,0.8c-1.3,3-2.4,6.2-3.2,9.3c0,0-9.6,24-6.3,30.2c0.3,0.6,0.7,1.1,1.2,1.5
		l0,0c0.1,0.1,0.2,0.2,0.3,0.3c4.6,3.7,16.2,4.5,20.4,4.6l-0.2,5.9v0.2h5.5v-0.2c0-0.8,0.1-4.2,0.3-8.8c0-0.8,0.1-1.7,0.1-2.6
		c0-0.7,0.1-1.4,0.1-2.1c1.6-4.3,2.4-8.8,2.4-13.3c0-5.2,0.7-10.4,2.1-15.5c0.7-2.6,1.6-5.1,2.8-7.5c0,0,1.7-9-0.7-15.4
		c-0.5-1.3-1.1-2.4-2-3.5c0-0.2,0-0.4,0-0.6s0-0.5,0-0.7s0-0.4,0-0.6c-0.1-4.3,0.4-8.6,1.3-12.8c0-0.1,0-0.1,0-0.2
		c0.1-0.3,0.2-0.7,0.3-1l0.1-0.2l1.8,0.1c5.4,0.2,9.4,0.2,9.4,0.2s4.3-22.1,3.9-31.7c0-0.4,0-0.9,0-1.3c-0.1-9.5,2.6-22.5,2.6-22.5
		l3.5-33.9c0,0-1.7-5.9,0-10c1.1-2.6,3.3-7.4,4.8-10.7c0.7-1.5,1.3-2.7,1.5-3.3l0.1-0.3c-0.5-0.2-1.1-0.4-1.5-0.8l0,0
		c-1.4-0.9-2.7-2.8,1.5-5.5c6.5-4.2,4.3-14.6,4.3-14.6s-1.9-3.8,0.3-7.1s0-15.9,0-15.9c1.9-3.3,3.3-6.8,4.4-10.5
		c1.6-5,5.7-29.5,7.6-41.2c0.6-3.9,1-6.4,1-6.4l0.1,0.6l0.1,0.7l0,0l0.5,5.6l0.1,0.7l1,10.5c0,0,2,27.7,0.8,38.5c0,0.1,0,0.1,0,0.2
		c-0.1,1.1-0.3,2.2-0.7,3.3c-2.3,5.2-1.9,25.9-1.8,30.4c0,0.4,0,0.7,0,0.9s-1.6,4.1-1.2,7.1l0,0c0.1,0.8,0.4,1.5,0.8,2.1
		c0.6,1,0.9,2.1,0.8,3.3v0.1c0,0.5-0.1,1-0.1,1.4c-0.3,1.9-0.8,3.8-1.5,5.7c0,0-2.3,6.1-1.4,9.3l0,0c0.1,0.4,0.3,0.8,0.6,1.1
		c0.2,0.4,0.3,0.8,0.3,1.2c0,0,0,0.1,0,0.1c0.8,6.7-1.3,36.4-2.5,52.7c-0.5,6.4-0.9,10.7-0.9,10.7l-3.4,35.5l0.3,0.2
		c0.4,0.3,1.1,0.8,2.1,1.3c0,0,0,0,0,0.1l-0.1,1.1c-0.5,3.4-1.1,7.4-1.9,10.4c-0.1,0.2-0.1,0.5-0.2,0.7c-1.3,0.2-2.6,0.7-3.7,1.5
		c-7.3,12.9-4.1,23.2,0,26.2c1.1,0.8,1.9,3.2,2.5,6.1l1,12.9c0,0.5,0,1,0,1.5c0,0.4,0.1,0.8,0.2,1.2l0.3,3.9l0.4,5.4h3.3v-6.6h0.2
		c5.2,0.2,13.7,0.4,17.4,0.1h0.1c0.4,0,0.7-0.1,1-0.1c0.2,0,0.4-0.1,0.6-0.2c2-0.9,6.8-14.7,2.4-17.8s-5.4-12-5.4-12
		c-0.4-1.2-0.8-2.3-1.1-3.3c0-0.2,0-0.5,0-0.7c-0.1-4.3-0.1-8.9,0.5-11.5c0.7-2.8,1-8.6,1.1-13.7c0-0.4,0-0.8,0-1.2v-0.1
		c0.8-0.2,1.5-0.4,2.2-0.7l0.2-0.1c1.3-0.6,2.6-1.3,3.7-2.2l12.2-54.2l1.3-6.3l7.4-35.9c0,0-2.6-12.5,0-14.6c1-0.8,1.2-4,1.2-7.8
		c-0.1-6.6-1.2-14.8-1.2-14.8s3.5-5.4,5.2-8.8s0-12.1,0-12.1l3.4-20.1c0,0,3.9-23.8,13.4-43.9c7-14.8,2.5-54.6-2-75.8
		c-0.1-0.5-0.2-1.1-0.4-1.6v-0.1c2.1-1.1,4.8-2.3,7.6-3.7l1.1-0.5c3.5-1.7,7.3-3.4,10.7-4.8l0.2-0.1c2.4-1.1,4.9-2,7.4-2.8
		c0.7-0.2,1.5-0.4,2.3-0.5C527.6,455.5,509.5,423.7,509.5,423.7z M374.2,491.7h1.8c-0.2,0.4-0.4,0.8-0.6,1.2
		c-0.1,0.2-0.2,0.5-0.4,0.7c-0.7,1.4-1.3,2.8-1.8,4.1c0.2-1.5,0.5-3.1,0.7-4.8C374,492.5,374.1,492.1,374.2,491.7z M369.3,517.8
		c0,0,0-0.1,0-0.1l-0.1-0.5c-0.1-0.3-0.2-0.6-0.3-1c0.6-0.2,1.3-0.4,1.9-0.6h0.1c0,0.1,0,0.2,0,0.3c0,0.5-0.1,0.9-0.2,1.4l0,0
		c0,0.1,0,0.1,0,0.2c0,0.4-0.1,0.7-0.1,1.1c-0.1,0.7-0.2,1.4-0.3,2.1c-0.2-0.6-0.4-1.3-0.6-1.9C369.5,518.4,369.4,518.1,369.3,517.8
		L369.3,517.8z"/>
	<path class="st13" d="M499.1,263.5l-10.8,3.8l-3.9-6.5c-3-5-7.2-11.8-10.2-16.8c-5.4-8.7,1.7-22.1,1.7-22.1s1.3-13.4,5.8-17.5
		s5.8,17.5,5.8,17.5c18.3,8.3,8.5,27.9,8.5,27.9l1.8,7.8L499.1,263.5z"/>
	<path class="st7" d="M499.1,263.5l-10.8,3.8l-3.9-6.5v-0.6c0,0,6.2-4.3,13.4-2.6L499.1,263.5z"/>
	<path class="st14" d="M481.7,307.3l5.4-4.6l-2.7-41.2c0,0,14-9.6,24.4,5.4c0,0-0.4,9.2,0,11.7s-2.9,5,0,7.5s0,10.8,0,10.8
		s3.3,5.8,5.4,7.5s4.2,15.4,0,18.3c-4.2,2.9-12,9.6-12,12.5s-10,10-10,10l-8.8-11.6L481.7,307.3z"/>
	<path class="st13" d="M364.7,557.5c-20.2-8.6-15.7-29.5-11.9-40c0.8-2.1,1.7-4.2,2.7-6.2l11.3-6.9c0,0,2.3,5.9,4.8,13.8
		C377.3,536.5,383.9,565.6,364.7,557.5z"/>
	<path class="st13" d="M392.4,748.3c-1.4,2.7-2.4,5.5-3,8.4c-1,4.7-1.4,9.5-1.3,14.3c0.1,3.3,0.4,5.5,0.4,5.5L366,792
		c0,0,0.1-1.8,0.4-4.5c0.6-7.1,1.8-20.2,2.9-21.9c0.8-1.2,1.3-5.9,1.7-10.3s0.5-8.3,0.5-8.3S398.5,736.9,392.4,748.3z"/>
	<path class="st13" d="M445.5,759.4c0,0,0,4.3-0.2,9.3s-0.5,10.9-1.1,13.7c-0.6,2.5-0.6,7.2-0.5,11.4c0.1,5,0.5,9.5,0.5,9.5
		s-23-21.7-20.6-23.4c0.6-0.5,1.3-2.3,1.8-4.8c0.7-3,1.3-7,1.8-10.4c0.6-4,0.9-7.3,0.9-7.3L445.5,759.4z"/>
	<path class="st7" d="M392.4,748.3c-1.4,2.7-2.4,5.5-3,8.4c-6.2-0.2-12.3-0.6-18.4-1.4c0.3-4.3,0.5-8.3,0.5-8.3
		S398.5,736.9,392.4,748.3z"/>
	<path class="st7" d="M445.5,759.4c0,0,0,4.3-0.2,9.3c-7.2,1.8-14.5-1.8-18.1-4c0.6-4,0.9-7.3,0.9-7.3L445.5,759.4z"/>
	<path class="st15" d="M492.5,546.7c-9.2,20-12.9,43.7-12.9,43.7l-3.3,20c0,0,1.7,8.7,0,12.1s-5,8.8-5,8.8s2.5,20.4,0,22.5
		s0,14.6,0,14.6l-8.3,42l-11.7,54.1c-11.2,9.2-26.2-2.5-26.2-2.5l3.3-35.4c0,0,5-62,2.9-64.5s0.8-10.4,0.8-10.4s2.9-7.5,0.8-10.4
		s0.4-9.2,0.4-9.2s-0.8-25.4,1.7-31.2s0-41.9,0-41.9l-1-11.2l-0.6-6.2l0-0.6c0,0-0.4,2.5-1,6.3c-1.8,11.8-5.8,36.1-7.3,41.1
		c-1.1,3.6-2.5,7.1-4.3,10.4c0,0,2.2,12.5,0,15.8s-0.3,7.1-0.3,7.1s2.1,10.4-4.2,14.6s0,6.3,0,6.3s-4.6,10-6.2,14.2s0,10,0,10
		l-3.3,33.7c0,0-2.9,14.2-2.5,23.7s-3.8,31.6-3.8,31.6s-32.1,0-37-3.8s8.2-40.3,8.2-40.3s3.8-64.1,2.9-65.8s0-14.2,2.9-16.7
		s0-7.5,0-7.5s-0.8-10,0-12.5s-0.1-10.8-0.1-10.8s-2.8-20.4-3.2-32.1s-2.5-37.9-2.5-37.9s2.2-16.2,2.5-23.9c0.1-2.8,1.4-6.4,3-9.7
		c1.8-3.8,3.9-7.4,6.2-10.9c0,0,98.6-29.2,102.8-26.3c1.1,0.8,2.7,6,4.3,13.6C494.9,492.3,499.2,532,492.5,546.7z"/>
	<circle class="st16" cx="431.7" cy="263.5" r="28.7"/>
	<path class="st7" d="M490.5,471.1c-3.3,1.7-5.5,2.9-5.5,2.9s-46.6,22.1-59.9,20.8c-10.3-1-36.5-0.4-47.9-0.2
		c1.8-3.8,3.9-7.4,6.2-10.9c0,0,98.7-29.1,102.8-26.3C487.3,458.3,488.9,463.5,490.5,471.1z"/>
	<path class="st14" d="M411.7,309.3c0,0-26.6,4.2-32.9,8.3s-18.7,12.1-18.7,29.1s-2.9,34.6-4.6,39.5s26.2,45.4,26.2,45.4l-10,61.2
		c0,0,40-1.3,53.3,0s59.9-20.8,59.9-20.8s27.5-14.6,33.3-15s-11.7-32.1-11.7-32.1s-27.1-51.2-22.5-59.5s7.9-20.4,7.9-20.4l-5-42.5
		c0,0-7.5-2.5-13.7,2.1s-27.5,2.1-27.5,2.1L411.7,309.3z"/>
	<path class="st7" d="M366.5,383.5l-10.4,2.9l-2.9,39.2c0,0,3.8,10.4,0,13.7s-4.6,74.5-4.6,74.5s12.1,8.7,26.2,2.1
		c0,0-2.1-7.9,4.2-36.6s6.2-43.3,6.2-43.3s0-35.8,2.9-41.6s0-20.4,0-20.4s-5.8-7.9-5.4-10.8S366.5,383.5,366.5,383.5z"/>
	<path class="st7" d="M371.5,518.2c-6.1,2.1-12.8,1.8-18.8-0.7c0.8-2.1,1.7-4.2,2.7-6.2l11.3-6.9
		C366.8,504.4,369.1,510.3,371.5,518.2z"/>
	<path class="st14" d="M365.9,383.5l-10.4,2.9l-2.9,39.2c0,0,3.8,10.4,0,13.7s-4.6,74.5-4.6,74.5s12.1,8.7,26.2,2
		c0,0-2.1-7.9,4.2-36.6s6.3-43.3,6.3-43.3s0-35.8,2.9-41.6s0-20.4,0-20.4s-5.8-7.9-5.4-10.8S365.9,383.5,365.9,383.5z"/>
	<path class="st7" d="M472.5,389.7c0,0-5.4,46.6-21.2,55.4C451.3,445.1,486.6,435.1,472.5,389.7z"/>
	<path class="st7" d="M393,393.9c0,0,19.6,9.6,15,16.2S393,393.9,393,393.9z"/>
	<path class="st7" d="M393,413c0,0,12.5,12.9,10,17.5S393,413,393,413z"/>
	<path class="st7" d="M493.7,306c0,0,4.9,8.3,5.4,13.7S493.7,306,493.7,306z"/>
	<path class="st7" d="M493.7,294.8c0,0,2.5-2.1,8.7,0S493.7,294.8,493.7,294.8z"/>
	<path class="st7" d="M469.7,538.1c-10.3,1.5-20.8,0.1-30.5-3.9l-5.3,13.4l-0.6-6.2c0.9-5.2,2.5-10.8,5.8-12.2
		C439.2,529.2,450.8,538.4,469.7,538.1z"/>
	<path class="st7" d="M384.3,555.6c0,0,25.6,5.3,32.8,4.4L384.3,555.6z"/>
	<path class="st7" d="M386.9,562.3c0,0,10.9-0.5,16.4,1.7L386.9,562.3z"/>
	<path class="st7" d="M388.2,566.8c5,1.1,10,1.7,15.1,2L388.2,566.8z"/>
	<path class="st7" d="M387.6,624.1c0.5-0.3,21.9-5.3,24.5-1.7L387.6,624.1z"/>
	<path class="st7" d="M387.6,630.7c0,0,18.6-2.2,19,0S387.6,630.7,387.6,630.7z"/>
	<path class="st7" d="M387.6,636.6c0,0,19.8-4.1,22.2-3.1S387.6,636.6,387.6,636.6z"/>
	<path class="st7" d="M388.5,776.5L366,792c0,0,0.1-1.8,0.4-4.5c5-12.3,11.5-18.8,11.5-18.8c5.1-1.3,8.3-0.1,10.3,2.3
		C388.2,774.3,388.5,776.5,388.5,776.5z"/>
	<path class="st15" d="M390.7,790.4c-3.2,7.2-4.8,15.1-4.7,23c0.1,6.5-1.5,12.9-4.8,18.5c-0.5,0.8-1,1.5-1.6,2.3
		c0,0-15.6-0.1-21.1-4.7c-0.6-0.5-1.1-1.1-1.5-1.8c-3.1-6.2,6.1-30.1,6.1-30.1c4.8-18.4,14.7-28.3,14.7-28.3
		C395.4,764.8,390.7,790.4,390.7,790.4z"/>
	<path class="st7" d="M381.2,831.9c-0.5,0.8-1,1.5-1.6,2.3c0,0-15.6-0.1-21.1-4.7c2.7-8.9,11.3-35.8,15.3-31.3
		C377.6,802.5,380.3,823.2,381.2,831.9z"/>
	<path class="st15" d="M379.1,799.9l-1.1,40.3h5.2c0,0,0.9-35.4,3.2-40.3S379.1,799.9,379.1,799.9z"/>
	<path class="st7" d="M444.2,803.2c0,0-23-21.7-20.6-23.4c0.6-0.5,1.3-2.3,1.8-4.8c4.4-0.8,12,1.1,18.3,18.7
		C443.9,798.7,444.2,803.2,444.2,803.2z"/>
	<path class="st15" d="M447.7,827.4c-0.2,0.1-0.4,0.1-0.5,0.2c-2.7,0.5-12.6,0.2-18.2,0c-2.1-0.1-3.8-1.8-3.8-3.9
		c0-1.5,0-3.3-0.1-5.3c-0.3-6.2-1-13.5-3.2-15.1c-3.9-3-7-13.2,0-26.1c0,0,13.4-10.3,23.1,20.6c0,0,0.9,8.8,5.1,11.9
		S449.6,826.5,447.7,827.4z"/>
	<path class="st7" d="M447.1,827.6c-2.7,0.5-12.6,0.2-18.2,0c-2.1-0.1-3.8-1.8-3.8-3.9c0-1.5,0-3.3-0.1-5.3
		c1.7-7.5,4.1-15.1,7.3-16.9C432.2,801.5,441.7,800.4,447.1,827.6z"/>
	<polygon class="st15" points="423.5,800.6 426,834.2 429.2,834.2 429.2,797.7 	"/>
	<path class="st7" d="M431.3,217.7c-9.1,0.7-17.9,3.5-25.6,8.2c-2,1.2-4,2.7-4.8,4.9c-0.7,1.9-0.4,4-0.4,6
		c0.3,17.2-18.9,30.3-18.3,47.5c0.2,6.8,3.7,13.2,4.3,20c1,11.4-5.7,21.8-12.1,31.2c6.6,0.4,13.2-1.8,18.3-6
		c6.8,22.7,7.7,46.7,2.5,69.8h9.2c0.9-0.1,1.8,0,2.7,0.3c0.8,0.4,1.5,0.9,2.1,1.6c8.6,8.6,14.4,21.2,11.1,32.9l19.6-7.4
		c4.7-1.8,9.5-3.5,13.5-6.5s7.5-7.1,8.4-12c0.5-3,0.4-6.6,2.8-8.3c1.2-0.6,2.5-1.1,3.9-1.4c5.4-1.9,7.8-8.1,8.9-13.7
		c1.3-6.9,1.8-13.9,1.3-20.9c-0.9-11.7-4.3-23.6-1.5-35c1.6-6.4,5.2-12.4,5.5-19c0.5-10.9-8.1-20.3-9.3-31.2
		c-0.9-7.6,1.8-15.2,1-22.8c-1-7.9-5.8-14.9-12.9-18.6c-2.4-1.2-5-2.1-7.4-3.4c-5.4-3.1-8.9-8.8-13.8-12.7s-13.1-5.4-16.9-0.3
		L431.3,217.7z"/>
	<path class="st17" d="M431.3,216.4c-9.1,0.7-17.9,3.5-25.6,8.2c-2,1.2-4,2.7-4.8,4.9c-0.7,1.9-0.4,4-0.4,6
		c0.3,17.2-18.9,30.3-18.3,47.5c0.2,6.8,3.7,13.2,4.3,20c1,11.4-5.7,21.8-12.1,31.2c6.6,0.4,13.2-1.8,18.3-6
		c6.8,22.6,7.7,46.7,2.5,69.7h9.2c0.9-0.1,1.8,0.1,2.7,0.3c0.8,0.4,1.5,0.9,2.1,1.6c8.6,8.6,14.4,21.2,11.1,32.9l19.6-7.4
		c4.7-1.8,9.5-3.5,13.5-6.5s7.5-7.1,8.4-12c0.5-3,0.4-6.6,2.8-8.3c1.2-0.6,2.5-1.1,3.9-1.4c5.4-1.9,7.8-8.1,8.9-13.7
		c1.4-6.9,1.8-13.9,1.3-20.9c-0.9-11.7-4.3-23.6-1.5-35c1.6-6.4,5.2-12.4,5.5-19c0.5-10.9-8.1-20.3-9.3-31.2
		c-0.9-7.6,1.8-15.2,1-22.8c-1-7.9-5.8-14.8-12.9-18.6c-2.4-1.2-5-2.1-7.4-3.4c-5.4-3.2-8.9-8.8-13.8-12.7s-13.1-5.4-16.9-0.3
		L431.3,216.4z"/>
	<g class="st18">
		<path d="M400.4,231.4c0,0.4-0.1,0.8-0.1,1.2C400.4,232.1,400.4,231.7,400.4,231.4z"/>
		<path d="M473.1,271.4c0.4-5.3,1.5-10.6,1.1-15.9C473.9,260.8,472.7,266.1,473.1,271.4z"/>
		<path d="M386.4,297.7c-0.6-6.2-3.5-12-4.1-18.2c-0.1,1.1-0.2,2.3-0.1,3.4c0.2,6.8,3.6,13.1,4.3,19.8
			C386.5,301.1,386.6,299.4,386.4,297.7z"/>
		<path d="M477.1,322.4c-0.9,4.1-1.3,8.3-1,12.4c0.1-2.4,0.4-4.8,1-7.2c1.6-6.4,5.2-12.4,5.5-19c0-1.2,0-2.4-0.2-3.5
			C481.6,311,478.5,316.5,477.1,322.4z"/>
		<path d="M392.6,322.9c-4.2,3.5-9.3,5.6-14.8,6c-1.1,1.8-2.3,3.5-3.5,5.2c6.6,0.4,13.2-1.8,18.3-6c3.7,12.2,5.6,24.8,5.8,37.5
			C398.7,351.1,396.7,336.7,392.6,322.9z"/>
		<path d="M477.3,378.2c-1.1,5.6-3.5,11.8-8.9,13.7c-1.3,0.3-2.6,0.8-3.9,1.4c-2.5,1.7-2.3,5.3-2.8,8.3c-0.9,4.9-4.3,9.1-8.4,12
			s-8.8,4.7-13.5,6.5l-18.7,7c-0.1,1.9-0.4,3.7-0.9,5.5l19.6-7.4c4.7-1.8,9.5-3.5,13.5-6.5s7.5-7.1,8.4-12c0.5-3,0.4-6.6,2.8-8.3
			c1.2-0.6,2.5-1.1,3.9-1.4c5.4-1.9,7.8-8.1,8.9-13.7c1.1-5.8,1.6-11.8,1.4-17.7C478.6,369.9,478.1,374.1,477.3,378.2z"/>
		<path d="M409.2,394.5c-0.6-0.7-1.3-1.2-2.1-1.6c-0.9-0.3-1.8-0.4-2.7-0.3h-8.2c-0.3,1.7-0.7,3.5-1,5.2h9.2
			c0.9-0.1,1.8,0.1,2.7,0.3c0.8,0.4,1.5,0.9,2.1,1.6c6.3,6.3,11.1,14.7,11.9,23.4C422.1,412.8,416.7,402.1,409.2,394.5z"/>
	</g>
	<path class="st7" d="M363.5,428.6c0,0,7.4-3.1,9.1,0S363.5,428.6,363.5,428.6z"/>
	<path class="st7" d="M366.1,434c0,0,7.4-3.1,9.1,0S366.1,434,366.1,434z"/>
</g>
<g>
	<path class="st0" d="M827.2,30.2c0,0-38-2.3-33.6,24.4c0,0-0.9,4.7,3.4,6.8c0,0,0.1-2,3.9-1.3c1.4,0.2,2.8,0.3,4.1,0.2
		c1.9-0.1,3.6-0.9,5-2.1l0,0c0,0,10.7-4.4,14.8-21.9c0,0,3.1-3.8,3-4.8l-6.4,2.8c0,0,2.2,4.6,0.5,8.5c0,0-0.2-8.3-1.4-8.1
		c-0.3,0-3.3,1.6-3.3,1.6s3.8,8.1,0.9,13.9c0,0,1.1-9.9-2.1-13.3l-4.5,2.7c0,0,4.4,8.3,1.4,15.1c0,0,0.8-10.4-2.4-14.5l-4.1,3.2
		c0,0,4.1,8.2,1.6,13.8c0,0-0.3-12.2-2.5-13.1c0,0-3.6,3.2-4.1,4.5c0,0,2.8,6,1.1,9.1c0,0-1.1-8.1-2-8.1c0,0-3.6,5.4-3.9,9
		c0.2-3.4,1.2-6.7,3.1-9.6c-2.1,0.4-4,1.4-5.5,2.8c0,0,0.5-3.8,6.3-4.1c0,0,3-4.1,3.7-4.3c0,0-5.8-0.5-9.3,1.1c0,0,3.1-3.6,10.3-2
		l4-3.3c0,0-7.6-1-10.8,0.1c0,0,3.7-3.2,11.9-0.9l4.4-2.6c0,0-6.5-1.4-10.3-0.9c0,0,4.1-2.2,11.6,0.2l3.2-1.4c0,0-4.7-0.9-6.1-1.1
		s-1.5-0.5-1.5-0.5c3-0.5,6.1-0.2,8.9,1C820.6,33.1,827.3,30.6,827.2,30.2z"/>
	<path class="st0" d="M773,8.6c0,0-32,20.7-12.6,39.5c0,0,2.1,4.3,6.8,3.5c0,0-1.1-1.6,2.4-3.4c1.2-0.6,2.4-1.4,3.5-2.3
		c1.4-1.2,2.4-2.8,2.8-4.7l0,0c0,0,6-9.9-1-26.4c0,0,0.2-4.9-0.5-5.6l-3.5,6c0,0,4.5,2.4,5.4,6.5c0,0-5.1-6.6-6-5.7
		c-0.2,0.2-1.7,3.3-1.7,3.3s7.8,4.3,9,10.7c0,0-5-8.7-9.6-9.5l-2.1,4.8c0,0,8.5,4.1,10.1,11.4c0,0-5.6-8.9-10.5-10.3l-1.4,5
		c0,0,8.2,4.2,9.5,10.2c0,0-7.5-9.6-9.8-9c0,0-1,4.7-0.7,6c0,0,5.8,3.1,6.3,6.7c0,0-5.7-5.9-6.4-5.4c0,0,0.3,6.4,2.2,9.6
		c-1.9-2.8-3-6.1-3.2-9.5c-1.4,1.5-2.4,3.5-2.7,5.5c0,0-1.8-3.4,2.7-7.1c0,0,0-5,0.5-5.7c0,0-4.9,3-6.8,6.3c0,0,0.4-4.7,7.2-7.7
		l1.3-5c0,0-6.7,3.7-8.6,6.5c0,0,1.1-4.7,9.1-7.7l2-4.7c0,0-6,2.7-8.8,5.4c0,0,2-4.2,9.5-6.7l1.7-3c0,0-4.4,2.1-5.6,2.8
		s-1.5,0.4-1.5,0.4c2.1-2.2,4.8-3.7,7.8-4.5C769.4,14.8,773.3,8.9,773,8.6z"/>
	<path class="st0" d="M724.3,32.7c0,0-19.1,33,6.7,40.9c0,0,3.8,2.9,7.6,0c0,0-1.7-0.9,0.6-4.1c0.8-1.1,1.5-2.3,2-3.6
		c0.7-1.7,0.9-3.6,0.4-5.4l0,0c0,0,0.8-11.5-12.9-23.1c0,0-2-4.5-3-4.8l-0.4,7c0,0,5.1,0.1,7.8,3.4c0,0-7.5-3.5-7.9-2.4
		c-0.1,0.2-0.1,3.7-0.1,3.7s9,0.3,13,5.5c0,0-8.4-5.4-12.9-4.1l0.3,5.2c0,0,9.4-0.2,14.2,5.5c0,0-9-5.4-14-4.4l1,5.1
		c0,0,9.2,0,13.1,4.8c0,0-11-5.2-12.8-3.6c0,0,1.2,4.6,2.1,5.7c0,0,6.6,0.1,8.6,3.1c0,0-7.7-2.7-8.1-1.9c0,0,3.2,5.6,6.3,7.6
		c-3-1.7-5.4-4.1-7.2-7c-0.6,2-0.5,4.2,0.1,6.2c0,0-3.1-2.2-0.8-7.5c0,0-2.3-4.5-2.2-5.3c0,0-3,4.9-3.2,8.7c0,0-1.8-4.3,2.9-10.1
		l-1.1-5.1c0,0-4.3,6.3-4.8,9.7c0,0-1.2-4.7,4.6-11l-0.4-5.1c0,0-4.1,5.2-5.4,8.8c0,0-0.1-4.6,5.4-10.3l0.2-3.5c0,0-3,3.8-3.7,5
		s-1.1,1-1.1,1c0.9-2.9,2.6-5.5,4.9-7.5C724,39.9,724.7,32.8,724.3,32.7z"/>
</g>
<path class="st2" d="M888.5,408.9c-7.9,0-14.3,6.4-14.3,14.3s6.4,14.3,14.3,14.3s14.3-6.4,14.3-14.3l0,0
	C902.8,415.3,896.4,408.9,888.5,408.9z M846.7,296.6v14.3H861l25.8,52.2L876,380.6c-1.2,2.1-1.8,4.4-1.8,6.8
	c0,9.6,6.5,14.3,15.4,14.3h83.7V388h-81.9c-0.9,0.1-1.7-0.7-1.8-1.6c0-0.1,0-0.1,0-0.2c0.2-0.6,0.4-1.2,0.8-1.8l7.2-11.3h53.3
	c5.3,0,10.1-2.9,12.5-7.5l25.8-44.3c0.5-1.1,0.7-2.3,0.7-3.6c0-3.8-3.2-6.8-7-6.8c-0.1,0-0.1,0-0.2,0H876.8l-6.8-14.3L846.7,296.6z
	 M959,408.9c-7.9,0-14.3,6.4-14.3,14.3s6.4,14.3,14.3,14.3c7.9,0,14.3-6.4,14.3-14.3C973.3,415.3,966.9,408.9,959,408.9z"/>
<polygon class="st5" points="940.7,336.2 928.7,336.2 928.7,324.2 919.7,324.2 919.7,336.2 907.7,336.2 907.7,345.2 919.7,345.2 
	919.7,357.2 928.7,357.2 928.7,345.2 940.7,345.2 "/>
<g>
	<g id="Layer_1-2">
		<text transform="matrix(1 0 0 1 209.9312 113.63)" class="st5 st19 st20">Wintex</text>
	</g>
</g>
</svg>
