<?xml version="1.0" encoding="utf-8"?>
<!-- Generator: Adobe Illustrator 23.0.0, SVG Export Plug-In . SVG Version: 6.00 Build 0)  -->
<svg version="1.1" id="Layer_1" xmlns="http://www.w3.org/2000/svg" xmlns:xlink="http://www.w3.org/1999/xlink" x="0px" y="0px"
	 viewBox="0 0 1009.5 789.9" style="enable-background:new 0 0 1009.5 789.9;" xml:space="preserve">
<style type="text/css">
	.st0{opacity:0.1;fill:#1A1A1A;enable-background:new    ;}
	.st1{fill:url(#SVGID_1_);}
	.st2{fill:#EFB7B9;}
	.st3{opacity:0.1;enable-background:new    ;}
	.st4{fill:#DCE6F2;}
	.st5{fill:#965D7B;}
	.st6{opacity:0.1;}
	.st7{fill:#444053;}
	.st8{fill:#A36468;}
	.st9{fill:#1A1A1A;}
	.st10{opacity:5.000000e-02;enable-background:new    ;}
	.st11{opacity:0.1;fill:#FFFFFF;enable-background:new    ;}
	.st12{fill:#A8A8A8;}
	.st13{opacity:0.2;enable-background:new    ;}
	.st14{fill:#FFFFFF;}
	.st15{font-family:'Papyrus-Regular';}
	.st16{font-size:19.222px;}
</style>
<title>empty</title>
<ellipse class="st0" cx="354.1" cy="741.3" rx="176.1" ry="33.4"/>
<path class="st0" d="M586.6,111.4c-64.7-2.2-126.4-23.1-185.2-46S284.2,17.2,221,5.1C180.4-2.7,133.9-3.8,101.2,18
	C69.7,39,59.5,75.1,54,108.7c-4.1,25.3-6.5,51.9,4.7,75.5c7.8,16.4,21.7,30.2,31.4,46c33.5,54.7,9.8,122.2-26.4,175.6
	c-17,25.1-36.8,49-49.9,75.6C0.6,508.1-5.4,538.7,6.1,566c11.4,27,38.5,47.2,67.9,61.5c59.7,29,130,37.2,198.6,41.9
	c151.8,10.4,304.5,5.9,456.7,1.4c56.3-1.7,112.9-3.3,168.3-12.1c30.8-4.8,62.6-12.5,84.9-31.1c28.4-23.5,35.4-63.4,16.4-92.9
	c-31.9-49.5-120-61.8-142.3-114.9c-12.3-29.2,0.3-61.8,18.2-88.9c38.2-58.2,102.3-109.2,105.7-175.7c2.3-45.7-28.5-91.4-76.1-113
	c-49.9-22.7-119.2-19.8-156,17.7C710.4,98.5,643.7,113.4,586.6,111.4z"/>
<linearGradient id="SVGID_1_" gradientUnits="userSpaceOnUse" x1="318.0893" y1="301.6294" x2="630.35" y2="301.6294" gradientTransform="matrix(1 0 0 -1 -95.23 734.97)">
	<stop  offset="0" style="stop-color:#808080;stop-opacity:0.25"/>
	<stop  offset="0.54" style="stop-color:#808080;stop-opacity:0.12"/>
	<stop  offset="1" style="stop-color:#808080;stop-opacity:0.1"/>
</linearGradient>
<path class="st1" d="M535.1,361.7l-30.6-20.6l0,0l15.5-23l-80.9-6.5L410,334.1l-36.4-20.4l-30.4,3.6l-0.4-8
	c-0.4-8.3-1.2-16.7-2.5-24.9c0.1-2.5,0.2-5.4,0.2-8.5c0-13.1-1.8-30.6-9.6-42.2l1.8-16.2l-14.6-17.3c2.3-4.7,5-9.2,8-13.5
	c0.5-0.7,1-1.4,1.5-2.1c19-1.4,33.9-16.9,33.9-36c0-0.9,0-1.8-0.1-2.6c0-0.4-0.1-0.7-0.1-1.1c1.9,1,3.7,2,5.6,3
	c0.4,0.5,0.8,1,1.2,1.6l0,0l0.1,0.1l0.6,0.7l0.2,0.2c0.2,0.2,0.4,0.5,0.6,0.7l0.1,0.2c0.5,0.6,1.1,1.2,1.7,1.8
	c0.1,0.1,0.1,0.1,0.2,0.2l0.8,0.7l0.2,0.2c0.6,0.6,1.3,1.1,2,1.6l0.2,0.2l0.9,0.6l0.3,0.2c0.3,0.2,0.7,0.4,1,0.6l0.1,0.1
	c0.4,0.2,0.8,0.4,1.2,0.6l0.2,0.1c0.3,0.1,0.7,0.3,1,0.4l0.3,0.1c0.4,0.1,0.7,0.2,1,0.3l0.2,0.1c0.4,0.1,0.9,0.2,1.3,0.3h0
	c0.4,0.1,0.9,0.1,1.3,0.1h0.3c0.4,0,0.8,0,1.1,0h0.3c0.5,0,1-0.1,1.4-0.2c2.2-0.3,4.4-1.1,6.3-2.3c0.5-0.3,0.9-0.7,1.3-1.2
	c2-2.6-0.2-5.5-0.2-5.5l0,0c-0.8-1.9-5.8-3.2-5.8-3.2s-16-6.7-16-12s-4-32.9-45.3-39.2c0,0-26.9-1.5-34.4,12.9l-0.2,1.7
	c-2.2,1.4-4.1,4.2-6.3,5c-0.9,0.2-1.9,0.5-2.7,1v-0.2l0,0c-0.3,0.2-0.5,0.5-0.6,0.8c-0.5,0.9-0.8,2-0.8,3c-0.2,1.3-0.7,2.5-1.3,3.6
	c-0.2,0.3-0.4,0.6-0.6,0.9l0,0l-0.2,0.3c1.2,0.1,2.3-0.1,3.4-0.6c-0.2,1.4-0.5,2.7-1,4c1.3,0,2.5-0.7,3.1-1.8v-0.1l0.1-0.2
	c0.3-0.5,0.5-0.9,0.6-1.4l-0.1,0.1c0.2-0.6,0.4-1.3,0.6-1.9c0.1-0.4,0.3-0.7,0.5-1c0.5-0.5,1.3-0.8,2.1-0.7l-0.4,8.7h0.2
	c-0.2,0.6-0.5,1.2-0.9,1.8c-1.4,2.3-4,3.9-5,6.4c-0.4,1.2-0.6,2.5-0.5,3.8c0,0.8,0.1,1.5,0.1,2.3v-0.1c0.1,2,0.2,3.9-0.9,5.5
	c-0.7,1.1-1.9,1.9-2.3,3.2c-0.1,0.3-0.2,0.7-0.1,1.1c0.1,1.1,0.3,2.2,0.7,3.2c0,0,0,0,0-0.1c0.2,0.8,0.3,1.6,0.2,2.4
	c-0.5,2-2.9,3.7-2.8,5.6c0,0.3,0,0.5,0.1,0.7c0.5,0.9,1.3,1.6,2.3,2c1.5,0.9,3.3,1.3,5.1,1.1c0.7-0.1,1.3-0.3,1.9-0.6
	c-0.7,1.6-1.4,3.2-2.1,4.7c-0.1,0.2-0.2,0.5-0.4,0.7c0,0-6.2-4.1-9.7,4.3c-1,1.7-1.8,3.7-2.2,5.6c-0.2,0.8-0.4,1.6-0.7,2.3
	c-1.6,2.6-3.9,4.7-6.7,6c-7.2,3.3-36.1,39.3-36.6,48.7c-0.3,3.6-0.9,7.3-1.8,10.8c-2.3,8.3-2.9,17-1.7,25.5c0.4,2.8,0.9,5.5,1.8,8.1
	c3.1,9.3,5.1,26.7,5.1,26.7l3.3,30.2c-0.1,4.2,0.1,8.3,0.5,12.5c-3.4,3.9-17,20-11.8,24.4c4,3.5,11,2.9,14.9,2.2
	c-3.3,8.2-8.5,22.4-9.2,32.2c-1,14.5,1.7,33.6,6,41s18.6,26.2,18.6,26.2s-0.7,25.9,4.4,35.3c5.1,9.4,7.2,28.9,7.2,28.9
	s4.8,16.5,2.4,22.5c-2.4,6.1,4.4,11.1-2.7,15.1s-16.3,94.9-16.3,94.9s-3.7,59.5,0,62.6c0.2,0.1,0.4,0.3,0.6,0.4v20
	c0,0-2.6,4.2,7.9,5c7.1,0.6,27.3,1.9,39.3,2.6l9.3,0.6c0,0,22,4.4,31.7,0s27-4.3,24.4-15.8c-0.3-1.6-0.8-3.1-1.4-4.6
	c-2.8-7.2-7.6-8-16.4-10c-0.5-0.1-1-0.2-1.5-0.3c-9.3-1.6-12.3,2.7-17.5-2.9c-4.5-4.8-18.9-10.3-23.8-12c0.1-0.4,0.3-0.7,0.4-1.1
	c-1.4-0.2-2.7-0.9-3.7-1.8l13.3,0.8l7.9,0.5c0,0,18.7,3.7,27,0s22.9-3.6,20.7-13.5c-0.3-1.3-0.7-2.7-1.1-3.9
	c-2.4-6.1-6.5-6.8-13.9-8.5c-0.4-0.1-0.8-0.2-1.2-0.3c-7.9-1.4-10.5,2.3-14.9-2.5c-3.8-4.1-15.7-8.6-20-10.2c0-2.2-3-5.4-4.9-8.5
	c-2.2-3.7,1.9-16.7,1.9-16.7l2.3-53.7c0.9-0.4,1.8-0.7,2.8-0.8c0,0,10.6-10.1,8.2-20.9c-0.5-3.3-0.7-6.5-0.8-9.8
	c3.5-3.2,8.3-8,9.6-10.9c2.2-4.8,0-28,0-28v-88.8l17.7,1.8l16.1,1.6l4.9,0.5l16.1,1.6l36.9,3.7l33.3-6.3l14.4-2.7l29.6-5.6v-72.4
	L535.1,361.7z M291.5,121.8l-2.1-0.2C290.1,121.6,290.8,121.8,291.5,121.8z"/>
<path class="st2" d="M463.3,408.8c-10,14.3-46,6.7-46,6.7l-27.9-26.1l-3.8-3.5l6.3-13.4c0,0,2,0.5,5.4,1.5
	C415.5,379.3,471.8,396.7,463.3,408.8z"/>
<path class="st3" d="M397.5,374c-1.2,4.3-4.6,10.7-8,15.4l-3.8-3.5l6.3-13.4C392.1,372.5,394.1,373.1,397.5,374z"/>
<path class="st4" d="M301.9,223.4c0,0-25.7,11.4-24.4,39.4c0.9,18,2.9,36,5.9,53.8c0,0-5.3,42.1,16.6,52.9s42.1,19.8,42.1,19.8
	s34.2,3.7,38.5,5.2s17.5-21.7,15.1-25.3s-33.8-11.2-37.8-17.3s-13.3-9.8-13.3-9.8s-9.5-5.8-10.2-11s1.9-9.1,2.5-11.4
	s2.3-24.4,2.3-24.4S349.9,216.6,301.9,223.4z"/>
<path class="st3" d="M318.9,315.4c0,0-35.2,5.9-31.8,18.2C287,333.6,299.8,320.3,318.9,315.4z"/>
<path class="st3" d="M319.1,320.4c0,0-19.4,15.8-15.6,16.6S319.1,320.4,319.1,320.4z"/>
<path class="st3" d="M328.4,325.9c0,0-5.2,10.6-2,9.9S328.4,325.9,328.4,325.9z"/>
<path class="st3" d="M398.8,375.2l-2.1-0.6c0.6-2,0.8-3.6,0.3-4.4c-2.5-3.6-33.8-11.2-37.8-17.3s-13.3-9.8-13.3-9.8
	s-9.5-5.8-10.2-11s1.9-9.1,2.5-11.4s2.3-24.4,2.3-24.4s10.8-78.7-37.2-71.9c0,0-25.7,11.4-24.4,39.4c0.9,18,2.9,36,5.9,53.8
	c0,0-5.3,42.1,16.6,52.9s42.1,19.8,42.1,19.8s34.2,3.7,38.5,5.2c1.6,0.6,4.5-2.4,7.4-6.5l1.6,1.5l27.9,26.1c0,0,36,7.6,46-6.7
	C473.1,397.8,416.8,380.4,398.8,375.2z"/>
<path class="st5" d="M287.1,118.4c-1,0.2-1.9,0.6-2.8,1.1c-1,0.8-1,2.3-1.3,3.5c-0.3,1.7-1,3.4-2,4.8c1.1,0.1,2.3-0.1,3.3-0.6
	c-0.2,1.4-0.5,2.7-1,4c1.3,0,2.4-0.7,3-1.8c0.5-1.1,0.9-2.3,1.3-3.5c0.1-0.4,0.3-0.7,0.5-1c0.9-1.1,2.6-0.6,4-0.5
	c2.4,0.2,4.7-0.9,6.1-2.9c1.5-2.3,1.6-8.1-2-8.8C292.5,112.1,290.2,117.3,287.1,118.4z"/>
<g class="st6">
	<path d="M284.3,120.7c0.1-0.5,0.1-1,0.3-1.5l0,0c-1,0.8-1,2.2-1.3,3.5c-0.1,0.7-0.3,1.4-0.6,2.1C283.5,123.6,284,122.2,284.3,120.7
		z"/>
	<path d="M284.6,129c0.5-1.3,0.8-2.6,1-4c-1,0.4-2.1,0.6-3.2,0.6c-0.3,0.7-0.7,1.4-1.1,2c1.1,0.1,2.3-0.1,3.3-0.5
		c-0.2,1.4-0.5,2.7-1,4c1.3,0,2.4-0.7,3-1.8c0.2-0.5,0.5-0.9,0.6-1.4C286.6,128.6,285.6,129,284.6,129z"/>
	<path d="M293.4,122.2c-1.4-0.1-3.1-0.6-4.1,0.5c-0.2,0.3-0.4,0.6-0.5,1c-0.1,0.3-0.2,0.5-0.2,0.8c1-0.8,2.5-0.4,3.8-0.2
		c2.4,0.2,4.7-0.9,6.1-2.9c0.3-0.5,0.5-1,0.7-1.6C297.7,121.4,295.6,122.4,293.4,122.2z"/>
</g>
<polygon class="st4" points="317.2,201 332.5,219.3 330.5,237.9 312.1,209 "/>
<polygon class="st3" points="332.5,219.3 330.6,236.8 330.5,237.9 313.9,211.8 312.1,209 312.6,208.2 317.2,201 318.3,202.2 "/>
<path class="st2" d="M340.4,176.2c-5.2,1.5-10.1,6.6-14.4,12.7c-2.9,4.3-5.5,8.7-7.8,13.3c-1.4,2.8-2.6,5.5-3.7,7.9l-0.7,1.7
	c-1.7,4.1-2.7,6.9-2.7,6.9S271.6,189,277.9,187c2.1-0.7,4.9-5.2,7.6-10.8l0.3-0.7c1.7-3.6,3.4-7.7,4.9-11.5
	c3.1-7.9,5.4-14.7,5.4-14.7S356.1,171.7,340.4,176.2z"/>
<path class="st7" d="M364,147.6c0,0,9.1,16.5,21.4,14.3s7.2-8.9,7.2-8.9L364,147.6z"/>
<path class="st8" d="M346.4,718.7c-8.1,3.7-26.4,0-26.4,0l-7.7-0.5c-10-0.6-26.7-1.7-32.7-2.2c-8.6-0.7-6.5-4.3-6.5-4.3v-21.4
	l41.9-10.6c0,0,16.6,5.7,21.1,10.6c4.3,4.7,6.8,1.1,14.5,2.4c0.4,0.1,0.8,0.2,1.2,0.3c7.3,1.7,11.3,2.3,13.6,8.4
	c0.5,1.3,0.8,2.6,1.1,3.9C368.8,715.1,354.4,715,346.4,718.7z"/>
<path class="st3" d="M365.5,701.5c-1.5,0.9-3.1,1.7-4.7,2.4c-5.5,2.5-10.7,5.6-16.3,7.9s-11.5,4.1-17.6,3.6c-3.1-0.2-6.4-1-9.4-0.1
	c-1.9,0.7-3.6,1.7-5.2,2.9c-10-0.6-26.7-1.7-32.7-2.2c-8.6-0.7-6.5-4.3-6.5-4.3v-2.5c0.3,0,0.7-0.1,1.1-0.1c2.1,0,4.1,0.3,6.1,0.9
	c4.3,1.2,8.7,2.3,13,3.5c0.7-2.7,2.5-5,5-6.4c2.5-1.3,5.3-2,8.1-1.8c6.7,0.1,13.1,3.3,19.8,3.6c1.9,0.2,3.8-0.1,5.5-0.9
	c0.9-0.5,1.7-1.1,2.6-1.6c1.4-0.7,3-1.2,4.5-1.5c4.4-1.1,8.7-2.5,13-4.2c1.2-0.5,2.6-1.3,2.4-2.6c-0.2-1.7-2.9-1.9-3.6-3.5
	c-0.3-0.6-0.2-1.2,0.1-1.8c0.4,0.1,0.8,0.2,1.2,0.3C359.2,694.8,363.1,695.4,365.5,701.5z"/>
<path class="st8" d="M337.8,765.5c-9.5,4.3-31,0-31,0l-9-0.5c-11.7-0.8-31.5-2-38.4-2.6c-10.2-0.8-7.7-5-7.7-5v-25.2l49.3-12.5
	c0,0,19.5,6.7,24.8,12.5c5.1,5.5,8,1.3,17.1,2.9c0.5,0.1,0.9,0.2,1.4,0.3c8.6,2,13.3,2.8,16,9.9c0.6,1.5,1,3,1.3,4.6
	C364.1,761.3,347.3,761.2,337.8,765.5z"/>
<path class="st3" d="M360.3,745.2c-1.8,1.1-3.6,2.1-5.5,2.8c-6.5,3-12.6,6.6-19.2,9.3s-13.6,4.8-20.7,4.3c-3.7-0.3-7.5-1.2-11-0.1
	c-2.2,0.9-4.3,2-6.1,3.4c-11.7-0.8-31.5-2-38.4-2.6c-10.2-0.8-7.7-5-7.7-5v-2.9c0.4-0.1,0.8-0.1,1.3-0.1c2.4,0,4.9,0.3,7.2,1.1
	l15.3,4.1c0.9-3.2,3-5.9,5.9-7.5c2.9-1.6,6.2-2.3,9.5-2.2c7.9,0.1,15.4,3.9,23.3,4.2c2.2,0.2,4.4-0.2,6.4-1.1c1.1-0.5,2-1.3,3.1-1.9
	c1.7-0.8,3.5-1.4,5.3-1.8c5.2-1.3,10.2-2.9,15.2-4.9c1.4-0.6,3.1-1.6,2.9-3.1c-0.3-2-3.4-2.2-4.2-4.1c-0.3-0.7-0.2-1.4,0.1-2.1
	c0.5,0.1,0.9,0.2,1.4,0.3C352.9,737.3,357.6,738.1,360.3,745.2z"/>
<path class="st7" d="M316.3,592.5l-2.7,62.8c0,0-4,12.8-1.8,16.5c2.2,3.7,5.8,7.3,4.5,9.5C315,683.5,299,707,293.8,698
	s-10.3-48-10.3-48l4.8-48.2L316.3,592.5z"/>
<path class="st7" d="M327.9,436l7.4,9.9v86.3c0,0,2.2,23,0,27.8s-13.2,14.3-13.2,14.3l-9.3-47.5l2-50.3L327.9,436z"/>
<path class="st3" d="M316.3,592.5l-2.7,62.8c0,0-4,12.8-1.8,16.5c2.2,3.7,5.8,7.3,4.5,9.5C315,683.5,299,707,293.8,698
	s-10.3-48-10.3-48l4.8-48.2L316.3,592.5z"/>
<path class="st3" d="M327.9,436l7.4,9.9v86.3c0,0,2.2,23,0,27.8s-13.2,14.3-13.2,14.3l-9.3-47.5l2-50.3L327.9,436z"/>
<path class="st7" d="M335.3,399.2v46.7l-8.3,36.3c0,0-2.7,87.7-0.3,98.3s-8,20.7-8,20.7s-6,0.7-6,5.3s-10,18-10,18l0.3,26
	c0,0,4.3,48.7-2.3,58c-6.7,9.3,2.3,10.7,2.3,10.7c-8.3,27.3-48.3,21-51.9,18s0-62,0-62s8.9-90,15.9-94s0.3-9,2.7-15
	s-2.3-22.3-2.3-22.3s-2-19.3-7-28.7c-5-9.3-4.3-35-4.3-35s-14-18.7-18.2-26s-6.8-26.3-5.8-40.7c0.7-9.7,5.8-23.8,9-31.9
	c1.5-3.9,2.7-6.4,2.7-6.4l1,0.3l54.6,14.3L335.3,399.2z"/>
<path class="st3" d="M340.4,176.2c-5.2,1.5-10.1,6.6-14.4,12.7h-1.1c-12.8,0-24.6-6.8-31-17.9c-1.3-2.3-2.4-4.7-3.1-7.1
	c3.1-7.9,5.4-14.7,5.4-14.7S356.1,171.7,340.4,176.2z"/>
<path class="st2" d="M360.6,151.2c0,19.7-15.9,35.8-35.7,35.8c-19.7,0-35.8-15.9-35.8-35.7c0-6.2,1.6-12.3,4.6-17.6
	c1.1-1.9,2.3-3.8,3.8-5.5c2.4-2.8,5.1-5.2,8.2-7.2c16.7-10.6,38.8-5.7,49.3,11c3.2,5,5.1,10.7,5.5,16.6
	C360.6,149.4,360.6,150.3,360.6,151.2z"/>
<path class="st3" d="M330.6,236.8l-0.1,1.1l-16.6-26c-1.7,4.1-2.7,6.9-2.7,6.9S271.6,189,277.9,187c2.1-0.7,4.9-5.2,7.6-10.8
	l0.3-0.7c2.9,8.6,19.8,25.9,26.8,32.8c0.8,0.8,1.5,1.5,2,1.9l1.1,1l0.6,0.6C318.8,214.4,329.5,226,330.6,236.8z"/>
<path class="st4" d="M343,325l-1.8,58.6l-0.3,10.4c0,0-21.6-2-41.7-4.2c-16.2-1.8-31.5-3.7-33.8-4.8c-3-1.4-9.4-2.5-14.5-3.2
	c-3.9-0.5-7-0.8-7-0.8s-1.1,0.3-2.9,0.7c-3.9,0.7-10.6,1.3-14.6-2.2c-5-4.4,8.2-20.3,11.5-24.2l0.7-0.8l-1.3-11.5l-3.3-30
	c0,0-2-17.3-5-26.5c-0.8-2.6-1.4-5.3-1.7-8c-1.1-8.4-0.5-17,1.7-25.3c1-3.5,1.6-7.1,1.8-10.7c0.5-9.3,28.8-45,35.8-48.3
	c3.1-1.5,5.7-4,7.2-7.1c0.5-1,0.9-2,1.1-3.1c3-13,10.6-7.8,10.6-7.8c1.8,10.2,30.2,37.1,30.2,37.1l0.6,0.6
	c2.8,2.9,15.3,16.4,14.4,27.9c-0.2,4.3,0.5,8.6,1.9,12.6c5.8,18.1,9.1,37,9.9,56L343,325z"/>
<path class="st3" d="M302.9,255.4c0,0-7,17-12.3,19.8S305.4,281,302.9,255.4z"/>
<path class="st3" d="M308.1,287.2c0,0-16,2-16,5S308.1,287.2,308.1,287.2z"/>
<path class="st3" d="M324.9,306.7c0,0-23.3,49.5-29.8,51S324.9,306.7,324.9,306.7z"/>
<path class="st3" d="M315.2,215.7l-19.2,8.4L272.8,189c0.5-1,0.9-2,1.1-3.1c3-13,10.6-7.8,10.6-7.8c1.8,10.2,30.2,37.1,30.2,37.1
	L315.2,215.7z"/>
<path class="st4" d="M316.2,213.7l-19.2,8.4L273.8,187c0.5-1,0.9-2,1.1-3.1c3-13,10.6-7.8,10.6-7.8c1.8,10.2,30.2,37.1,30.2,37.1
	L316.2,213.7z"/>
<path class="st3" d="M340.9,394c0,0-21.6-2-41.7-4.2l36.1,9.5v11c-1.6,1.4-3,2.2-3.8,1.8c-4.2-1.8-38.1-7.3-38.1-7.3s-19.7-10-41-22
	c-0.5-0.3-1-0.6-1.5-0.9c-2.5-1.7-4.6-3.8-6.3-6.3c-3.9-5.7-5.9-13-6.7-20.2c-0.5-4.1-0.6-8.2-0.5-12.4c0.1-4.7,0.5-9.4,1.3-14
	c-2.1-17.9-3.1-36-3-54c0.3-28,26.5-38,26.5-38c48.3-4.3,33.3,73.8,33.3,73.8s-2.8,22-3.5,24.3s-3.5,6-3.1,11.3s9.6,11.5,9.6,11.5
	s9,4.2,12.7,10.5c2.7,4.6,20.2,10.9,30.1,15.3L340.9,394z"/>
<path class="st3" d="M357.1,129c0,1.6-0.3,3.3-1,4.8c-0.5,1.2-1.1,2.4-1.8,3.6c-1.1,2.1-2.5,4-4.4,5.4c-2.3,1.6-5.2,2.1-8,2.8
	s-5.6,1.7-7.2,4.1c-0.9,1.5-1.4,3.2-1.7,4.9c-0.3,1.7-1,3.3-2,4.7c-1.1,1.4-3,1.9-4.7,1.1c-0.8-0.6-1.5-1.4-1.8-2.3
	c-1.1-2.6-1.4-5.4-1.9-8.2s-1.1-5.6-2.8-7.9s-4.7-3.7-7.4-2.8c-1.8,0.7-3.3,2.1-4,3.9c-0.7,1.8-1.2,3.6-1.5,5.5
	c-1.2,6.8-2.7,13.5-4.4,20.2c-0.1,0.3-0.2,0.5-0.3,0.8c-0.3,0.3-0.6,0.4-1,0.4c-2.2,0.3-4.4-1.3-6.6-1.1c-0.2,0-0.5,0.1-0.7,0.1
	c-7.5-13-6-29.3,3.6-40.8l0.2-0.1c1.5-0.5,2.9-1.4,4-2.5c1.4-1.4,2.8-3,4-4.6l0.8-1c2.3-2.8,4.9-5.3,7.8-7.4
	c0.8-0.6,1.7-1.1,2.7-1.4c0.8-0.2,1.7-0.2,2.5-0.1c3.5,0.4,6.9,0.5,10.4,0.4c2.4-0.4,4.9-0.6,7.3-0.7c6.3,0.2,11.7,4.6,15.7,9.6
	C355,122.8,356.9,125.7,357.1,129z"/>
<path class="st5" d="M289.1,134.6c-1.4,2.3-3.9,3.8-4.8,6.3c-1.4,3.6,1,8.1-1.2,11.4c-0.7,1.1-1.9,1.9-2.3,3.1
	c-0.7,2.1,1.2,4.4,0.7,6.5s-3.3,4-2.6,6.1c0.4,0.9,1.2,1.6,2.2,2c1.5,0.9,3.3,1.3,5,1.1c2.7-0.4,4.8-3.1,7.5-3.3
	c2.3-0.2,4.4,1.4,6.6,1.1c0.4,0,0.7-0.2,1-0.4c0.2-0.2,0.3-0.5,0.3-0.8c1.7-6.7,3.1-13.4,4.4-20.2c0.3-1.9,0.8-3.8,1.5-5.5
	c0.8-1.8,2.2-3.2,4-3.9c2.7-0.9,5.7,0.6,7.4,2.8s2.4,5.1,2.8,7.9s0.8,5.6,1.9,8.2c0.3,1,1,1.8,1.8,2.3c1.5,0.9,3.5,0.2,4.7-1.1
	c1.1-1.4,1.7-3,2-4.8c0.3-1.7,0.8-3.4,1.7-4.9c1.6-2.4,4.5-3.4,7.2-4.1s5.7-1.1,8-2.8c1.8-1.5,3.3-3.3,4.4-5.4
	c1.5-2.6,2.9-5.4,2.7-8.4c-0.1-3.2-2-6.1-4.1-8.6c-4-4.9-9.4-9.4-15.7-9.5c-2.4,0.1-4.9,0.3-7.3,0.7c-3.5,0.2-7,0-10.4-0.4
	c-0.8-0.1-1.7-0.1-2.5,0.1c-1,0.3-1.9,0.8-2.6,1.4c-2.9,2.2-5.5,4.6-7.8,7.4c-1.5,2-3.1,3.8-4.8,5.6c-1.1,1.1-2.5,2-4,2.5
	c-1,0.3-2,0.1-3,0.4C290.9,128.5,290.5,132.3,289.1,134.6z"/>
<path class="st3" d="M385.4,161.8c-8,1.5-14.6-5-18.3-9.7c-1.1-1.4-2.2-2.9-3.1-4.5l27.5,5.2l1.1,0.2
	C392.6,152.9,397.6,159.6,385.4,161.8z"/>
<g class="st6">
	<path d="M281.5,159.1c0.1-1.3-0.1-2.6-0.6-3.8c0,0.1-0.1,0.2-0.1,0.3c-0.4,1.3,0.1,2.7,0.5,4.1
		C281.4,159.5,281.4,159.3,281.5,159.1z"/>
	<path d="M283.9,142.8c-0.1,1.4-0.1,2.8,0.1,4.1C284.1,145.5,284,144.1,283.9,142.8z"/>
	<path d="M353.3,133.4c-1.1,2.1-2.5,4-4.4,5.4c-2.3,1.6-5.2,2.1-8,2.8s-5.6,1.7-7.2,4.1c-0.9,1.5-1.4,3.2-1.7,4.9
		c-0.3,1.7-0.9,3.4-2,4.8c-1.1,1.3-3.2,2-4.7,1.1c-0.8-0.6-1.5-1.4-1.8-2.3c-1.1-2.6-1.4-5.4-1.9-8.2s-1.1-5.6-2.8-7.9
		s-4.7-3.7-7.4-2.8c-1.8,0.7-3.2,2.1-4,3.9c-0.7,1.8-1.2,3.6-1.5,5.5c-1.2,6.8-2.7,13.5-4.4,20.2c0,0.3-0.2,0.5-0.3,0.8
		c-0.3,0.3-0.6,0.4-1,0.4c-2.2,0.3-4.4-1.3-6.6-1.1c-2.8,0.2-4.8,2.9-7.5,3.3c-1.7,0.2-3.5-0.2-5-1.1c-0.7-0.3-1.3-0.7-1.8-1.3
		c-0.5,0.7-0.6,1.5-0.4,2.3c0.4,0.9,1.2,1.6,2.2,2c1.5,0.9,3.3,1.3,5,1.1c2.7-0.4,4.8-3.1,7.5-3.3c2.3-0.2,4.4,1.4,6.6,1.1
		c0.4,0,0.7-0.2,1-0.4c0.2-0.2,0.3-0.5,0.3-0.8c1.7-6.7,3.1-13.4,4.4-20.2c0.3-1.9,0.8-3.8,1.5-5.5c0.8-1.8,2.2-3.2,4-3.9
		c2.7-0.9,5.7,0.6,7.4,2.8s2.4,5.1,2.8,7.9s0.8,5.6,1.9,8.2c0.3,1,1,1.8,1.8,2.3c1.5,0.9,3.5,0.2,4.7-1.1c1.1-1.4,1.7-3,2-4.8
		c0.3-1.7,0.8-3.4,1.7-4.9c1.6-2.4,4.5-3.4,7.2-4.1s5.7-1.1,8-2.8c1.8-1.5,3.3-3.3,4.4-5.4c1.5-2.6,2.9-5.4,2.7-8.3
		c0-0.4-0.1-0.8-0.1-1.1C355.5,129.3,354.6,131.4,353.3,133.4z"/>
</g>
<path class="st3" d="M356.1,133.7c2.6,4.6,4.1,9.6,4.5,14.9c-8.9-5-17.3-10.5-21.5-12.4c-7.4-3.3-34.9-2.8-45.3-2.5
	c1.1-1.9,2.3-3.8,3.8-5.5c2.4-2.8,5.1-5.2,8.3-7.2c16.7-10.6,38.8-5.6,49.4,11C355.5,132.6,355.8,133.1,356.1,133.7L356.1,133.7z"/>
<path class="st3" d="M387.9,157.6c-4.8,1.5-12.7-1.4-20.8-5.5c-1.1-1.4-2.2-2.9-3.1-4.5l27.5,5.2C393.3,154,393.8,155.7,387.9,157.6
	z"/>
<path class="st7" d="M327,99.1c0,0-26.3-1.5-33.6,12.8l-1.2,12.6l-2-0.2l-0.4,8.6c0,0,40.1-1.8,49.3,2.4s37.5,24.9,48.9,21.4
	s-1-6.8-1-6.8s-15.6-6.6-15.6-11.8S367.4,105.3,327,99.1z"/>
<path class="st3" d="M276.4,567.3c0,0,16.8,16.3,24,15C300.4,582.3,279.9,580.5,276.4,567.3z"/>
<path class="st3" d="M272.9,574.8c0,0,1.5,8.4,5.5,7.5C282.4,581.5,272.9,574.8,272.9,574.8z"/>
<path class="st3" d="M299.1,714.5c0,0-23.8,18.5-19.8,19S299.1,714.5,299.1,714.5z"/>
<polygon class="st9" points="331,347.3 408,334.8 408,407.7 334.8,403.9 "/>
<polygon class="st10" points="331,347.3 408,334.8 408,407.7 334.8,403.9 "/>
<polygon class="st9" points="408,334.8 500.3,341.7 495.2,405.1 408,407.7 "/>
<polygon class="st3" points="408,334.8 500.3,341.7 495.2,405.1 408,407.7 "/>
<polygon class="st9" points="436.4,312.5 408,334.8 500.3,341.7 515.4,318.9 "/>
<polygon class="st9" points="303.1,323 372.4,314.6 408,334.8 331,347.3 "/>
<polygon class="st9" points="424.8,353.7 424.8,453.4 388.8,449.7 373.1,448.1 368.3,447.6 352.6,446 331,443.8 331,347.3 
	408,352.6 "/>
<polygon class="st9" points="500.3,341.7 500.3,438.9 471.4,444.5 457.3,447.2 424.8,453.4 424.8,353.7 "/>
<polygon class="st10" points="500.3,341.7 500.3,438.9 471.4,444.5 457.3,447.2 424.8,453.4 424.8,353.7 "/>
<polygon class="st9" points="303.1,368.3 331,347.3 424.8,353.7 411,377 "/>
<polygon class="st11" points="303.1,368.3 331,347.3 424.8,353.7 411,377 "/>
<polygon class="st9" points="500.3,341.7 424.8,353.7 449.4,375.7 530.2,362.2 "/>
<polygon class="st11" points="500.3,341.7 424.8,353.7 449.4,375.7 530.2,362.2 "/>
<polygon class="st11" points="471.4,444.5 457.3,447.2 457.3,426.4 470.5,423.1 "/>
<polygon class="st11" points="388.8,436 388.8,449.7 373.1,448.1 373.1,436 "/>
<polygon class="st11" points="368.3,440.3 368.3,447.6 352.6,446 352.6,440.3 "/>
<path class="st3" d="M415.4,428.7c-10.8,13.8-46.3,4.3-46.3,4.3l-26.4-27.5l-3.6-3.7l7-13c0,0,2,0.7,5.3,1.8
	C369.2,396.7,424.4,417.1,415.4,428.7z"/>
<path class="st2" d="M414.4,426.7c-10.8,13.8-46.3,4.3-46.3,4.3l-26.4-27.5l-3.6-3.7l7-13c0,0,2,0.7,5.3,1.8
	C368.2,394.7,423.4,415.1,414.4,426.7z"/>
<path class="st3" d="M350.5,388.5c-1.5,4.2-5.2,10.4-8.8,14.9l-3.6-3.7l7-13C345.1,386.7,347.2,387.3,350.5,388.5z"/>
<path class="st4" d="M263.1,233c0,0-26.3,10-26.5,38c-0.1,18,0.9,36.1,3,54c0,0-7.5,41.8,13.8,53.8s41,22,41,22s34,5.5,38.1,7.3
	s18.7-20.8,16.4-24.5s-33.2-13-36.8-19.3s-12.7-10.5-12.7-10.5s-9.2-6.3-9.6-11.5s2.4-9,3.1-11.3s3.6-24.3,3.6-24.3
	S311.4,228.7,263.1,233z"/>
<path class="st3" d="M275.1,325.7c0,0-35.5,4-32.8,16.5C242.4,342.2,255.9,329.6,275.1,325.7z"/>
<path class="st3" d="M275.1,330.7c0,0-20.1,14.8-16.5,15.8S275.1,330.7,275.1,330.7z"/>
<path class="st3" d="M284.1,336.7c0,0-5.8,10.3-2.5,9.8S284.1,336.7,284.1,336.7z"/>
<path class="st9" d="M653.8,112.4c0,0-38-2.3-33.6,24.4c0,0-0.9,4.7,3.4,6.9c0,0,0.1-2,3.9-1.3c1.4,0.2,2.8,0.3,4.1,0.2
	c1.9-0.1,3.6-0.9,5.1-2.1l0,0c0,0,10.7-4.4,14.8-21.9c0,0,3.1-3.8,3-4.8l-6.4,2.8c0,0,2.2,4.6,0.5,8.5c0,0-0.2-8.3-1.4-8.1
	c-0.3,0-3.3,1.6-3.3,1.6s3.8,8.1,0.9,13.9c0,0,1.1-9.9-2.1-13.4l-4.5,2.6c0,0,4.4,8.3,1.4,15.1c0,0,0.8-10.4-2.4-14.5l-4.1,3.2
	c0,0,4.2,8.2,1.6,13.9c0,0-0.3-12.1-2.5-13.1c0,0-3.6,3.2-4.1,4.5c0,0,2.8,6,1.1,9.1c0,0-1.1-8.1-2-8.1c0,0-3.6,5.4-3.9,9
	c0.2-3.4,1.2-6.7,3.1-9.5c-2.1,0.4-4,1.4-5.5,2.8c0,0,0.5-3.8,6.3-4.1c0,0,3-4.1,3.7-4.3c0,0-5.8-0.5-9.3,1.1c0,0,3.1-3.6,10.3-2
	l4-3.3c0,0-7.6-1-10.8,0.1c0,0,3.7-3.2,11.9-0.9l4.4-2.6c0,0-6.5-1.4-10.3-0.9c0,0,4.1-2.2,11.6,0.2l3.2-1.4c0,0-4.7-0.9-6.1-1.1
	s-1.5-0.5-1.5-0.5c3-0.5,6.1-0.2,8.9,1C647.2,115.2,653.9,112.8,653.8,112.4z"/>
<path class="st0" d="M769.2,245.7c0,0-38-2.3-33.6,24.4c0,0-0.9,4.7,3.4,6.9c0,0,0.1-2,3.9-1.3c1.4,0.2,2.8,0.3,4.1,0.2
	c1.8-0.1,3.6-0.9,5-2.1l0,0c0,0,10.7-4.4,14.9-21.9c0,0,3.1-3.8,3-4.8l-6.4,2.7c0,0,2.2,4.6,0.5,8.5c0,0-0.2-8.3-1.4-8.1
	c-0.3,0-3.3,1.6-3.3,1.6s3.8,8.1,0.9,13.9c0,0,1.1-9.9-2.1-13.4l-4.5,2.6c0,0,4.4,8.3,1.4,15.1c0,0,0.8-10.4-2.4-14.5l-4.1,3.2
	c0,0,4.1,8.2,1.6,13.9c0,0-0.3-12.1-2.5-13.1c0,0-3.6,3.2-4.1,4.5c0,0,2.8,6,1.1,9.1c0,0-1.1-8.1-2-8.1c0,0-3.6,5.4-3.9,9
	c0.2-3.4,1.2-6.7,3.1-9.5c-2.1,0.4-4,1.4-5.5,2.8c0,0,0.6-3.8,6.3-4.1c0,0,3-4.1,3.7-4.3c0,0-5.8-0.5-9.3,1.1c0,0,3.1-3.6,10.3-2
	l4-3.3c0,0-7.6-1-10.8,0.1c0,0,3.7-3.2,11.9-0.9l4.4-2.6c0,0-6.5-1.4-10.3-0.9c0,0,4.1-2.2,11.6,0.2l3.2-1.4c0,0-4.7-0.9-6.1-1.1
	s-1.5-0.5-1.5-0.5c3-0.5,6.1-0.2,8.9,1C762.6,248.6,769.4,246.1,769.2,245.7z"/>
<path class="st0" d="M538.4,222.1c0,0,8.8-37.1-18.3-37.2c0,0-4.5-1.7-7.3,2.2c0,0,1.9,0.4,0.6,4.1c-0.5,1.3-0.8,2.6-0.9,4
	c-0.2,1.9,0.2,3.7,1.2,5.3l0,0c0,0,2.5,11.3,19,18.4c0,0,3.2,3.7,4.2,3.7l-1.6-6.8c0,0-4.9,1.4-8.4-1c0,0,8.2,1.2,8.2,0
	c0-0.3-1-3.6-1-3.6s-8.6,2.3-13.9-1.5c0,0,9.6,2.8,13.5,0.2l-1.8-4.9c0,0-9,2.9-15.2-1.2c0,0,10.2,2.5,14.7,0.1l-2.5-4.6
	c0,0-8.8,2.7-13.9-0.8c0,0,12,1.7,13.3-0.2c0,0-2.5-4.1-3.7-4.8c0,0-6.4,1.8-9.2-0.5c0,0,8.2,0.3,8.3-0.6c0,0-4.7-4.4-8.2-5.4
	c3.3,0.8,6.4,2.4,8.9,4.7c0-2.1-0.7-4.1-1.9-5.9c0,0,3.6,1.2,3,7c0,0,3.5,3.6,3.6,4.4c0,0,1.5-5.6,0.5-9.3c0,0,3,3.6,0.2,10.5
	l2.6,4.6c0,0,2.3-7.3,1.7-10.7c0,0,2.5,4.2-1.2,11.9l1.8,4.8c0,0,2.5-6.1,2.6-10c0,0,1.5,4.4-2.2,11.4l0.9,3.3c0,0,1.7-4.5,2.1-5.9
	s0.8-1.4,0.8-1.4c0,3-0.9,6-2.5,8.6C536.6,215.1,538,222.1,538.4,222.1z"/>
<path class="st0" d="M455.2,234.7c0,0-30.5-22.8-41.4,1.9c0,0-3.3,3.5-0.9,7.6c0,0,1.1-1.6,4,1.1c1,0.9,2.1,1.8,3.3,2.4
	c1.6,0.9,3.5,1.3,5.4,1l0,0c0,0,11.4,2.2,24.4-10.1c0,0,4.7-1.5,5.1-2.4l-6.9-1.2c0,0-0.7,5.1-4.3,7.3c0,0,4.4-7.1,3.3-7.6
	c-0.2-0.1-3.7-0.5-3.7-0.5s-1.3,8.8-6.9,12.1c0,0,6.4-7.7,5.6-12.3l-5.2-0.3c0,0-0.9,9.4-7.1,13.4c0,0,6.4-8.3,6-13.4l-5.2,0.4
	c0,0-1,9.1-6.3,12.5c0,0,6.4-10.3,5.1-12.3c0,0-4.7,0.7-5.9,1.5c0,0-0.9,6.5-4.1,8.2c0,0,3.5-7.4,2.8-7.9c0,0-5.9,2.5-8.3,5.4
	c2-2.7,4.7-4.9,7.8-6.3c-1.9-0.8-4.1-1-6.1-0.6c0,0,2.5-2.9,7.6,0c0,0,4.7-1.8,5.5-1.5c0,0-4.5-3.6-8.3-4.2c0,0,4.5-1.3,9.7,4
	l5.2-0.5c0,0-5.8-5-9.1-5.8c0,0,4.8-0.6,10.4,5.8l5.1,0.2c0,0-4.6-4.7-8.1-6.4c0,0,4.6,0.4,9.6,6.5l3.4,0.5c0,0-3.5-3.4-4.5-4.3
	s-0.9-1.3-0.9-1.3c2.8,1.2,5.2,3.2,6.9,5.7C448.1,233.5,455,235.1,455.2,234.7z"/>
<path class="st0" d="M556.8,22.6c0,0-30.5-22.8-41.4,1.9c0,0-3.3,3.4-0.9,7.6c0,0,1.1-1.6,4,1.1c1,0.9,2.1,1.8,3.3,2.4
	c1.6,0.9,3.5,1.3,5.4,1l0,0c0,0,11.4,2.2,24.4-10.1c0,0,4.7-1.5,5.1-2.4l-6.9-1.2c0,0-0.7,5.1-4.3,7.3c0,0,4.4-7.1,3.3-7.6
	c-0.2-0.1-3.7-0.5-3.7-0.5s-1.3,8.8-6.9,12.2c0,0,6.4-7.7,5.6-12.3l-5.2-0.3c0,0-0.9,9.4-7.1,13.4c0,0,6.4-8.3,6-13.4l-5.2,0.4
	c0,0-1.1,9.1-6.3,12.5c0,0,6.4-10.3,5.1-12.3c0,0-4.7,0.7-5.9,1.4c0,0-0.9,6.5-4.1,8.2c0,0,3.5-7.3,2.8-7.9c0,0-5.9,2.5-8.3,5.4
	c2-2.7,4.7-4.9,7.8-6.3c-1.9-0.8-4.1-1-6.1-0.6c0,0,2.5-2.9,7.6,0.1c0,0,4.7-1.8,5.5-1.6c0,0-4.5-3.6-8.3-4.2c0,0,4.5-1.3,9.7,4
	l5.2-0.5c0,0-5.8-5-9.1-5.8c0,0,4.8-0.6,10.4,5.8l5.1,0.2c0,0-4.6-4.7-8.1-6.4c0,0,4.6,0.4,9.6,6.5l3.4,0.6c0,0-3.5-3.3-4.5-4.2
	s-0.9-1.2-0.9-1.2c2.8,1.2,5.2,3.2,6.9,5.7C549.7,21.5,556.6,23,556.8,22.6z"/>
<path class="st0" d="M673.4,51.5c0,0-12.2-36.1-35.2-21.9c0,0-4.7,1-5.1,5.7c0,0,1.8-0.7,2.7,3.1c0.3,1.4,0.8,2.7,1.4,3.9
	c0.8,1.7,2.2,3,3.8,3.9l0,0c0,0,8.1,8.3,25.9,5.5c0,0,4.7,1.4,5.5,0.9l-5-4.9c0,0-3.5,3.8-7.7,3.6c0,0,7.6-3.3,7-4.4
	c-0.1-0.2-2.7-2.5-2.7-2.5s-6.1,6.5-12.6,6.1c0,0,9.6-2.7,11.6-7l-4.1-3.2c0,0-6.1,7.2-13.5,7c0,0,10-3.2,12.5-7.7l-4.5-2.6
	c0,0-6,6.9-12.2,6.7c0,0,11.1-4.9,11.2-7.2c0,0-4.3-2.1-5.7-2.2c0,0-4.5,4.9-8,4.4c0,0,7.1-4.1,6.8-4.9c0,0-6.3-1.3-9.8-0.3
	c3.2-1.1,6.7-1.4,10-0.8c-1.1-1.8-2.8-3.2-4.7-4c0,0,3.7-0.9,6.2,4.3c0,0,4.9,1.2,5.4,1.8c0,0-1.7-5.5-4.5-8.2c0,0,4.5,1.5,5.7,8.8
	l4.6,2.5c0,0-1.9-7.4-4.2-10c0,0,4.3,2.2,5.3,10.7l4.1,3.1c0,0-1.1-6.5-3.1-9.9c0,0,3.6,2.9,4.2,10.8l2.5,2.4c0,0-0.9-4.7-1.3-6.1
	s-0.1-1.4-0.1-1.4c1.6,2.6,2.4,5.6,2.4,8.6C668.2,46.6,673,51.8,673.4,51.5z"/>
<path class="st0" d="M593.8,53.3c0,0-37.9-4.2-34.8,22.7c0,0-1.1,4.7,3,7c0,0,0.2-2,4-1.1c1.4,0.3,2.7,0.4,4.1,0.4
	c1.9,0,3.7-0.7,5.2-1.8l0,0c0,0,10.9-3.9,16-21.1c0,0,3.3-3.7,3.2-4.6l-6.5,2.4c0,0,2,4.7,0,8.5c0,0,0.2-8.3-1-8.2
	c-0.3,0-3.4,1.4-3.4,1.4s3.4,8.3,0.2,14c0,0,1.6-9.9-1.4-13.4l-4.7,2.4c0,0,4,8.6,0.7,15.2c0,0,1.3-10.4-1.6-14.6l-4.3,3
	c0,0,3.7,8.4,0.9,13.9c0,0,0.3-12.1-1.8-13.2c0,0-3.7,3-4.3,4.2c0,0,2.5,6.1,0.6,9.2c0,0-0.7-8.1-1.5-8.2c0,0-3.8,5.2-4.4,8.8
	c0.3-3.4,1.6-6.6,3.6-9.4c-2.1,0.3-4,1.2-5.6,2.5c0,0,0.7-3.8,6.5-3.8c0,0,3.2-3.9,4-4.1c0,0-5.7-0.8-9.3,0.6c0,0,3.3-3.4,10.4-1.4
	l4.2-3.1c0,0-7.6-1.5-10.8-0.5c0,0,3.9-3,11.9-0.3l4.5-2.4c0,0-6.4-1.7-10.3-1.4c0,0,4.2-2,11.6,0.8l3.2-1.3c0,0-4.7-1.2-6.1-1.4
	s-1.4-0.6-1.4-0.6c3-0.3,6.1,0.2,8.8,1.4C587.1,55.9,593.8,53.7,593.8,53.3z"/>
<path class="st0" d="M925.4,347.5c0,0-37.9-4.2-34.8,22.6c0,0-1.1,4.7,3,7c0,0,0.2-2,4-1.1c1.4,0.3,2.7,0.4,4.1,0.4
	c1.9,0,3.7-0.7,5.2-1.8l0,0c0,0,10.9-3.9,16-21.1c0,0,3.3-3.7,3.2-4.6l-6.5,2.4c0,0,2,4.7,0,8.5c0,0,0.2-8.3-1-8.2
	c-0.3,0-3.4,1.4-3.4,1.4s3.4,8.3,0.2,14c0,0,1.6-9.9-1.4-13.4l-4.7,2.4c0,0,4,8.5,0.7,15.2c0,0,1.3-10.4-1.6-14.6l-4.3,3
	c0,0,3.7,8.4,0.9,13.9c0,0,0.3-12.1-1.8-13.2c0,0-3.7,3-4.3,4.2c0,0,2.5,6.1,0.6,9.1c0,0-0.7-8.1-1.5-8.2c0,0-3.8,5.2-4.4,8.8
	c0.3-3.4,1.6-6.6,3.6-9.4c-2.1,0.3-4,1.2-5.6,2.5c0,0,0.7-3.8,6.5-3.8c0,0,3.2-3.9,4-4.1c0,0-5.7-0.8-9.3,0.6c0,0,3.3-3.4,10.4-1.4
	l4.2-3.1c0,0-7.5-1.4-10.8-0.4c0,0,3.9-3,11.9-0.3l4.5-2.4c0,0-6.4-1.7-10.3-1.4c0,0,4.2-2,11.6,0.8l3.2-1.3c0,0-4.7-1.2-6.1-1.4
	s-1.4-0.6-1.4-0.6c3-0.4,6.1,0.1,8.8,1.4C918.7,350.1,925.5,347.9,925.4,347.5z"/>
<path class="st0" d="M983.3,382.9c0,0-37.9-4.2-34.8,22.6c0,0-1.1,4.7,3,7c0,0,0.2-2,4-1.1c1.3,0.3,2.7,0.4,4.1,0.4
	c1.9,0,3.7-0.7,5.1-1.8l0,0c0,0,10.9-3.9,15.9-21.1c0,0,3.3-3.6,3.2-4.6l-6.6,2.4c0,0,2,4.7,0,8.5c0,0,0.2-8.3-1-8.2
	c-0.3,0-3.4,1.4-3.4,1.4s3.4,8.3,0.2,14c0,0,1.6-9.9-1.4-13.4l-4.7,2.4c0,0,4,8.5,0.7,15.2c0,0,1.3-10.4-1.6-14.6l-4.3,3
	c0,0,3.7,8.4,0.9,13.9c0,0,0.3-12.1-1.8-13.2c0,0-3.7,3-4.3,4.2c0,0,2.5,6.1,0.6,9.1c0,0-0.7-8.1-1.6-8.2c0,0-3.8,5.2-4.4,8.8
	c0.3-3.4,1.6-6.6,3.6-9.4c-2.1,0.3-4,1.2-5.6,2.5c0,0,0.8-3.8,6.6-3.8c0,0,3.2-3.9,4-4.1c0,0-5.7-0.8-9.3,0.6c0,0,3.3-3.4,10.4-1.4
	l4.2-3.1c0,0-7.5-1.4-10.8-0.4c0,0,3.9-3,11.9-0.3l4.5-2.4c0,0-6.4-1.7-10.3-1.4c0,0,4.2-2,11.6,0.8l3.2-1.3c0,0-4.7-1.2-6.1-1.4
	s-1.4-0.6-1.4-0.6c3-0.3,6.1,0.2,8.8,1.4C976.6,385.5,983.4,383.3,983.3,382.9z"/>
<path class="st0" d="M854.7,84.8c0,0-30.5-22.8-41.4,1.9c0,0-3.3,3.4-0.9,7.6c0,0,1.1-1.6,4,1.1c1,0.9,2.1,1.8,3.3,2.4
	c1.6,0.9,3.5,1.3,5.4,1l0,0c0,0,11.4,2.2,24.5-10.1c0,0,4.7-1.5,5.1-2.4l-6.9-1.2c0,0-0.7,5.1-4.3,7.3c0,0,4.4-7.1,3.3-7.6
	c-0.2-0.1-3.7-0.5-3.7-0.5s-1.3,8.8-6.9,12.1c0,0,6.4-7.7,5.6-12.3l-5.2-0.3c0,0-0.9,9.4-7.1,13.4c0,0,6.4-8.3,6-13.4l-5.2,0.4
	c0,0-1,9.1-6.3,12.4c0,0,6.4-10.3,5.1-12.3c0,0-4.7,0.7-5.9,1.4c0,0-0.9,6.5-4.1,8.2c0,0,3.5-7.4,2.8-7.9c0,0-5.9,2.5-8.3,5.4
	c2-2.7,4.7-4.9,7.8-6.3c-1.9-0.8-4.1-1-6.1-0.6c0,0,2.5-2.9,7.6,0.1c0,0,4.7-1.8,5.5-1.6c0,0-4.5-3.6-8.3-4.2c0,0,4.5-1.3,9.7,4
	l5.2-0.5c0,0-5.8-5-9.1-5.8c0,0,4.8-0.6,10.4,5.8l5.1,0.2c0,0-4.6-4.7-8.1-6.4c0,0,4.6,0.4,9.6,6.5l3.4,0.6c0,0-3.5-3.4-4.5-4.3
	s-0.9-1.2-0.9-1.2c2.8,1.2,5.2,3.2,6.9,5.7C847.7,83.7,854.6,85.3,854.7,84.8z"/>
<path class="st0" d="M878.3,249.7c0,0-10.5-36.6-34.2-23.5c0,0-4.7,0.7-5.3,5.5c0,0,1.9-0.6,2.5,3.2c0.2,1.4,0.6,2.7,1.2,4
	c0.7,1.7,2,3.2,3.7,4.1l0,0c0,0,7.7,8.6,25.6,6.7c0,0,4.6,1.6,5.5,1.2l-4.7-5.1c0,0-3.6,3.6-7.8,3.3c0,0,7.8-3,7.2-4.1
	c-0.1-0.2-2.6-2.6-2.6-2.6s-6.3,6.3-12.8,5.5c0,0,9.7-2.3,11.9-6.4l-4-3.4c0,0-6.4,6.9-13.8,6.4c0,0,10.1-2.8,12.9-7.1l-4.4-2.8
	c0,0-6.3,6.6-12.5,6.1c0,0,11.3-4.4,11.5-6.7c0,0-4.2-2.3-5.6-2.4c0,0-4.7,4.7-8.2,4.1c0,0,7.3-3.7,7-4.6c0,0-6.2-1.6-9.8-0.7
	c3.3-1,6.7-1.1,10-0.3c-1.1-1.8-2.6-3.3-4.5-4.2c0,0,3.8-0.8,6,4.6c0,0,4.8,1.4,5.3,2.1c0,0-1.5-5.6-4.1-8.4c0,0,4.4,1.7,5.3,9.1
	l4.5,2.7c0,0-1.6-7.5-3.7-10.1c0,0,4.2,2.4,4.8,10.9l4,3.3c0,0-0.8-6.6-2.6-10c0,0,3.4,3.1,3.7,11l2.4,2.5c0,0-0.7-4.8-1-6.1
	s0-1.5,0-1.5c1.5,2.7,2.2,5.7,2,8.7C873.4,244.5,877.9,249.9,878.3,249.7z"/>
<path class="st0" d="M643.9,332.2c0,0-20.4-32.2-39.4-12.9c0,0-4.3,2-3.6,6.8c0,0,1.7-1.1,3.3,2.4c0.6,1.2,1.4,2.4,2.3,3.5
	c1.2,1.4,2.8,2.5,4.7,2.9l0,0c0,0,9.8,6.1,26.5-0.8c0,0,4.9,0.3,5.6-0.4l-6-3.6c0,0-2.5,4.5-6.6,5.4c0,0,6.6-5,5.7-5.9
	c-0.2-0.2-3.3-1.8-3.3-1.8s-4.3,7.8-10.8,8.9c0,0,8.7-5,9.6-9.5l-4.8-2.1c0,0-4.2,8.5-11.4,10c0,0,8.9-5.5,10.3-10.4l-5-1.4
	c0,0-4.2,8.2-10.3,9.4c0,0,9.6-7.4,9.1-9.7c0,0-4.7-1-6-0.7c0,0-3.2,5.8-6.8,6.2c0,0,5.9-5.6,5.4-6.4c0,0-6.4,0.3-9.6,2.1
	c2.9-1.8,6.1-2.9,9.5-3.1c-1.5-1.4-3.4-2.4-5.5-2.8c0,0,3.4-1.8,7,2.7c0,0,5,0,5.7,0.5c0,0-3-5-6.3-6.9c0,0,4.7,0.4,7.6,7.2l5,1.3
	c0,0-3.6-6.8-6.4-8.7c0,0,4.7,1.1,7.7,9.1l4.7,2c0,0-2.7-6-5.3-8.9c0,0,4.2,2,6.7,9.5l3,1.7c0,0-2-4.4-2.7-5.6s-0.4-1.5-0.4-1.5
	c2.2,2.1,3.7,4.8,4.4,7.8C637.6,328.6,643.6,332.5,643.9,332.2z"/>
<path class="st9" d="M778.1,167.8c0,0-19.4-32.8-39-14.1c0,0-4.4,1.9-3.8,6.6c0,0,1.7-1.1,3.3,2.5c0.6,1.3,1.3,2.5,2.2,3.5
	c1.1,1.5,2.8,2.5,4.6,3l0,0c0,0,9.7,6.4,26.5,0c0,0,4.9,0.4,5.6-0.2l-5.9-3.8c0,0-2.6,4.4-6.8,5.1c0,0,6.8-4.8,5.9-5.7
	c-0.2-0.2-3.2-1.9-3.2-1.9s-4.6,7.6-11,8.6c0,0,8.8-4.7,9.9-9.2l-4.7-2.2c0,0-4.4,8.3-11.7,9.7c0,0,9.1-5.2,10.7-10.1l-4.9-1.6
	c0,0-4.5,8-10.6,9.1c0,0,9.9-7.1,9.4-9.4c0,0-4.6-1.2-6-0.9c0,0-3.3,5.7-6.9,6c0,0,6.1-5.4,5.6-6.2c0,0-6.4,0.1-9.7,1.8
	c2.9-1.8,6.2-2.7,9.6-2.8c-1.5-1.5-3.4-2.5-5.4-2.9c0,0,3.5-1.7,7,2.9c0,0,5,0.2,5.7,0.7c0,0-2.8-5-6.1-7.1c0,0,4.7,0.5,7.4,7.4
	l5,1.5c0,0-3.4-6.9-6.2-8.9c0,0,4.7,1.3,7.4,9.4l4.7,2.2c0,0-2.5-6.1-5-9c0,0,4.1,2.1,6.4,9.7l2.9,1.8c0,0-1.9-4.4-2.5-5.7
	s-0.4-1.5-0.4-1.5c2.1,2.2,3.5,4.9,4.2,7.9C772.1,164,777.9,168.1,778.1,167.8z"/>
<path class="st9" d="M655.2,236.7c0,0,1-38.1-25.5-32.7c0,0-4.7-0.7-6.7,3.6c0,0,2,0,1.4,3.9c-0.2,1.4-0.2,2.8-0.1,4.1
	c0.2,1.9,1,3.6,2.3,5l0,0c0,0,4.8,10.5,22.4,14.1c0,0,3.9,3,4.9,2.8l-3-6.3c0,0-4.5,2.3-8.5,0.8c0,0,8.3-0.5,8.1-1.7
	c0-0.3-1.7-3.3-1.7-3.3s-7.9,4-13.9,1.4c0,0,10,0.8,13.3-2.5l-2.8-4.4c0,0-8.2,4.7-15.1,1.9c0,0,10.5,0.4,14.4-2.9l-3.3-4
	c0,0-8.1,4.4-13.8,2.1c0,0,12.1-0.7,13-2.9c0,0-3.3-3.5-4.6-4c0,0-5.9,3-9.1,1.4c0,0,8-1.3,8-2.2c0,0-5.5-3.4-9.2-3.6
	c3.4,0.1,6.7,1,9.7,2.8c-0.5-2-1.5-3.9-3-5.4c0,0,3.8,0.4,4.3,6.2c0,0,4.2,2.8,4.4,3.6c0,0,0.3-5.8-1.4-9.2c0,0,3.7,3,2.3,10.2
	l3.4,3.9c0,0,0.8-7.6-0.5-10.8c0,0,3.3,3.6,1.3,11.9l2.8,4.3c0,0,1.2-6.5,0.5-10.3c0,0,2.3,4,0.2,11.6l1.5,3.1c0,0,0.8-4.8,0.9-6.2
	s0.5-1.5,0.5-1.5c0.6,3,0.4,6.1-0.7,8.9C652.1,230.3,654.8,236.9,655.2,236.7z"/>
<ellipse class="st0" cx="699" cy="716.3" rx="26.9" ry="4.5"/>
<ellipse class="st0" cx="600.8" cy="785.4" rx="26.9" ry="4.5"/>
<ellipse class="st0" cx="93.1" cy="750" rx="26.9" ry="4.5"/>
<ellipse class="st0" cx="805.1" cy="780.8" rx="26.9" ry="4.5"/>
<ellipse class="st9" cx="833.1" cy="723.1" rx="40.2" ry="6.8"/>
<path class="st9" d="M849.8,712c1.8-1.5,3.2-3.5,3.8-5.8c0.5-2.3-0.5-5-2.7-5.9c-2.5-0.9-5.1,0.8-7.1,2.5s-4.3,3.7-6.9,3.3
	c2.7-2.5,4-6.2,3.2-9.8c-0.1-0.7-0.4-1.4-0.9-2c-1.4-1.5-3.8-0.8-5.5,0.3c-5.2,3.7-6.7,10.7-6.7,17.1c-0.5-2.3-0.1-4.7-0.1-7
	c0-2.3-0.7-5-2.7-6.2c-1.2-0.7-2.6-1-4-1c-2.3-0.1-5,0.2-6.5,1.9c-2,2.1-1.5,5.7,0.3,8c1.7,2.3,4.3,3.8,6.8,5.4
	c1.9,1.2,3.6,2.7,4.8,4.6c0.1,0.3,0.3,0.5,0.3,0.8h14.7C844,716.5,847.1,714.4,849.8,712z"/>
<path class="st12" d="M75.1,728.8c0,0,15.4-0.5,20-3.8s23.6-7.2,24.8-1.9c1.1,5.3,23.1,26.3,5.7,26.4s-40.3-2.7-44.9-5.5
	C76,741.2,75.1,728.8,75.1,728.8z"/>
<path class="st13" d="M125.9,747.7c-17.3,0.1-40.3-2.7-44.9-5.5c-3.5-2.1-4.9-9.8-5.4-13.4h-0.5c0,0,1,12.4,5.6,15.2
	c4.6,2.8,27.6,5.7,44.9,5.5c5,0,6.7-1.8,6.6-4.5C131.5,746.7,129.6,747.7,125.9,747.7z"/>
<g>
	<g id="Layer_1-2">
		<text transform="matrix(0.9766 -0.2151 0.2151 0.9766 434.4289 409.4859)" class="st14 st15 st16">Wintex</text>
	</g>
</g>
</svg>
