<?xml version="1.0" encoding="utf-8"?>
<!-- Generator: Adobe Illustrator 23.0.0, SVG Export Plug-In . SVG Version: 6.00 Build 0)  -->
<svg version="1.1" id="a658aab1-b68e-4d2a-94f7-9a6e4abf15c7"
	 xmlns="http://www.w3.org/2000/svg" xmlns:xlink="http://www.w3.org/1999/xlink" x="0px" y="0px" viewBox="0 0 816.2 621"
	 style="enable-background:new 0 0 816.2 621;" xml:space="preserve">
<style type="text/css">
	.st0{fill:#3F3D56;}
	.st1{fill:#FFFFFF;}
	.st2{fill:#CBCBCB;}
	.st3{fill:#1A1A1A;}
	.st4{fill:#F1F1F1;}
	.st5{fill:#FFB7B7;}
	.st6{fill:#2F2E41;}
	.st7{opacity:0.1;enable-background:new    ;}
	.st8{font-family:'Papyrus-Regular';}
	.st9{font-size:44.8915px;}
</style>
<path class="st0" d="M326.6,128.8h-3V47.2c0-26.1-21.1-47.2-47.2-47.2l0,0H103.6C77.5,0,56.4,21.1,56.4,47.2v447.5
	c0,26.1,21.1,47.2,47.2,47.2l0,0h172.8c26.1,0,47.2-21.1,47.2-47.2V186.8h3V128.8z"/>
<path class="st1" d="M278.3,12.3h-22.6c3.5,8.6-0.6,18.3-9.2,21.8c-2,0.8-4.2,1.2-6.3,1.2h-99c-9.3,0-16.7-7.5-16.7-16.8
	c0-2.2,0.4-4.3,1.2-6.3h-21.1c-19.5,0-35.3,15.8-35.3,35.3c0,0,0,0,0,0v446.8c0,19.5,15.8,35.3,35.3,35.3l0,0h173.7
	c19.5,0,35.3-15.8,35.3-35.3l0,0V47.5C313.6,28.1,297.8,12.3,278.3,12.3C278.3,12.3,278.3,12.3,278.3,12.3z"/>
<path class="st2" d="M382,542H1c-0.6,0-1-0.4-1-1s0.4-1,1-1h381c0.6,0,1,0.4,1,1S382.6,542,382,542z"/>
<circle id="baf12095-0797-4180-a98d-6422936d747a" class="st3" cx="191.5" cy="261.2" r="84.4"/>
<path id="b582f34e-fd02-4670-b1d8-d23f069ed737" class="st1" d="M183.1,293.4c-1.9,0-3.7-0.6-5.3-1.8l-0.1-0.1l-19.8-15.2
	c-3.9-3-4.6-8.5-1.6-12.4c3-3.9,8.5-4.6,12.4-1.6l0,0l12.9,9.9l30.4-39.6c3-3.9,8.5-4.6,12.4-1.6c0,0,0,0,0,0l0,0l-0.2,0.3l0.2-0.3
	c3.9,3,4.6,8.5,1.6,12.4L190.2,290C188.5,292.2,185.9,293.4,183.1,293.4L183.1,293.4z"/>
<path class="st4" d="M694.2,550.3c1-1.7,2.2-3.2,3.6-4.6c0.6-0.6,1.2-1.1,1.8-1.7c11.6-10.3,29.4-9.3,39.7,2.3
	c3.4,3.9,5.7,8.6,6.7,13.7c4.1-15.3-6.6-30.3-17.4-41.8c-10.8-11.5-23.1-24.2-23.1-40c0-8.8,4.3-16.6,10.8-22.5
	c0.2-0.2,0.4-0.4,0.6-0.5c7.9-6.7,18-10.3,28.3-9.9c19.2,1,36,13.9,47.6,29.2c18.7,24.6,27,59.2,13.8,87.2
	c-11.5,24.7-36.1,39.3-61.3,51.1c-3.5,1.6-7,3.2-10.5,4.8c0,0,0,0-0.1,0c-0.2,0.1-0.3,0.1-0.5,0.2c-0.7,0.3-1.4,0.6-2.2,1l0.3,0.2
	l1,0.7c-0.4-0.2-0.7-0.4-1.1-0.6c-0.1-0.1-0.2-0.1-0.3-0.2c-12.3-7.4-24.8-15.2-33.4-26.8C690,580.2,686.4,563,694.2,550.3z"/>
<path class="st1" d="M776.5,522.4c2.7,6.2,4.5,12.8,5.4,19.5c0.7,6,0.4,12.1-0.7,18c-2.4,12.2-7.8,23.6-15.6,33.3
	c-5.9,7.4-12.7,14-20.2,19.6c-3.5,1.6-7,3.2-10.5,4.8c0,0,0,0-0.1,0c-0.2,0.1-0.3,0.1-0.5,0.2c-0.7,0.3-1.4,0.6-2.2,1l0.3,0.2l1,0.7
	c-0.4-0.2-0.7-0.4-1.1-0.6c-0.1-0.1-0.2-0.1-0.3-0.2c5.5-19.3,1.3-40-11.2-55.6c-6.2-7.6-14.1-13.6-23.1-17.6
	c0.6-0.6,1.2-1.1,1.8-1.7c3.5,1.6,6.8,3.5,9.9,5.7c11.2,7.7,19.6,18.9,24,31.7c3.9,11.7,4.4,24.2,1.4,36.2c0.6-0.4,1.2-0.8,1.8-1.2
	c11.5-7.7,22.1-17.1,30.1-28.5c6.9-9.6,11.3-20.8,12.8-32.6c1.5-12.8-1.7-25.5-7.4-36.9c-6.3-12.3-14.3-23.6-23.7-33.7
	c-9.4-10.4-20.1-19.5-31.8-27.3c-0.5-0.4-0.7-1.1-0.4-1.7c0.1-0.2,0.3-0.4,0.6-0.5c0.3-0.1,0.6,0,0.8,0.2c1.4,1,2.9,1.9,4.3,2.9
	c11.7,8.3,22.4,18.1,31.8,29C762.8,497.9,771,509.6,776.5,522.4z"/>
<ellipse id="ae2e9f9a-ed63-4994-961d-af4fbb6f5199" transform="matrix(0.2128 -0.9771 0.9771 0.2128 392.5495 529.7716)" class="st4" cx="525" cy="21.3" rx="17.9" ry="17.9"/>
<circle id="b777be60-18da-4893-88a8-55a275d98bc2" class="st4" cx="748" cy="268.3" r="10.9"/>
<circle id="a703acd2-aa23-4bff-9a86-75b7d9a928c1" class="st4" cx="428" cy="298.3" r="10.9"/>
<path class="st2" d="M434.2,621h381c0.6,0,1-0.4,1-1s-0.4-1-1-1h-381c-0.6,0-1,0.4-1,1S433.7,621,434.2,621z"/>
<path class="st5" d="M773.2,96.6c1.1-8-4.5-15.4-12.5-16.6c-6.7-0.9-13.2,2.8-15.7,9.1l-30.9,35.4l9.1,25.3l31.1-41.4
	c7.7,2.5,15.9-1.8,18.3-9.4C772.9,98.3,773.1,97.5,773.2,96.6z"/>
<polygon class="st0" points="645,234.5 747.6,125 733.8,103 605.1,211.9 "/>
<circle class="st6" cx="622.1" cy="132" r="36"/>
<path class="st6" d="M625,111.7c7.7-7.9,17.1-13.9,27.5-17.8c6.6-2.5,13.9-4,20.8-2.6c6.9,1.4,13.5,6.2,15.4,13
	c1.6,5.6-0.1,11.6-2.5,16.8c-2.5,5.2-5.7,10.1-7.7,15.5c-6.7,18.4,2.7,38.8,21.1,45.5c4.7,1.7,9.6,2.4,14.5,2.1
	c-6.8,0.9-13.1,4.1-19.8,5.8c-6.7,1.7-14.5,1.6-19.5-3.2c-5.2-5.1-5.3-13.3-5.1-20.5c0.4-10.8,0.8-21.6,1.1-32.4
	c0.2-5.5,0.4-11.2-1.6-16.4c-2-5.1-6.7-9.7-12.2-9.6c-4.2,0-7.9,2.6-11.2,5.1c-3.4,2.5-6.9,5.2-11.1,5.5c-4.2,0.4-8.9-2.7-8.6-6.9
	L625,111.7z"/>
<path class="st5" d="M485.4,373.7c-7.8,2.2-15.9-2.4-18-10.2c-1.8-6.5,1.1-13.4,7-16.7l31.1-35.3l26.3,5.7l-37,36.2
	c3.4,7.3,0.3,16-7,19.4C487,373.2,486.2,373.5,485.4,373.7L485.4,373.7z"/>
<polygon class="st0" points="587.7,247.4 510.2,344.7 486.6,333.9 577.7,192 "/>
<polygon class="st5" points="525.8,541.2 507.4,540.9 509.6,603.9 525.8,603.9 "/>
<path class="st6" d="M530,598.6l-32,0h0c-11.3,0-20.4,9.1-20.4,20.4v0.7l52.4,0L530,598.6z"/>
<polygon class="st5" points="648.2,524.5 628,537.5 668.4,586 682,577.3 "/>
<path class="st6" d="M682.6,570.5l-26.9,17.3l0,0c-9.5,6.1-12.2,18.7-6.1,28.2l0.4,0.6l44.1-28.3L682.6,570.5z"/>
<path class="st0" d="M655.4,332.2c0,0-44.8-148.9-59.2-150.9s-37.6,38.2-37.6,38.2c-30.1,38.4-61.1,162.8-61.1,162.8
	s51.7,3.2,89.6,23.4s82.5-1,82.5-1L655.4,332.2z"/>
<path class="st7" d="M655.4,332.2c0,0-44.8-148.9-59.2-150.9s-31.7,38.6-31.7,38.6c-15,62-67,162.4-67,162.4s51.7,3.2,89.6,23.4
	s82.5-1,82.5-1L655.4,332.2z"/>
<polygon class="st6" points="618.6,287.7 618.6,362.5 627.4,470.9 671.4,552.9 650.4,567.9 590.4,489.9 566.6,412.5 529.4,583.9 
	501.4,581.9 520.8,344.2 557.7,277.3 "/>
<path class="st3" d="M573.4,215.3c-14,14-1,29-1,29l-16,36l63,17l22-98.4l-15-16c-30-1-30-1.6-30-1.6
	C591.1,186.4,573.4,215.3,573.4,215.3z"/>
<path class="st0" d="M643.9,188.7c-11.9-8.8-28.8-6.3-37.6,5.7c-0.1,0.1-0.1,0.2-0.2,0.2c-15.8,22.1-30.5,57.7-10.3,102.1
	c32.4,71.3,60.6,107.8,72.1,107.8c0.5,0,1-0.1,1.5-0.2c7.1-2.4,17.3-14.3,19.1-24.9c0.7-3.8,0.5-9-4-12.6
	c-12.9-10.3-36.2-42.6-43.4-85c-4-23.4,3.8-44.8,11-58.5c6.3-11.8,3-26.4-7.8-34.3l0,0L643.9,188.7z"/>
<circle class="st5" cx="611.2" cy="141.2" r="26.5"/>
<path class="st6" d="M574,139.2h38.3l0.4-5.5l2,5.5h5.9l0.8-10.9l3.9,10.9h11.4v-0.5c0-15.8-12.8-28.6-28.6-28.6h-5.4
	c-15.8,0-28.6,12.8-28.6,28.6V139.2z"/>
<path class="st6" d="M630.8,159l16.3-5.3V114h-30.8l0.8,0.8C627.7,125.4,639.5,163,630.8,159z"/>
<g>
	<g id="Layer_1-2">
		<path class="st1" d="M613.1,210.9c0,0.1,0,0.2,0.1,0.3c0,0,0,0.3,0,0.6l0,0.3l0,0.2c0,0.1,0,0.2,0,0.3c0,0-0.1,0-0.1,0
			c-0.1,0-0.1,0.1-0.1,0.1c0,0.1,0,0.1,0,0.2c0.1,0,0.2,0.1,0.2,0.1c0,0.1,0,0.1,0,0.2c0,0.1,0,0.1,0,0.2l0.2,0.1
			c-0.1,0.4-0.1,0.8,0,1.2c-0.2,0.1-0.2,0.2-0.3,0.3c0,0.1,0,0.1,0,0.1c0,0.1,0.1,0.1,0.1,0.1l0.1,0c0,0,0,0,0,0.1
			c0,0.1,0,0.2,0,0.3c0,0.1-0.1,0.2-0.2,0.2l0,0.3c0,0,0,0,0,0c0.1,0,0.2,0.1,0.2,0.1c0,0.1,0,0.2,0.1,0.3c0,0.1,0,0.1,0.1,0.2
			l0.1,1.5c0,0.3,0,0.4,0,0.4c0,0,0,0.1-0.1,0.2c0.1,0.1,0.2,0.2,0.2,0.4l0.1,0.2l0,0.3l0,0.3l-0.6,0.1c0.2,0.2,0.4,0.4,0.6,0.6
			l0.2,0.1c0,0.2,0,0.4,0,0.6c0,0.3,0.1,0.6,0.1,0.8c0,0.3,0,0.5,0,0.6l0.2,0l0.1,0.3l0,0c0.1-0.1,0.1-0.2,0.2-0.3
			c0.1-0.1,0.1-0.3,0.2-0.4c0-0.1,0.1-0.2,0.1-0.3l0.5-0.9c0-0.1,0.1-0.1,0.1-0.2c0-0.1,0.1-0.2,0.1-0.3l0.3-0.4l0.1-0.2l0.1-0.2
			c0.2-0.5,0.4-0.8,0.4-0.8c0.1-0.1,0.1-0.1,0.2-0.1c0-0.1,0-0.1,0-0.1c0-0.1,0.1-0.4,0.4-1c0.1-0.2,0.2-0.4,0.5-0.7
			c0.1-0.2,0.1-0.4,0.2-0.6c0.4-0.6,0.6-1.1,0.6-1.4c0-0.1,0-0.2,0-0.3l0.6-0.2l0.2-0.2c0.1-0.1,0.3-0.1,0.4-0.2c0,0,0-0.1-0.1-0.1
			c-0.2-0.1-0.5-0.3-0.8-0.4l0.4-0.4c-0.1-0.1-0.1-0.2-0.1-0.3c0-0.1,0.1-0.2,0.2-0.3c0.1-0.1,0.1-0.1,0.2-0.2l0.3-0.1
			c0.3-0.1,0.4-0.2,0.4-0.2c0,0,0.1,0,0.1,0l0.1,0l0.2,0.3c-0.5,0.1-0.8,0.2-0.8,0.3c0,0.1,0.1,0.2,0.2,0.4c0.1,0.2,0.2,0.4,0.3,0.5
			l0.2,0.4c0,0-0.1,0.1-0.2,0.2c0,0.2,0,0.3,0.1,0.4c0.1,0.2,0.2,0.3,0.2,0.3c0,0.1,0,0.2,0,0.3c0,0.1,0,0.3,0.1,0.8
			c0,0.4,0,0.6,0,0.7c0,0.1,0.1,0.2,0.1,0.3l0,0c-0.3,0-0.4,0-0.4,0l0,0.1c0,0.1,0,0.3,0,0.4l0.3,0.5l0.1,0.4
			c0.1,0.1,0.1,0.2,0.1,0.2l0,0l-0.1,0l-0.1,0c0,0.1,0,0.2,0,0.2c0,0.1,0,0.3,0,0.4l0.1,0c0.1,0.3,0.1,0.6,0.1,0.9l0,0.4l0,0.3
			c0,0.1,0.1,0.2,0.1,0.3c0,0.2,0,0.3,0,0.5c0,0,0,0.1-0.1,0.1c0,0.1-0.1,0.1-0.1,0.2c0,0.1,0,0.2,0.1,0.2c0,0,0.1,0.1,0.1,0.1
			c0,0,0.1,0,0.1,0c0,0.1,0,0.3,0,0.6c0,0.1,0.1,0.3,0.1,0.4c0.1,0,0.1-0.1,0.2-0.1c0.1-0.1,0.2-0.2,0.2-0.3c0-0.1,0-0.2,0-0.3
			c0.1,0,0.1,0,0.2-0.1c0.1-0.2,0.2-0.4,0.3-0.5l0-0.2l0.1-0.2l0.1-0.3l0.1-0.1l0.1-0.3l0.3-0.5l0.3-0.8c0.2-0.3,0.3-0.5,0.3-0.5
			c0.1-0.1,0.1-0.2,0.2-0.3c0-0.1,0.2-0.5,0.5-1.1c0.1-0.3,0.2-0.5,0.4-0.8c0.1-0.1,0.1-0.2,0.1-0.3c0,0,0-0.1,0-0.4l0.2-0.4
			c0.1-0.2,0.1-0.4,0.2-0.5c0,0,0.1,0,0.1,0c0.1,0,0.1,0,0.2,0c0-0.1,0-0.2-0.2-0.3c0.1-0.2,0.1-0.3,0.2-0.5l0.1-0.4l0.1-0.2
			c0-0.1,0.1-0.3,0.1-0.4c0.2-0.3,0.5-0.5,0.8-0.5c0.1-0.1,0.2-0.2,0.3-0.2c0,0,0.1,0,0.2,0c0,0,0,0.1,0,0.1c0,0.1,0,0.1-0.1,0.1
			c-0.1,0.1-0.1,0.3-0.1,0.4l-0.1,0.2c0,0.1-0.1,0.3-0.2,0.4c-0.1,0.1-0.2,0.2-0.2,0.3c0,0.1,0,0.1,0,0.2c0,0.1-0.1,0.1-0.1,0.2
			c0,0,0,0,0,0.1c0,0,0,0.1,0,0.1c-0.1,0.1-0.1,0.1-0.1,0.2c0,0,0,0.1,0,0.1c-0.1,0-0.2,0-0.2,0l0,0.3l0,0c0,0.1-0.1,0.2-0.1,0.3
			c-0.1,0-0.2,0-0.2,0c-0.1,0-0.1,0-0.1,0.1l0,0.1l0,0.1c0,0.1,0.1,0.2,0.1,0.2c0,0-0.1,0.1-0.2,0.2c0,0.1-0.1,0.1-0.1,0.2
			c-0.2,0.4-0.3,0.6-0.4,0.7c-0.1,0.2-0.2,0.3-0.3,0.5c0,0.1-0.1,0.2-0.2,0.2l0,0.1c0,0.1,0,0.1-0.1,0.2c0,0.1,0,0.1-0.1,0.2
			c-0.1,0.1-0.1,0.1-0.2,0.1l0,0.1l-0.4,0.9c-0.1,0.3-0.2,0.6-0.3,0.6c-0.1,0.2-0.2,0.3-0.3,0.5c-0.2,0-0.2,0.1-0.3,0.2
			c0,0.1,0,0.2,0.1,0.3c0,0.1-0.1,0.3-0.2,0.4l0,0.4l-0.1,0.1c-0.1,0.2-0.3,0.5-0.4,0.7l-0.1,0.4l-0.2,0.4c0,0.1,0,0.1,0,0.1
			c-0.1,0-0.2,0.1-0.2,0.1c0,0-0.1,0.1-0.1,0.2c0.1,0.1,0.1,0.2,0.1,0.3c0,0,0,0.1-0.1,0.3c0,0.2,0,0.3,0,0.3c0,0,0,0.1-0.1,0.3
			l0,0.2c-0.1,0-0.2,0.1-0.2,0.1c-0.1,0-0.3,0.1-0.4,0.2l-0.1,0c0-0.1-0.1-0.2-0.1-0.4l-0.1-0.5l0-0.2c-0.1-0.1-0.1-0.3-0.1-0.5
			c0-0.1,0-0.1,0-0.1c0-0.1,0-0.2,0-0.3c0-0.1,0.1-0.1,0.1-0.2l0,0l-0.1,0c0-0.1-0.1-0.2-0.1-0.2c0-0.1-0.1-0.4,0-1
			c0-0.3,0.1-0.6,0.1-0.8c-0.1,0-0.1-0.1-0.2-0.1s0-0.2,0-0.6l-0.1-0.7l0-0.4c0,0,0-0.3-0.1-0.7c0-0.1,0-0.3,0-0.4
			c0-0.1,0-0.2,0-0.3c0.1-0.1,0.2-0.1,0.2-0.2c0,0,0-0.1,0-0.1c0,0-0.1,0.1-0.2,0.1c0,0-0.1-0.1-0.1-0.2c-0.1-0.4-0.1-0.8-0.1-1.1
			c0.1,0,0.2-0.1,0.2-0.1c0-0.1,0-0.1-0.1-0.2c0,0,0,0,0,0c0-0.1,0-0.1,0.1-0.2c-0.1,0-0.3,0-0.4,0c0-0.1-0.1-0.2-0.1-0.3
			c0-0.1-0.1-0.5-0.1-1c0-0.1,0-0.2,0-0.3l0-0.2l0-0.2c0-0.1-0.1-0.2-0.1-0.2c-0.1,0.1-0.2,0.2-0.2,0.3c0,0-0.1,0.2-0.2,0.6
			l-0.1,0.2l-0.1,0.2l-0.1,0.1l-0.1,0.3L618,217l-0.2,0.5c-0.2,0.2-0.2,0.3-0.3,0.4c-0.1,0.2-0.1,0.5-0.2,0.7l-0.5,0.9l-0.4,1
			c-0.2,0.3-0.3,0.5-0.3,0.6c-0.1,0.1-0.1,0.1-0.2,0.2c-0.1,0.2-0.2,0.4-0.3,0.6l0.1,0.1c-0.2,0.3-0.4,0.6-0.5,1l-0.2,0.4l-0.1,0.2
			l-0.1,0.2l-0.1,0.2l-0.1,0.3l-0.1,0.1c-0.1,0.1-0.1,0.2-0.1,0.3c0,0.1,0,0.2,0,0.3c0.1,0.3,0.1,0.4,0.1,0.5c0,0-0.1,0.1-0.3,0.2
			c-0.1,0.1-0.1,0.2-0.2,0.2c-0.1,0-0.3,0.1-0.4,0.1c-0.1,0-0.2,0-0.3,0.1c-0.1,0-0.1-0.1-0.2-0.1c0-0.3,0-0.7,0.1-1
			c0-0.1,0-0.3,0-0.6l-0.1-0.1c0-0.1,0-0.4-0.1-0.9c0-0.1,0-0.1,0-0.2c0.1-0.2,0.1-0.3,0.2-0.4c-0.1,0-0.1,0-0.1-0.1
			c0,0-0.1-0.1-0.1-0.1c0,0-0.1,0-0.1,0c0-0.1-0.1-0.2,0-0.2c0-0.1,0-0.3,0-0.4c0-0.1,0-0.1,0-0.2c0-0.1,0.1-0.1,0.1-0.2l-0.2-0.1
			c0-0.1,0-0.3,0-0.4c0,0,0-0.2,0-0.6c0-0.2,0-0.3-0.1-0.5c0-0.1,0-0.1,0-0.2c0,0,0.1-0.1,0.1-0.1c0,0,0.1-0.1,0.1-0.1
			c-0.1-0.1-0.1-0.1-0.2-0.2c0-0.1,0-0.3,0-0.4l-0.1-0.4c0,0,0-0.1,0-0.1l0.1-0.1c0.1-0.1,0.1-0.2,0.1-0.3c0-0.1,0-0.1,0-0.2
			c0,0-0.1,0-0.1,0c0,0-0.1-0.1-0.1-0.1l-0.2,0c0-0.1,0-0.3,0-0.7l0-0.8l0.1-0.3c0-0.2,0-0.3-0.2-0.4c0-0.2,0-0.3,0-0.5l-0.1-0.9
			c0,0,0-0.1,0-0.2l0.1-0.1c-0.1-0.2-0.1-0.5-0.2-0.7l-0.1,0c0-0.3-0.1-0.6-0.1-0.8c-0.1-0.5-0.2-0.7-0.1-0.8c0-0.1,0-0.1,0.1-0.1
			c0,0,0.1,0,0.2,0c0.1-0.1,0.1-0.1,0.2-0.2c0,0,0.1-0.1,0.2-0.1l0.1-0.1c0.1-0.1,0.2-0.1,0.3-0.2l0.1,0
			C612.9,211,613,210.9,613.1,210.9z"/>
	</g>
</g>
<g>
	<g id="Layer_1-2_1_">
		<text transform="matrix(1 0 0 1 117.54 434.6105)" class="st8 st9">Wintex</text>
	</g>
</g>
</svg>
