<?xml version="1.0" encoding="utf-8"?>
<!-- Generator: Adobe Illustrator 23.0.0, SVG Export Plug-In . SVG Version: 6.00 Build 0)  -->
<svg version="1.1" id="a6023c93-739c-48ac-9392-a4965b542027"
	 xmlns="http://www.w3.org/2000/svg" xmlns:xlink="http://www.w3.org/1999/xlink" x="0px" y="0px" viewBox="0 0 776.3 764.1"
	 style="enable-background:new 0 0 776.3 764.1;" xml:space="preserve">
<style type="text/css">
	.st0{fill:#F2F2F2;}
	.st1{fill:#2F2E41;}
	.st2{fill:#9E616A;}
	.st3{fill:#FFB6B6;}
	.st4{fill:#FFB8B8;}
	.st5{fill:#FFB9B9;}
	.st6{fill:#1A1A1A;}
	.st7{fill:#FFFFFF;}
</style>
<circle class="st0" cx="113.4" cy="374" r="113.4"/>
<circle class="st1" cx="114.5" cy="333.5" r="45.2"/>
<path class="st0" d="M227.5,113.6c-0.1,62.7-51,113.3-113.6,113.2S0.5,175.9,0.6,113.2C0.7,50.6,51.6-0.1,114.3,0
	c62.5-0.1,113.2,50.6,113.2,113.1C227.5,113.2,227.5,113.4,227.5,113.6z"/>
<circle class="st0" cx="382.6" cy="374" r="113.4"/>
<circle class="st0" cx="382.3" cy="113.4" r="113.4"/>
<circle class="st0" cx="658.8" cy="113.4" r="113.4"/>
<circle class="st0" cx="662.9" cy="374" r="113.4"/>
<path class="st0" d="M227.5,650.6c0,62.7-50.8,113.4-113.4,113.4S0.6,713.3,0.6,650.6s50.8-113.4,113.4-113.4
	c62.4-0.3,113.2,50.1,113.4,112.4C227.5,649.9,227.5,650.3,227.5,650.6z"/>
<circle class="st0" cx="389.6" cy="650.6" r="113.4"/>
<path class="st1" d="M61.5,76.5c4.7-14.9,15.4-28.7,30.1-33.7c14.8-5.1,36.4,2.6,47.4,13.7c20.3,20.2,25.2,89.7,11.3,111.6
	c-2.8-0.1-12.3-0.3-15.1-0.4l-4-13.2v13.1c-4.5-0.1-9-0.2-13.5-0.3C86.1,167,60.4,141.6,59.6,110C59.3,95.4,59.6,82.4,61.5,76.5z"/>
<circle class="st2" cx="112.4" cy="93.8" r="32.3"/>
<path class="st1" d="M84.5,65.4l37.2-18.6l0,0c15.5,7,26,21.8,27.4,38.8l0.9,11.1l-15.6-4l-1.7-14.2l-2.6,13.1l-7.2-1.8l0.1-22.1
	l-7.2,22l-25.7-5.9L84.5,65.4z"/>
<circle class="st1" cx="351.5" cy="315.4" r="16"/>
<circle class="st1" cx="377.1" cy="351.7" r="40.6"/>
<circle class="st2" cx="380.5" cy="359.3" r="33"/>
<path class="st1" d="M402.9,325.7c-17.8-10.9-41-5.2-51.9,12.6c-3.7,6.1-5.6,13.2-5.5,20.4c16.8,4.2,34.4,7.4,52.4,1l4.2-10.4
	l2.5,10.4c5.5,2.2,10.9,4.1,16.4,0C421.4,345.9,414.5,333,402.9,325.7z"/>
<path class="st1" d="M336.6,271.9c-11.1-5.1-25-2.7-34.2,5.3c-9.2,8-13.6,20.9-11.8,33c1.8,12.3,9.3,22.9,16.2,33.2
	c6.9,10.3,13.6,21.7,13.6,34.1c0,18.6-15.1,33.8-33.7,33.8c10.5,4.5,21.5,9.1,32.9,8.6c11.4-0.5,23.4-7.9,25.3-19.2
	c1.3-8.1-2.6-16.1-6-23.6c-5.4-12.3-9.3-25.2-11.7-38.4c-1.1-6.3-1.8-12.9,0.2-19c3.4-9.2,12.4-15.2,22.2-14.7l3.8-3.4
	C355,289.6,347.6,277,336.6,271.9z"/>
<path class="st1" d="M612.5,69.1c-1.6,8.4-4.1,16.5-7.6,24.3c-20,42.3,37,28.5,57.3,28.5c22.3,0,43.6,11.7,40.3-40.3
	c-1.4-22.2-18.1-40.3-40.3-40.3C643.2,41.2,616.5,49.7,612.5,69.1z"/>
<circle class="st3" cx="658.9" cy="89.1" r="32.8"/>
<path class="st1" d="M636.6,55.7c17.7-10.8,40.8-5.2,51.6,12.5c3.7,6.1,5.6,13.1,5.5,20.2c-16.7,4.2-34.2,7.4-52,1l-4.2-10.3
	L635,89.5c-5.4,2.2-10.9,4.1-16.3,0C618.2,75.8,625.1,63,636.6,55.7z"/>
<ellipse transform="matrix(7.088903e-02 -0.9975 0.9975 7.088903e-02 -237.0079 434.0128)" class="st4" cx="114.5" cy="344.2" rx="40.4" ry="40.4"/>
<circle id="bf829f4c-57e2-46a5-971d-584c2690be65" class="st2" cx="387.1" cy="628" r="34.4"/>
<circle class="st4" cx="386.9" cy="88" r="37"/>
<path id="bd502a69-4a38-4003-a7a1-fa248c8198be" class="st1" d="M419.5,63.6c0,0,9.6-18.4-11.6-20.1c0,0-18.1-16.4-36.5-3
	c0,0-10,0-15.5,11.4c0,0-7.9-3-9.6,5c0,0-5.8,16.7,0,31.8s7.7,16.7,7.7,16.7s-4.1-18.7,19.1-20.4s44.3-16.2,46.3,2.3s4,10.1,4,10.1
	S441.6,71.1,419.5,63.6z"/>
<circle class="st3" cx="659.7" cy="351.8" r="36.2"/>
<path class="st1" d="M160.4,623.5L160.4,623.5l-0.6,1c5-12.3,0.5-27.5-8.5-36.8c-8.9-9.3-21.3-13.5-33.5-15.2
	c-9.1-1.3-18.5-1.2-27.1,2.1c-12.5,4.8-22,15.9-30,27.5c-3.6,5.3-7.2,11.3-6.9,17.9c0.3,6.1,4,11.3,7,16.6c3,5.2,5.5,11.7,3.3,17.4
	c-1.3,3.4-4,5.8-6.2,8.6s-4,6.5-2.9,10c1,2.7,3.3,4.7,6.1,5.3c2.6,0.6,5.4,0.2,8.1-0.2l69.5-10.5c16.2-2.4,27.3-17.5,24.9-33.7
	C163.3,629.9,162.1,626.5,160.4,623.5z"/>
<ellipse transform="matrix(0.1602 -0.9871 0.9871 0.1602 -533.1436 638.6073)" class="st5" cx="108.7" cy="632.6" rx="34" ry="34"/>
<path class="st6" d="M199.2,725.5C158.3,772,87.7,777.1,40.5,737l9.7-27.2c4.5-9.8,14-16.4,24.8-17l6.2-0.4L96,679.7
	c0,0,39.8-1.4,39.2-2.1l24.1,14.5l0-0.1l9.5,0.6c10.8,0.7,20.3,7.2,24.8,17L199.2,725.5z"/>
<path class="st6" d="M473.2,725.5C432.3,772,361.7,777.1,314.5,737l9.7-27.2c4.5-9.8,14-16.4,24.8-17l6.2-0.4l14.8-12.7
	c0,0,39.8-1.4,39.2-2.1l24.1,14.5l0-0.1l9.5,0.6c10.8,0.7,20.3,7.2,24.8,17L473.2,725.5z"/>
<path class="st1" d="M141,601.1c-0.9-4.6-5.6-6.8-9.7-7.8c-11.8-3-24-3.7-36-2c-8.8,1.3-17.7,4-24.1,10.9c-5.1,5.8-8,13.2-8.2,20.9
	c-0.3,4.6,0.8,9.2,3,13.3c2.3,3.9,6.2,6.7,10.2,6.6l0.4,1.4c17.1-2.4,32.9-13,42.9-28.7c-1.9,6.7-5.6,12.7-10.8,17.4
	c11.5-4.6,21.5-12.3,28.9-22.3C139.7,607.9,141.6,604.6,141,601.1z"/>
<path class="st6" d="M198.2,448.5C157.3,495,86.7,500.1,39.5,460l9.7-27.1c4.5-9.8,14-16.4,24.8-17l6.2-0.4L95,402.7
	c0,0,39.8-1.4,39.2-2.1l24.1,14.5l0-0.1l9.5,0.6c10.8,0.7,20.3,7.2,24.8,17L198.2,448.5z"/>
<path class="st6" d="M468,449.9c-40.9,46.5-111.6,51.6-158.7,11.5l9.7-27.1c4.5-9.8,14-16.4,24.8-17l6.2-0.4l14.8-12.7
	c0,0,39.8-1.4,39.2-2.1l24.1,14.5l0-0.1l9.5,0.6c10.8,0.7,20.3,7.2,24.8,17L468,449.9z"/>
<path class="st6" d="M748,449.9c-40.9,46.5-111.6,51.6-158.7,11.5l9.7-27.1c4.5-9.8,14-16.4,24.8-17l6.2-0.4l14.8-12.7
	c0,0,39.8-1.4,39.2-2.1l24.1,14.5l0-0.1l9.5,0.6c10.8,0.7,20.3,7.2,24.8,17L748,449.9z"/>
<path class="st6" d="M198.2,188.5C157.3,235,86.7,240.1,39.5,200l9.7-27.1c4.5-9.8,14-16.4,24.8-17l6.2-0.4L95,142.7
	c0,0,39.8-1.4,39.2-2.1l24.1,14.5l0-0.1l9.5,0.6c10.8,0.7,20.3,7.2,24.8,17L198.2,188.5z"/>
<path class="st6" d="M467,188.9c-40.9,46.5-111.6,51.6-158.7,11.5l9.7-27.1c4.5-9.8,14-16.4,24.8-17l6.2-0.4l14.8-12.7
	c0,0,39.8-1.4,39.2-2.1l24.1,14.5l0-0.1l9.5,0.6c10.8,0.7,20.3,7.2,24.8,17L467,188.9z"/>
<path class="st6" d="M747,188.9c-40.9,46.5-111.6,51.6-158.7,11.5l9.7-27.1c4.5-9.8,14-16.4,24.8-17l6.2-0.4l14.8-12.7
	c0,0,39.8-1.4,39.2-2.1l24.1,14.5l0-0.1l9.5,0.6c10.8,0.7,20.3,7.2,24.8,17L747,188.9z"/>
<path class="st1" d="M697.9,329.4c-3.1-11-10-20.4-19.6-26.6c-7.6-4.9-17.1-7.3-25.7-4.8c-8.6,2.6-15.7,11-15.2,20.2
	c-3.1-1.1-6.6,0.3-8.9,2.8c-2.3,2.4-3.5,5.6-4.4,8.9c-2.8,10.2-2.6,21.1,0.5,31.2l-0.2,1.5c4.2-0.7,7.4-4.3,9.4-8.1
	c2-3.8,3.1-8.1,5.3-11.8c2.1-3.7,5.7-7.1,10-7.2l-0.4,6.5c3.7-1.9,7.3-3.8,11-5.7c-0.9,2.1-1.7,4.2-2.6,6.2c3.2-1.3,6.4-2.7,9.6-4
	c-0.4,2-0.7,4-1.1,6c3.2-7.2,13-10.4,19.6-6.4c3.9,2.3,6.4,6.5,7.8,10.9c1.3,4.4,1.6,9,1.9,13.6C699.9,352.1,701,340.4,697.9,329.4z
	"/>
<path class="st1" d="M355.8,643.9c-0.1-0.2-0.1-0.4-0.2-0.6c-0.1,0.1-0.3,0.2-0.4,0.3L355.8,643.9z"/>
<path class="st1" d="M428.3,615.7c-0.4-7.1-3.7-13.6-9.2-18.1c-2-1.6-4.3-2.9-5.7-5.1c-0.8-1.5-1.4-3.1-1.9-4.8
	c-2.6-6.3-10.2-9.6-16.9-8.7s-12.6,5.5-16.5,11.1c-5.6-2.7-12.3-0.3-15,5.3c-1.2,2.4-1.4,5.2-0.7,7.8c-3.5-2.8-9.2-0.6-11.3,3.4
	c-2.2,3.9-1.8,8.7-1.2,13.2c1.2,8,3.1,15.9,5.8,23.6c3.4-3,3.2-8.5,2.8-13.1c-0.4-4.8-0.2-10.7,4-13c4.1-2.3,9,0.2,13.4,1.5
	c7.1,2,14.8,0.8,21-3.3c2.3-1.6,4.4-3.5,6.9-4.8s5.7-1.7,8-0.1c2.1,1.4,3,4.1,3.7,6.5c1.7,5.8,3.4,11.7,5.2,17.5
	C425.8,629.6,428.6,622.8,428.3,615.7z"/>
<path class="st1" d="M157.1,330.1c0.3-3,0.4-6,0.4-9.1c0.2-6-0.9-12-3.2-17.5c-2.8-6.1-7.8-11-14.1-13.6c-6.2-2.5-13.1-2.5-19.2,0
	c-5.6-3.5-11.8-6.3-18.3-6.7c-6.5-0.3-13.4,2.1-17.4,7.4c-0.9,1.4-1.9,2.7-3,4c-3.2,3-8.1,2.6-12.4,1.9c1.9,1.6,3.9,3.3,5.8,4.9
	c-2.3,0.6-4.7,1.2-7,1.8c2.7,1.6,5.4,3.3,8.2,4.9c-7.9,4.7-11.5,15.1-10.5,24.5c0.9,8.9,5.2,17,10.3,24.2c2-4.3,1.6-9.5,1.6-14.4
	c0-1.6,0.1-3.2,0.3-4.7c17.3,4.2,35.5,6.8,53.8,0.2l3.7-9c0.5,0.1,1,0.1,1.6,0.2l2.1,8.9c4.8,2,9.7,3.7,14.6,1.9
	c0.2,1.4,0.4,2.8,0.5,4.1c0.4-1.6,0.8-3.2,1.1-4.9c0.6-0.3,1.3-0.7,1.8-1.2C157.7,335.4,157.5,332.7,157.1,330.1z"/>
<g>
	<g id="Layer_1-2">
		<path class="st7" d="M104.6,188.6c0.1,0.1,0.1,0.3,0.2,0.4c0,0.1,0,0.3,0.1,0.8l0.1,0.4l0,0.3c0,0.1,0.1,0.3,0.1,0.4
			c0,0-0.1,0-0.1,0c-0.1,0.1-0.1,0.1-0.1,0.2c0,0.1,0,0.2,0.1,0.3c0.2,0,0.2,0.1,0.3,0.1c0,0.1,0,0.2,0.1,0.3c0,0.1,0,0.2,0,0.3
			l0.2,0c0,0.5,0.1,1,0.3,1.5c-0.2,0.2-0.3,0.4-0.3,0.4c0,0.1,0,0.1,0.1,0.2c0.1,0.1,0.1,0.1,0.1,0.1l0.1,0c0,0,0,0,0.1,0.1
			c0.1,0.1,0.1,0.2,0.1,0.3c0,0.2-0.1,0.3-0.2,0.4l0,0.3c0,0,0,0,0,0c0.1,0,0.2,0,0.3,0.1c0,0.1,0.1,0.3,0.2,0.4
			c0,0.1,0.1,0.2,0.1,0.3l0.5,1.8c0.1,0.3,0.1,0.5,0.1,0.5c0,0,0,0.1-0.1,0.3c0.2,0.1,0.3,0.3,0.4,0.4l0.1,0.2l0.1,0.4l0.1,0.4
			l-0.8,0.3c0.3,0.2,0.6,0.4,0.9,0.6l0.3,0c0.1,0.3,0.1,0.5,0.1,0.7c0.1,0.4,0.2,0.7,0.4,1c0.1,0.4,0.1,0.6,0.1,0.8h0.2l0.2,0.4h0
			c0.1-0.2,0.1-0.3,0.1-0.4c0.1-0.2,0.1-0.4,0.1-0.6c0-0.1,0-0.3,0.1-0.4l0.4-1.3c0-0.1,0-0.2,0.1-0.2c0-0.1,0-0.3,0.1-0.4l0.3-0.6
			l0.1-0.3l0.1-0.3c0.2-0.7,0.3-1.1,0.3-1.2c0.1-0.1,0.1-0.2,0.2-0.2c0-0.1,0-0.2,0-0.2c0-0.1,0.1-0.5,0.3-1.4c0-0.2,0.2-0.6,0.4-1
			c0-0.3,0.1-0.6,0.2-0.9c0.3-0.9,0.5-1.5,0.5-1.9c0-0.1,0-0.2-0.1-0.3l0.7-0.5l0.2-0.3c0.2-0.1,0.3-0.2,0.5-0.3c0,0,0-0.1-0.1-0.1
			c-0.4-0.1-0.7-0.2-1.1-0.3l0.4-0.6c-0.1-0.1-0.2-0.2-0.2-0.3c0-0.2,0.1-0.3,0.1-0.5c0.1-0.1,0.1-0.2,0.3-0.3l0.3-0.2
			c0.3-0.3,0.5-0.4,0.5-0.4c0,0,0.1,0,0.1,0h0.1l0.4,0.4c-0.6,0.2-1,0.5-1,0.6c0,0.1,0.1,0.2,0.4,0.5c0.2,0.2,0.3,0.4,0.5,0.6
			l0.4,0.4c0,0-0.1,0.1-0.2,0.3c0,0.2,0.1,0.4,0.2,0.5c0.2,0.2,0.3,0.4,0.3,0.4c0,0.1,0.1,0.2,0.1,0.3c0,0.1,0.1,0.4,0.3,1
			c0.1,0.5,0.1,0.8,0.1,0.9c0.1,0.1,0.1,0.2,0.2,0.3l0,0c-0.3,0.1-0.5,0.1-0.5,0.2l0.1,0.1c0.1,0.2,0.1,0.3,0.1,0.5l0.5,0.6l0.2,0.5
			c0.1,0.1,0.2,0.2,0.2,0.3v0h-0.1l-0.1,0.1c0,0.1,0,0.2,0,0.3c0,0.2,0.1,0.3,0.2,0.5h0.2c0.2,0.4,0.3,0.7,0.4,1.1l0.2,0.5l0,0.4
			c0.1,0.1,0.2,0.3,0.2,0.4c0.1,0.2,0.1,0.4,0.2,0.6c0,0.1,0,0.1,0,0.2c0,0.1-0.1,0.2-0.1,0.3c0,0.1,0.1,0.2,0.2,0.3
			c0,0,0.1,0.1,0.1,0.1c0.1,0,0.1,0,0.2,0c0,0.2,0.1,0.4,0.2,0.8c0.1,0.2,0.2,0.3,0.2,0.5c0.1-0.1,0.1-0.1,0.2-0.2
			c0.1-0.1,0.2-0.2,0.2-0.4c0-0.1,0-0.2-0.1-0.3c0.1,0,0.1-0.1,0.2-0.1c0.1-0.3,0.2-0.5,0.2-0.8l0-0.2l0.1-0.3l0.1-0.4l0.1-0.2
			l0.1-0.4l0.2-0.7l0.2-1c0.1-0.4,0.2-0.7,0.3-0.8c0.1-0.1,0.1-0.3,0.2-0.4c0-0.2,0.1-0.7,0.4-1.5c0.1-0.4,0.1-0.7,0.3-1.1
			c0.1-0.1,0.1-0.2,0.1-0.4c0,0,0-0.2-0.1-0.5l0.2-0.6c0-0.3,0.1-0.5,0.1-0.8c0.1,0,0.1,0,0.2,0c0.1,0,0.2,0,0.2-0.1
			c0-0.1-0.1-0.2-0.3-0.3c0-0.2,0.1-0.5,0.1-0.7v-0.5l0.1-0.3c0-0.2,0-0.4,0.1-0.6c0.2-0.5,0.5-0.7,0.9-0.8c0.1-0.2,0.2-0.3,0.3-0.3
			c0,0,0.1,0,0.3-0.1c0,0.1,0,0.1,0,0.2c0,0.1,0,0.1,0,0.2c0,0.2-0.1,0.4-0.1,0.6l-0.1,0.3c0,0.2,0,0.4-0.1,0.6
			c-0.1,0.2-0.1,0.3-0.2,0.4c0,0.1,0,0.2,0,0.3c0,0.1,0,0.2-0.1,0.3c0,0,0,0.1,0,0.1c0,0.1,0,0.1,0,0.2c-0.1,0.1-0.1,0.2-0.1,0.3
			c0,0,0,0.1,0,0.1c-0.1,0-0.2,0.1-0.2,0.1l0,0.4v0c0,0.1-0.1,0.3-0.1,0.4c-0.1,0-0.2,0-0.3,0.1c-0.1,0-0.1,0.1-0.1,0.1l0,0.1l0,0.2
			c0.1,0.1,0.1,0.2,0.2,0.3c0,0-0.1,0.1-0.2,0.3c0,0.1-0.1,0.2-0.1,0.3c-0.2,0.6-0.3,0.9-0.3,1c0,0.2-0.1,0.5-0.2,0.7
			c0,0.1-0.1,0.3-0.2,0.4v0.2c0,0.1,0,0.2,0,0.3c0,0.1,0,0.2,0,0.3c-0.1,0.1-0.1,0.2-0.2,0.2v0.2l-0.3,1.3c-0.1,0.5-0.2,0.8-0.2,0.9
			c-0.1,0.2-0.1,0.4-0.2,0.7c-0.2,0.1-0.3,0.2-0.3,0.3c0,0.1,0.1,0.2,0.2,0.3c0,0.2-0.1,0.4-0.1,0.5l0.1,0.5l-0.1,0.1
			c-0.1,0.3-0.2,0.7-0.3,1l-0.1,0.6l-0.1,0.6c0,0.1,0,0.1,0.1,0.2c-0.1,0.1-0.2,0.2-0.2,0.2c0,0-0.1,0.1-0.1,0.3
			c0.1,0.2,0.2,0.3,0.2,0.3c0,0,0,0.2-0.1,0.4c0,0.3,0,0.4,0,0.4c0,0.1,0,0.2,0,0.4v0.3c-0.1,0.1-0.2,0.1-0.2,0.1
			c-0.2,0.1-0.3,0.2-0.5,0.3h-0.1c-0.1-0.1-0.1-0.3-0.2-0.4l-0.3-0.6l-0.1-0.2c-0.1-0.2-0.2-0.4-0.3-0.6c0-0.1,0-0.2,0-0.2
			c0-0.1-0.1-0.3-0.1-0.4c0-0.1,0.1-0.2,0.1-0.3l0,0l-0.1,0c-0.1-0.1-0.1-0.2-0.2-0.3c-0.1-0.1-0.2-0.5-0.3-1.3
			c0-0.4-0.1-0.7-0.1-1.1c-0.1,0-0.2-0.1-0.2-0.1c0-0.1-0.1-0.3-0.2-0.8l-0.3-0.9l-0.1-0.5c0,0-0.1-0.3-0.3-0.9
			c-0.1-0.2-0.1-0.4-0.1-0.5c0-0.1,0-0.2-0.1-0.3c0.1-0.1,0.2-0.2,0.2-0.3c0-0.1,0-0.1-0.1-0.1c0,0.1-0.1,0.1-0.2,0.1
			c-0.1,0-0.1-0.1-0.2-0.2c-0.2-0.5-0.3-0.9-0.4-1.4c0.1-0.1,0.2-0.1,0.2-0.2c0-0.1-0.1-0.1-0.1-0.2c0,0,0,0,0,0
			c0-0.1,0-0.2,0.1-0.2c-0.2,0-0.3,0.1-0.5,0.1c-0.1-0.1-0.1-0.3-0.2-0.4c-0.1-0.2-0.2-0.6-0.4-1.3c-0.1-0.1-0.1-0.2-0.1-0.3
			l-0.1-0.3l-0.1-0.3c0-0.1-0.1-0.2-0.2-0.2c-0.1,0.1-0.2,0.2-0.2,0.4c0,0-0.1,0.3-0.1,0.8l-0.1,0.3l0,0.3l-0.1,0.2l-0.1,0.4
			l-0.2,0.4l-0.2,0.7c-0.2,0.3-0.2,0.5-0.2,0.6c0,0.3-0.1,0.6-0.1,0.9l-0.4,1.3l-0.3,1.3c-0.1,0.5-0.2,0.8-0.2,0.8
			c-0.1,0.1-0.1,0.2-0.2,0.3c-0.1,0.3-0.1,0.5-0.2,0.8l0.2,0.1c-0.2,0.4-0.3,0.9-0.4,1.4l-0.2,0.6l0,0.3l-0.1,0.3l0,0.2l-0.1,0.4
			l0,0.2c0,0.1-0.1,0.2-0.1,0.4c0,0.1,0,0.2,0.1,0.3c0.2,0.3,0.2,0.5,0.2,0.6c0,0-0.1,0.2-0.3,0.4c-0.1,0.1-0.1,0.3-0.2,0.4
			c-0.2,0.1-0.3,0.1-0.5,0.2c-0.1,0.1-0.2,0.1-0.4,0.1c-0.1,0-0.2-0.1-0.2-0.1c-0.1-0.4-0.1-0.9-0.1-1.3c0-0.1-0.1-0.3-0.2-0.7
			l-0.2-0.1c0-0.2-0.2-0.5-0.4-1.1c0-0.1,0-0.2,0-0.3c0-0.2,0.1-0.4,0.2-0.6c-0.1,0-0.1,0-0.2-0.1c-0.1,0-0.1-0.1-0.2-0.1
			c0,0-0.1,0-0.1,0c-0.1-0.1-0.1-0.2-0.1-0.3c0-0.2,0-0.3-0.1-0.5c0-0.1,0-0.2,0-0.2c0-0.1,0.1-0.2,0.1-0.3l-0.2-0.1
			c0-0.2-0.1-0.3-0.2-0.5c0,0-0.1-0.3-0.2-0.7c0-0.2-0.1-0.4-0.2-0.6c0-0.1-0.1-0.2-0.1-0.2c0-0.1,0-0.1,0.1-0.2
			c0-0.1,0-0.1,0.1-0.2c-0.1-0.1-0.2-0.2-0.3-0.2c0-0.2,0-0.4-0.1-0.5l-0.2-0.4c0-0.1,0-0.1,0-0.2l0.2-0.1c0-0.1,0.1-0.2,0.1-0.4
			c0-0.1,0-0.2-0.1-0.3c0,0-0.1,0.1-0.1,0.1c-0.1,0-0.1,0-0.1-0.1h-0.2c0-0.1-0.1-0.4-0.2-0.9l-0.2-1l0-0.4c0-0.3-0.1-0.4-0.4-0.5
			c0-0.2-0.1-0.4-0.2-0.7l-0.4-1.1c0,0,0-0.1,0-0.3l0.1-0.1c-0.1-0.3-0.3-0.6-0.4-0.9l-0.1,0c-0.1-0.3-0.2-0.7-0.3-1.1
			c-0.3-0.6-0.4-0.9-0.4-0.9c0-0.1,0-0.1,0.1-0.2c0,0,0.1,0,0.2-0.1c0.1-0.1,0.1-0.2,0.2-0.3c0,0,0.1-0.1,0.3-0.2l0.2-0.1
			c0.1-0.1,0.3-0.2,0.4-0.3l0.2,0C104.5,188.8,104.5,188.8,104.6,188.6z"/>
	</g>
</g>
<g>
	<g id="Layer_1-2_1_">
		<path class="st7" d="M108.8,452.8c0.1,0.1,0.1,0.3,0.2,0.4c0,0.1,0,0.3,0.1,0.8l0.1,0.4l0,0.3c0,0.1,0.1,0.3,0.1,0.4
			c0,0-0.1,0-0.1,0c-0.1,0.1-0.1,0.1-0.1,0.2c0,0.1,0,0.2,0.1,0.3c0.2,0,0.2,0.1,0.3,0.1c0,0.1,0,0.2,0.1,0.3c0,0.1,0,0.2,0,0.3
			l0.2,0c0,0.5,0.1,1,0.3,1.5c-0.2,0.2-0.3,0.4-0.3,0.4c0,0.1,0,0.1,0.1,0.2c0.1,0.1,0.1,0.1,0.1,0.1l0.1,0c0,0,0,0,0.1,0.1
			c0.1,0.1,0.1,0.2,0.1,0.3c0,0.2-0.1,0.3-0.2,0.4l0,0.3c0,0,0,0,0,0c0.1,0,0.2,0,0.3,0.1c0,0.1,0.1,0.3,0.2,0.4
			c0,0.1,0.1,0.2,0.1,0.3l0.5,1.8c0.1,0.3,0.1,0.5,0.1,0.5c0,0,0,0.1-0.1,0.3c0.2,0.1,0.3,0.3,0.4,0.4l0.1,0.2l0.1,0.4l0.1,0.4
			l-0.8,0.3c0.3,0.2,0.6,0.4,0.9,0.6l0.3,0c0.1,0.3,0.1,0.5,0.1,0.7c0.1,0.4,0.2,0.7,0.4,1c0.1,0.4,0.1,0.6,0.1,0.8h0.2l0.2,0.4h0
			c0.1-0.2,0.1-0.3,0.1-0.4c0.1-0.2,0.1-0.4,0.1-0.6c0-0.1,0-0.3,0.1-0.4l0.4-1.3c0-0.1,0-0.2,0.1-0.2c0-0.1,0-0.3,0.1-0.4l0.3-0.6
			l0.1-0.3l0.1-0.3c0.2-0.7,0.3-1.1,0.3-1.2c0.1-0.1,0.1-0.2,0.2-0.2c0-0.1,0-0.2,0-0.2c0-0.1,0.1-0.5,0.3-1.4c0-0.2,0.2-0.6,0.4-1
			c0-0.3,0.1-0.6,0.2-0.9c0.3-0.9,0.5-1.5,0.5-1.9c0-0.1,0-0.2-0.1-0.3l0.7-0.5l0.2-0.3c0.2-0.1,0.3-0.2,0.5-0.3c0,0,0-0.1-0.1-0.1
			c-0.4-0.1-0.7-0.2-1.1-0.3l0.4-0.6c-0.1-0.1-0.2-0.2-0.2-0.3c0-0.2,0.1-0.3,0.1-0.5c0.1-0.1,0.1-0.2,0.3-0.3l0.3-0.2
			c0.3-0.3,0.5-0.4,0.5-0.4c0,0,0.1,0,0.1,0h0.1l0.4,0.4c-0.6,0.2-1,0.5-1,0.6c0,0.1,0.1,0.2,0.4,0.5c0.2,0.2,0.3,0.4,0.5,0.6
			l0.4,0.4c0,0-0.1,0.1-0.2,0.3c0,0.2,0.1,0.4,0.2,0.5c0.2,0.2,0.3,0.4,0.3,0.4c0,0.1,0.1,0.2,0.1,0.3c0,0.1,0.1,0.4,0.3,1
			c0.1,0.5,0.1,0.8,0.1,0.9c0.1,0.1,0.1,0.2,0.2,0.3l0,0c-0.3,0.1-0.5,0.1-0.5,0.2l0.1,0.1c0.1,0.2,0.1,0.3,0.1,0.5l0.5,0.6l0.2,0.5
			c0.1,0.1,0.2,0.2,0.2,0.3v0h-0.1l-0.1,0.1c0,0.1,0,0.2,0,0.3c0,0.2,0.1,0.3,0.2,0.5h0.2c0.2,0.4,0.3,0.7,0.4,1.1l0.2,0.5l0,0.4
			c0.1,0.1,0.2,0.3,0.2,0.4c0.1,0.2,0.1,0.4,0.2,0.6c0,0.1,0,0.1,0,0.2c0,0.1-0.1,0.2-0.1,0.3c0,0.1,0.1,0.2,0.2,0.3
			c0,0,0.1,0.1,0.1,0.1c0.1,0,0.1,0,0.2,0c0,0.2,0.1,0.4,0.2,0.8c0.1,0.2,0.2,0.3,0.2,0.5c0.1-0.1,0.1-0.1,0.2-0.2
			c0.1-0.1,0.2-0.2,0.2-0.4c0-0.1,0-0.2-0.1-0.3c0.1,0,0.1-0.1,0.2-0.1c0.1-0.3,0.2-0.5,0.2-0.8l0-0.2l0.1-0.3l0.1-0.4l0.1-0.2
			l0.1-0.4l0.2-0.7l0.2-1c0.1-0.4,0.2-0.7,0.3-0.8c0.1-0.1,0.1-0.3,0.2-0.4c0-0.2,0.1-0.7,0.4-1.5c0.1-0.4,0.1-0.7,0.3-1.1
			c0.1-0.1,0.1-0.2,0.1-0.4c0,0,0-0.2-0.1-0.5l0.2-0.6c0-0.3,0.1-0.5,0.1-0.8c0.1,0,0.1,0,0.2,0c0.1,0,0.2,0,0.2-0.1
			c0-0.1-0.1-0.2-0.3-0.3c0-0.2,0.1-0.5,0.1-0.7v-0.5l0.1-0.3c0-0.2,0-0.4,0.1-0.6c0.2-0.5,0.5-0.7,0.9-0.8c0.1-0.2,0.2-0.3,0.3-0.3
			c0,0,0.1,0,0.3-0.1c0,0.1,0,0.1,0,0.2c0,0.1,0,0.1,0,0.2c0,0.2-0.1,0.4-0.1,0.6l-0.1,0.3c0,0.2,0,0.4-0.1,0.6
			c-0.1,0.2-0.1,0.3-0.2,0.4c0,0.1,0,0.2,0,0.3c0,0.1,0,0.2-0.1,0.3c0,0,0,0.1,0,0.1c0,0.1,0,0.1,0,0.2c-0.1,0.1-0.1,0.2-0.1,0.3
			c0,0,0,0.1,0,0.1c-0.1,0-0.2,0.1-0.2,0.1l0,0.4v0c0,0.1-0.1,0.3-0.1,0.4c-0.1,0-0.2,0-0.3,0.1c-0.1,0-0.1,0.1-0.1,0.1l0,0.1l0,0.2
			c0.1,0.1,0.1,0.2,0.2,0.3c0,0-0.1,0.1-0.2,0.3c0,0.1-0.1,0.2-0.1,0.3c-0.2,0.6-0.3,0.9-0.3,1c0,0.2-0.1,0.5-0.2,0.7
			c0,0.1-0.1,0.3-0.2,0.4v0.2c0,0.1,0,0.2,0,0.3c0,0.1,0,0.2,0,0.3c-0.1,0.1-0.1,0.2-0.2,0.2v0.2l-0.3,1.3c-0.1,0.5-0.2,0.8-0.2,0.9
			c-0.1,0.2-0.1,0.4-0.2,0.7c-0.2,0.1-0.3,0.2-0.3,0.3c0,0.1,0.1,0.2,0.2,0.3c0,0.2-0.1,0.4-0.1,0.5l0.1,0.5l-0.1,0.1
			c-0.1,0.3-0.2,0.7-0.3,1l-0.1,0.6l-0.1,0.6c0,0.1,0,0.1,0.1,0.2c-0.1,0.1-0.2,0.2-0.2,0.2c0,0-0.1,0.1-0.1,0.3
			c0.1,0.2,0.2,0.3,0.2,0.3c0,0,0,0.2-0.1,0.4c0,0.3,0,0.4,0,0.4c0,0.1,0,0.2,0,0.4v0.3c-0.1,0.1-0.2,0.1-0.2,0.1
			c-0.2,0.1-0.3,0.2-0.5,0.3h-0.1c-0.1-0.1-0.1-0.3-0.2-0.4l-0.3-0.6l-0.1-0.2c-0.1-0.2-0.2-0.4-0.3-0.6c0-0.1,0-0.2,0-0.2
			c0-0.1-0.1-0.3-0.1-0.4c0-0.1,0.1-0.2,0.1-0.3l0,0l-0.1,0c-0.1-0.1-0.1-0.2-0.2-0.3c-0.1-0.1-0.2-0.5-0.3-1.3
			c0-0.4-0.1-0.7-0.1-1.1c-0.1,0-0.2-0.1-0.2-0.1c0-0.1-0.1-0.3-0.2-0.8l-0.3-0.9l-0.1-0.5c0,0-0.1-0.3-0.3-0.9
			c-0.1-0.2-0.1-0.4-0.1-0.5c0-0.1,0-0.2-0.1-0.3c0.1-0.1,0.2-0.2,0.2-0.3c0-0.1,0-0.1-0.1-0.1c0,0.1-0.1,0.1-0.2,0.1
			c-0.1,0-0.1-0.1-0.2-0.2c-0.2-0.5-0.3-0.9-0.4-1.4c0.1-0.1,0.2-0.1,0.2-0.2c0-0.1-0.1-0.1-0.1-0.2c0,0,0,0,0,0
			c0-0.1,0-0.2,0.1-0.2c-0.2,0-0.3,0.1-0.5,0.1c-0.1-0.1-0.1-0.3-0.2-0.4c-0.1-0.2-0.2-0.6-0.4-1.3c-0.1-0.1-0.1-0.2-0.1-0.3
			l-0.1-0.3l-0.1-0.3c0-0.1-0.1-0.2-0.2-0.2c-0.1,0.1-0.2,0.2-0.2,0.4c0,0-0.1,0.3-0.1,0.8l-0.1,0.3l0,0.3l-0.1,0.2l-0.1,0.4
			l-0.2,0.4l-0.2,0.7c-0.2,0.3-0.2,0.5-0.2,0.6c0,0.3-0.1,0.6-0.1,0.9l-0.4,1.3l-0.3,1.3c-0.1,0.5-0.2,0.8-0.2,0.8
			c-0.1,0.1-0.1,0.2-0.2,0.3c-0.1,0.3-0.1,0.5-0.2,0.8l0.2,0.1c-0.2,0.4-0.3,0.9-0.4,1.4l-0.2,0.6l0,0.3l-0.1,0.3l0,0.2l-0.1,0.4
			l0,0.2c0,0.1-0.1,0.2-0.1,0.4c0,0.1,0,0.2,0.1,0.3c0.2,0.3,0.2,0.5,0.2,0.6c0,0-0.1,0.2-0.3,0.4c-0.1,0.1-0.1,0.3-0.2,0.4
			c-0.2,0.1-0.3,0.1-0.5,0.2c-0.1,0.1-0.2,0.1-0.4,0.1c-0.1,0-0.2-0.1-0.2-0.1c-0.1-0.4-0.1-0.9-0.1-1.3c0-0.1-0.1-0.3-0.2-0.7
			l-0.2-0.1c0-0.2-0.2-0.5-0.4-1.1c0-0.1,0-0.2,0-0.3c0-0.2,0.1-0.4,0.2-0.6c-0.1,0-0.1,0-0.2-0.1c-0.1,0-0.1-0.1-0.2-0.1
			c0,0-0.1,0-0.1,0c-0.1-0.1-0.1-0.2-0.1-0.3c0-0.2,0-0.3-0.1-0.5c0-0.1,0-0.2,0-0.2c0-0.1,0.1-0.2,0.1-0.3l-0.2-0.1
			c0-0.2-0.1-0.3-0.2-0.5c0,0-0.1-0.3-0.2-0.7c0-0.2-0.1-0.4-0.2-0.6c0-0.1-0.1-0.2-0.1-0.2c0-0.1,0-0.1,0.1-0.2
			c0-0.1,0-0.1,0.1-0.2c-0.1-0.1-0.2-0.2-0.3-0.2c0-0.2,0-0.4-0.1-0.5l-0.2-0.4c0-0.1,0-0.1,0-0.2l0.2-0.1c0-0.1,0.1-0.2,0.1-0.4
			c0-0.1,0-0.2-0.1-0.3c0,0-0.1,0.1-0.1,0.1c-0.1,0-0.1,0-0.1-0.1h-0.2c0-0.1-0.1-0.4-0.2-0.9l-0.2-1l0-0.4c0-0.3-0.1-0.4-0.4-0.5
			c0-0.2-0.1-0.4-0.2-0.7l-0.4-1.1c0,0,0-0.1,0-0.3l0.1-0.1c-0.1-0.3-0.3-0.6-0.4-0.9l-0.1,0c-0.1-0.3-0.2-0.7-0.3-1.1
			c-0.3-0.6-0.4-0.9-0.4-0.9c0-0.1,0-0.1,0.1-0.2c0,0,0.1,0,0.2-0.1c0.1-0.1,0.1-0.2,0.2-0.3c0,0,0.1-0.1,0.3-0.2l0.2-0.1
			c0.1-0.1,0.3-0.2,0.4-0.3l0.2,0C108.6,453,108.7,452.9,108.8,452.8z"/>
	</g>
</g>
<g>
	<g id="Layer_1-2_2_">
		<path class="st7" d="M108.8,730.5c0.1,0.1,0.1,0.3,0.2,0.4c0,0.1,0,0.3,0.1,0.8l0.1,0.4l0,0.3c0,0.1,0.1,0.3,0.1,0.4
			c0,0-0.1,0-0.1,0c-0.1,0.1-0.1,0.1-0.1,0.2c0,0.1,0,0.2,0.1,0.3c0.2,0,0.2,0.1,0.3,0.1c0,0.1,0,0.2,0.1,0.3c0,0.1,0,0.2,0,0.3
			l0.2,0c0,0.5,0.1,1,0.3,1.5c-0.2,0.2-0.3,0.4-0.3,0.4c0,0.1,0,0.1,0.1,0.2c0.1,0.1,0.1,0.1,0.1,0.1l0.1,0c0,0,0,0,0.1,0.1
			c0.1,0.1,0.1,0.2,0.1,0.3c0,0.2-0.1,0.3-0.2,0.4l0,0.3c0,0,0,0,0,0c0.1,0,0.2,0,0.3,0.1c0,0.1,0.1,0.3,0.2,0.4
			c0,0.1,0.1,0.2,0.1,0.3l0.5,1.8c0.1,0.3,0.1,0.5,0.1,0.5c0,0,0,0.1-0.1,0.3c0.2,0.1,0.3,0.3,0.4,0.4l0.1,0.2l0.1,0.4l0.1,0.4
			l-0.8,0.3c0.3,0.2,0.6,0.4,0.9,0.6l0.3,0c0.1,0.3,0.1,0.5,0.1,0.7c0.1,0.4,0.2,0.7,0.4,1c0.1,0.4,0.1,0.6,0.1,0.8h0.2l0.2,0.4h0
			c0.1-0.2,0.1-0.3,0.1-0.4c0.1-0.2,0.1-0.4,0.1-0.6c0-0.1,0-0.3,0.1-0.4l0.4-1.3c0-0.1,0-0.2,0.1-0.2c0-0.1,0-0.3,0.1-0.4l0.3-0.6
			l0.1-0.3l0.1-0.3c0.2-0.7,0.3-1.1,0.3-1.2c0.1-0.1,0.1-0.2,0.2-0.2c0-0.1,0-0.2,0-0.2c0-0.1,0.1-0.5,0.3-1.4c0-0.2,0.2-0.6,0.4-1
			c0-0.3,0.1-0.6,0.2-0.9c0.3-0.9,0.5-1.5,0.5-1.9c0-0.1,0-0.2-0.1-0.3l0.7-0.5l0.2-0.3c0.2-0.1,0.3-0.2,0.5-0.3c0,0,0-0.1-0.1-0.1
			c-0.4-0.1-0.7-0.2-1.1-0.3l0.4-0.6c-0.1-0.1-0.2-0.2-0.2-0.3c0-0.2,0.1-0.3,0.1-0.5c0.1-0.1,0.1-0.2,0.3-0.3l0.3-0.2
			c0.3-0.3,0.5-0.4,0.5-0.4c0,0,0.1,0,0.1,0h0.1l0.4,0.4c-0.6,0.2-1,0.5-1,0.6c0,0.1,0.1,0.2,0.4,0.5c0.2,0.2,0.3,0.4,0.5,0.6
			l0.4,0.4c0,0-0.1,0.1-0.2,0.3c0,0.2,0.1,0.4,0.2,0.5c0.2,0.2,0.3,0.4,0.3,0.4c0,0.1,0.1,0.2,0.1,0.3c0,0.1,0.1,0.4,0.3,1
			c0.1,0.5,0.1,0.8,0.1,0.9c0.1,0.1,0.1,0.2,0.2,0.3l0,0c-0.3,0.1-0.5,0.1-0.5,0.2l0.1,0.1c0.1,0.2,0.1,0.3,0.1,0.5l0.5,0.6l0.2,0.5
			c0.1,0.1,0.2,0.2,0.2,0.3v0h-0.1l-0.1,0.1c0,0.1,0,0.2,0,0.3c0,0.2,0.1,0.3,0.2,0.5h0.2c0.2,0.4,0.3,0.7,0.4,1.1l0.2,0.5l0,0.4
			c0.1,0.1,0.2,0.3,0.2,0.4c0.1,0.2,0.1,0.4,0.2,0.6c0,0.1,0,0.1,0,0.2c0,0.1-0.1,0.2-0.1,0.3c0,0.1,0.1,0.2,0.2,0.3
			c0,0,0.1,0.1,0.1,0.1c0.1,0,0.1,0,0.2,0c0,0.2,0.1,0.4,0.2,0.8c0.1,0.2,0.2,0.3,0.2,0.5c0.1-0.1,0.1-0.1,0.2-0.2
			c0.1-0.1,0.2-0.2,0.2-0.4c0-0.1,0-0.2-0.1-0.3c0.1,0,0.1-0.1,0.2-0.1c0.1-0.3,0.2-0.5,0.2-0.8l0-0.2l0.1-0.3l0.1-0.4l0.1-0.2
			l0.1-0.4l0.2-0.7l0.2-1c0.1-0.4,0.2-0.7,0.3-0.8c0.1-0.1,0.1-0.3,0.2-0.4c0-0.2,0.1-0.7,0.4-1.5c0.1-0.4,0.1-0.7,0.3-1.1
			c0.1-0.1,0.1-0.2,0.1-0.4c0,0,0-0.2-0.1-0.5l0.2-0.6c0-0.3,0.1-0.5,0.1-0.8c0.1,0,0.1,0,0.2,0c0.1,0,0.2,0,0.2-0.1
			c0-0.1-0.1-0.2-0.3-0.3c0-0.2,0.1-0.5,0.1-0.7v-0.5l0.1-0.3c0-0.2,0-0.4,0.1-0.6c0.2-0.5,0.5-0.7,0.9-0.8c0.1-0.2,0.2-0.3,0.3-0.3
			c0,0,0.1,0,0.3-0.1c0,0.1,0,0.1,0,0.2c0,0.1,0,0.1,0,0.2c0,0.2-0.1,0.4-0.1,0.6l-0.1,0.3c0,0.2,0,0.4-0.1,0.6
			c-0.1,0.2-0.1,0.3-0.2,0.4c0,0.1,0,0.2,0,0.3c0,0.1,0,0.2-0.1,0.3c0,0,0,0.1,0,0.1c0,0.1,0,0.1,0,0.2c-0.1,0.1-0.1,0.2-0.1,0.3
			c0,0,0,0.1,0,0.1c-0.1,0-0.2,0.1-0.2,0.1l0,0.4v0c0,0.1-0.1,0.3-0.1,0.4c-0.1,0-0.2,0-0.3,0.1c-0.1,0-0.1,0.1-0.1,0.1l0,0.1l0,0.2
			c0.1,0.1,0.1,0.2,0.2,0.3c0,0-0.1,0.1-0.2,0.3c0,0.1-0.1,0.2-0.1,0.3c-0.2,0.6-0.3,0.9-0.3,1c0,0.2-0.1,0.5-0.2,0.7
			c0,0.1-0.1,0.3-0.2,0.4v0.2c0,0.1,0,0.2,0,0.3c0,0.1,0,0.2,0,0.3c-0.1,0.1-0.1,0.2-0.2,0.2v0.2l-0.3,1.3c-0.1,0.5-0.2,0.8-0.2,0.9
			c-0.1,0.2-0.1,0.4-0.2,0.7c-0.2,0.1-0.3,0.2-0.3,0.3c0,0.1,0.1,0.2,0.2,0.3c0,0.2-0.1,0.4-0.1,0.5l0.1,0.5l-0.1,0.1
			c-0.1,0.3-0.2,0.7-0.3,1l-0.1,0.6l-0.1,0.6c0,0.1,0,0.1,0.1,0.2c-0.1,0.1-0.2,0.2-0.2,0.2c0,0-0.1,0.1-0.1,0.3
			c0.1,0.2,0.2,0.3,0.2,0.3c0,0,0,0.2-0.1,0.4c0,0.3,0,0.4,0,0.4c0,0.1,0,0.2,0,0.4v0.3c-0.1,0.1-0.2,0.1-0.2,0.1
			c-0.2,0.1-0.3,0.2-0.5,0.3h-0.1c-0.1-0.1-0.1-0.3-0.2-0.4l-0.3-0.6L122,748c-0.1-0.2-0.2-0.4-0.3-0.6c0-0.1,0-0.2,0-0.2
			c0-0.1-0.1-0.3-0.1-0.4c0-0.1,0.1-0.2,0.1-0.3l0,0l-0.1,0c-0.1-0.1-0.1-0.2-0.2-0.3c-0.1-0.1-0.2-0.5-0.3-1.3
			c0-0.4-0.1-0.7-0.1-1.1c-0.1,0-0.2-0.1-0.2-0.1c0-0.1-0.1-0.3-0.2-0.8l-0.3-0.9l-0.1-0.5c0,0-0.1-0.3-0.3-0.9
			c-0.1-0.2-0.1-0.4-0.1-0.5c0-0.1,0-0.2-0.1-0.3c0.1-0.1,0.2-0.2,0.2-0.3c0-0.1,0-0.1-0.1-0.1c0,0.1-0.1,0.1-0.2,0.1
			c-0.1,0-0.1-0.1-0.2-0.2c-0.2-0.5-0.3-0.9-0.4-1.4c0.1-0.1,0.2-0.1,0.2-0.2c0-0.1-0.1-0.1-0.1-0.2c0,0,0,0,0,0
			c0-0.1,0-0.2,0.1-0.2c-0.2,0-0.3,0.1-0.5,0.1c-0.1-0.1-0.1-0.3-0.2-0.4c-0.1-0.2-0.2-0.6-0.4-1.3c-0.1-0.1-0.1-0.2-0.1-0.3
			l-0.1-0.3l-0.1-0.3c0-0.1-0.1-0.2-0.2-0.2c-0.1,0.1-0.2,0.2-0.2,0.4c0,0-0.1,0.3-0.1,0.8l-0.1,0.3l0,0.3l-0.1,0.2l-0.1,0.4
			l-0.2,0.4l-0.2,0.7c-0.2,0.3-0.2,0.5-0.2,0.6c0,0.3-0.1,0.6-0.1,0.9l-0.4,1.3l-0.3,1.3c-0.1,0.5-0.2,0.8-0.2,0.8
			c-0.1,0.1-0.1,0.2-0.2,0.3c-0.1,0.3-0.1,0.5-0.2,0.8l0.2,0.1c-0.2,0.4-0.3,0.9-0.4,1.4l-0.2,0.6l0,0.3l-0.1,0.3l0,0.2l-0.1,0.4
			l0,0.2c0,0.1-0.1,0.2-0.1,0.4c0,0.1,0,0.2,0.1,0.3c0.2,0.3,0.2,0.5,0.2,0.6c0,0-0.1,0.2-0.3,0.4c-0.1,0.1-0.1,0.3-0.2,0.4
			c-0.2,0.1-0.3,0.1-0.5,0.2c-0.1,0.1-0.2,0.1-0.4,0.1c-0.1,0-0.2-0.1-0.2-0.1c-0.1-0.4-0.1-0.9-0.1-1.3c0-0.1-0.1-0.3-0.2-0.7
			l-0.2-0.1c0-0.2-0.2-0.5-0.4-1.1c0-0.1,0-0.2,0-0.3c0-0.2,0.1-0.4,0.2-0.6c-0.1,0-0.1,0-0.2-0.1c-0.1,0-0.1-0.1-0.2-0.1
			c0,0-0.1,0-0.1,0c-0.1-0.1-0.1-0.2-0.1-0.3c0-0.2,0-0.3-0.1-0.5c0-0.1,0-0.2,0-0.2c0-0.1,0.1-0.2,0.1-0.3l-0.2-0.1
			c0-0.2-0.1-0.3-0.2-0.5c0,0-0.1-0.3-0.2-0.7c0-0.2-0.1-0.4-0.2-0.6c0-0.1-0.1-0.2-0.1-0.2c0-0.1,0-0.1,0.1-0.2
			c0-0.1,0-0.1,0.1-0.2c-0.1-0.1-0.2-0.2-0.3-0.2c0-0.2,0-0.4-0.1-0.5l-0.2-0.4c0-0.1,0-0.1,0-0.2l0.2-0.1c0-0.1,0.1-0.2,0.1-0.4
			c0-0.1,0-0.2-0.1-0.3c0,0-0.1,0.1-0.1,0.1c-0.1,0-0.1,0-0.1-0.1h-0.2c0-0.1-0.1-0.4-0.2-0.9l-0.2-1l0-0.4c0-0.3-0.1-0.4-0.4-0.5
			c0-0.2-0.1-0.4-0.2-0.7l-0.4-1.1c0,0,0-0.1,0-0.3l0.1-0.1c-0.1-0.3-0.3-0.6-0.4-0.9l-0.1,0c-0.1-0.3-0.2-0.7-0.3-1.1
			c-0.3-0.6-0.4-0.9-0.4-0.9c0-0.1,0-0.1,0.1-0.2c0,0,0.1,0,0.2-0.1c0.1-0.1,0.1-0.2,0.2-0.3c0,0,0.1-0.1,0.3-0.2l0.2-0.1
			c0.1-0.1,0.3-0.2,0.4-0.3l0.2,0C108.6,730.7,108.7,730.6,108.8,730.5z"/>
	</g>
</g>
<g>
	<g id="Layer_1-2_3_">
		<path class="st7" d="M380.9,189.3c0.1,0.1,0.1,0.3,0.2,0.4c0,0.1,0,0.3,0.1,0.8l0.1,0.4l0,0.3c0,0.1,0.1,0.3,0.1,0.4
			c0,0-0.1,0-0.1,0c-0.1,0.1-0.1,0.1-0.1,0.2c0,0.1,0,0.2,0.1,0.3c0.2,0,0.2,0.1,0.3,0.1c0,0.1,0,0.2,0.1,0.3c0,0.1,0,0.2,0,0.3
			l0.2,0c0,0.5,0.1,1,0.3,1.5c-0.2,0.2-0.3,0.4-0.3,0.4c0,0.1,0,0.1,0.1,0.2c0.1,0.1,0.1,0.1,0.1,0.1l0.1,0c0,0,0,0,0.1,0.1
			c0.1,0.1,0.1,0.2,0.1,0.3c0,0.2-0.1,0.3-0.2,0.4l0,0.3c0,0,0,0,0,0c0.1,0,0.2,0,0.3,0.1c0,0.1,0.1,0.3,0.2,0.4
			c0,0.1,0.1,0.2,0.1,0.3l0.5,1.8c0.1,0.3,0.1,0.5,0.1,0.5c0,0,0,0.1-0.1,0.3c0.2,0.1,0.3,0.3,0.4,0.4l0.1,0.2l0.1,0.4l0.1,0.4
			l-0.8,0.3c0.3,0.2,0.6,0.4,0.9,0.6l0.3,0c0.1,0.3,0.1,0.5,0.1,0.7c0.1,0.4,0.2,0.7,0.4,1c0.1,0.4,0.1,0.6,0.1,0.8h0.2l0.2,0.4h0
			c0.1-0.2,0.1-0.3,0.1-0.4c0.1-0.2,0.1-0.4,0.1-0.6c0-0.1,0-0.3,0.1-0.4l0.4-1.3c0-0.1,0-0.2,0.1-0.2c0-0.1,0-0.3,0.1-0.4l0.3-0.6
			l0.1-0.3l0.1-0.3c0.2-0.7,0.3-1.1,0.3-1.2c0.1-0.1,0.1-0.2,0.2-0.2c0-0.1,0-0.2,0-0.2c0-0.1,0.1-0.5,0.3-1.4c0-0.2,0.2-0.6,0.4-1
			c0-0.3,0.1-0.6,0.2-0.9c0.3-0.9,0.5-1.5,0.5-1.9c0-0.1,0-0.2-0.1-0.3l0.7-0.5l0.2-0.3c0.2-0.1,0.3-0.2,0.5-0.3c0,0,0-0.1-0.1-0.1
			c-0.4-0.1-0.7-0.2-1.1-0.3l0.4-0.6c-0.1-0.1-0.2-0.2-0.2-0.3c0-0.2,0.1-0.3,0.1-0.5c0.1-0.1,0.1-0.2,0.3-0.3l0.3-0.2
			c0.3-0.3,0.5-0.4,0.5-0.4c0,0,0.1,0,0.1,0h0.1l0.4,0.4c-0.6,0.2-1,0.5-1,0.6c0,0.1,0.1,0.2,0.4,0.5c0.2,0.2,0.3,0.4,0.5,0.6
			l0.4,0.4c0,0-0.1,0.1-0.2,0.3c0,0.2,0.1,0.4,0.2,0.5c0.2,0.2,0.3,0.4,0.3,0.4c0,0.1,0.1,0.2,0.1,0.3c0,0.1,0.1,0.4,0.3,1
			c0.1,0.5,0.1,0.8,0.1,0.9c0.1,0.1,0.1,0.2,0.2,0.3l0,0c-0.3,0.1-0.5,0.1-0.5,0.2l0.1,0.1c0.1,0.2,0.1,0.3,0.1,0.5l0.5,0.6l0.2,0.5
			c0.1,0.1,0.2,0.2,0.2,0.3v0h-0.1l-0.1,0.1c0,0.1,0,0.2,0,0.3c0,0.2,0.1,0.3,0.2,0.5h0.2c0.2,0.4,0.3,0.7,0.4,1.1l0.2,0.5l0,0.4
			c0.1,0.1,0.2,0.3,0.2,0.4c0.1,0.2,0.1,0.4,0.2,0.6c0,0.1,0,0.1,0,0.2c0,0.1-0.1,0.2-0.1,0.3c0,0.1,0.1,0.2,0.2,0.3
			c0,0,0.1,0.1,0.1,0.1c0.1,0,0.1,0,0.2,0c0,0.2,0.1,0.4,0.2,0.8c0.1,0.2,0.2,0.3,0.2,0.5c0.1-0.1,0.1-0.1,0.2-0.2
			c0.1-0.1,0.2-0.2,0.2-0.4c0-0.1,0-0.2-0.1-0.3c0.1,0,0.1-0.1,0.2-0.1c0.1-0.3,0.2-0.5,0.2-0.8l0-0.2l0.1-0.3l0.1-0.4l0.1-0.2
			l0.1-0.4l0.2-0.7l0.2-1c0.1-0.4,0.2-0.7,0.3-0.8c0.1-0.1,0.1-0.3,0.2-0.4c0-0.2,0.1-0.7,0.4-1.5c0.1-0.4,0.1-0.7,0.3-1.1
			c0.1-0.1,0.1-0.2,0.1-0.4c0,0,0-0.2-0.1-0.5l0.2-0.6c0-0.3,0.1-0.5,0.1-0.8c0.1,0,0.1,0,0.2,0c0.1,0,0.2,0,0.2-0.1
			c0-0.1-0.1-0.2-0.3-0.3c0-0.2,0.1-0.5,0.1-0.7v-0.5l0.1-0.3c0-0.2,0-0.4,0.1-0.6c0.2-0.5,0.5-0.7,0.9-0.8c0.1-0.2,0.2-0.3,0.3-0.3
			c0,0,0.1,0,0.3-0.1c0,0.1,0,0.1,0,0.2c0,0.1,0,0.1,0,0.2c0,0.2-0.1,0.4-0.1,0.6l-0.1,0.3c0,0.2,0,0.4-0.1,0.6
			c-0.1,0.2-0.1,0.3-0.2,0.4c0,0.1,0,0.2,0,0.3c0,0.1,0,0.2-0.1,0.3c0,0,0,0.1,0,0.1c0,0.1,0,0.1,0,0.2c-0.1,0.1-0.1,0.2-0.1,0.3
			c0,0,0,0.1,0,0.1c-0.1,0-0.2,0.1-0.2,0.1l0,0.4v0c0,0.1-0.1,0.3-0.1,0.4c-0.1,0-0.2,0-0.3,0.1c-0.1,0-0.1,0.1-0.1,0.1l0,0.1l0,0.2
			c0.1,0.1,0.1,0.2,0.2,0.3c0,0-0.1,0.1-0.2,0.3c0,0.1-0.1,0.2-0.1,0.3c-0.2,0.6-0.3,0.9-0.3,1c0,0.2-0.1,0.5-0.2,0.7
			c0,0.1-0.1,0.3-0.2,0.4v0.2c0,0.1,0,0.2,0,0.3c0,0.1,0,0.2,0,0.3c-0.1,0.1-0.1,0.2-0.2,0.2v0.2l-0.3,1.3c-0.1,0.5-0.2,0.8-0.2,0.9
			c-0.1,0.2-0.1,0.4-0.2,0.7c-0.2,0.1-0.3,0.2-0.3,0.3c0,0.1,0.1,0.2,0.2,0.3c0,0.2-0.1,0.4-0.1,0.5l0.1,0.5l-0.1,0.1
			c-0.1,0.3-0.2,0.7-0.3,1l-0.1,0.6l-0.1,0.6c0,0.1,0,0.1,0.1,0.2c-0.1,0.1-0.2,0.2-0.2,0.2c0,0-0.1,0.1-0.1,0.3
			c0.1,0.2,0.2,0.3,0.2,0.3c0,0,0,0.2-0.1,0.4c0,0.3,0,0.4,0,0.4c0,0.1,0,0.2,0,0.4v0.3c-0.1,0.1-0.2,0.1-0.2,0.1
			c-0.2,0.1-0.3,0.2-0.5,0.3h-0.1c-0.1-0.1-0.1-0.3-0.2-0.4l-0.3-0.6l-0.1-0.2c-0.1-0.2-0.2-0.4-0.3-0.6c0-0.1,0-0.2,0-0.2
			c0-0.1-0.1-0.3-0.1-0.4c0-0.1,0.1-0.2,0.1-0.3l0,0l-0.1,0c-0.1-0.1-0.1-0.2-0.2-0.3c-0.1-0.1-0.2-0.5-0.3-1.3
			c0-0.4-0.1-0.7-0.1-1.1c-0.1,0-0.2-0.1-0.2-0.1c0-0.1-0.1-0.3-0.2-0.8l-0.3-0.9l-0.1-0.5c0,0-0.1-0.3-0.3-0.9
			c-0.1-0.2-0.1-0.4-0.1-0.5c0-0.1,0-0.2-0.1-0.3c0.1-0.1,0.2-0.2,0.2-0.3c0-0.1,0-0.1-0.1-0.1c0,0.1-0.1,0.1-0.2,0.1
			c-0.1,0-0.1-0.1-0.2-0.2c-0.2-0.5-0.3-0.9-0.4-1.4c0.1-0.1,0.2-0.1,0.2-0.2c0-0.1-0.1-0.1-0.1-0.2c0,0,0,0,0,0
			c0-0.1,0-0.2,0.1-0.2c-0.2,0-0.3,0.1-0.5,0.1c-0.1-0.1-0.1-0.3-0.2-0.4c-0.1-0.2-0.2-0.6-0.4-1.3c-0.1-0.1-0.1-0.2-0.1-0.3
			l-0.1-0.3l-0.1-0.3c0-0.1-0.1-0.2-0.2-0.2c-0.1,0.1-0.2,0.2-0.2,0.4c0,0-0.1,0.3-0.1,0.8l-0.1,0.3l0,0.3l-0.1,0.2l-0.1,0.4
			l-0.2,0.4l-0.2,0.7c-0.2,0.3-0.2,0.5-0.2,0.6c0,0.3-0.1,0.6-0.1,0.9l-0.4,1.3l-0.3,1.3c-0.1,0.5-0.2,0.8-0.2,0.8
			c-0.1,0.1-0.1,0.2-0.2,0.3c-0.1,0.3-0.1,0.5-0.2,0.8l0.2,0.1c-0.2,0.4-0.3,0.9-0.4,1.4l-0.2,0.6l0,0.3l-0.1,0.3l0,0.2l-0.1,0.4
			l0,0.2c0,0.1-0.1,0.2-0.1,0.4c0,0.1,0,0.2,0.1,0.3c0.2,0.3,0.2,0.5,0.2,0.6c0,0-0.1,0.2-0.3,0.4c-0.1,0.1-0.1,0.3-0.2,0.4
			c-0.2,0.1-0.3,0.1-0.5,0.2c-0.1,0.1-0.2,0.1-0.4,0.1c-0.1,0-0.2-0.1-0.2-0.1c-0.1-0.4-0.1-0.9-0.1-1.3c0-0.1-0.1-0.3-0.2-0.7
			l-0.2-0.1c0-0.2-0.2-0.5-0.4-1.1c0-0.1,0-0.2,0-0.3c0-0.2,0.1-0.4,0.2-0.6c-0.1,0-0.1,0-0.2-0.1c-0.1,0-0.1-0.1-0.2-0.1
			c0,0-0.1,0-0.1,0c-0.1-0.1-0.1-0.2-0.1-0.3c0-0.2,0-0.3-0.1-0.5c0-0.1,0-0.2,0-0.2c0-0.1,0.1-0.2,0.1-0.3l-0.2-0.1
			c0-0.2-0.1-0.3-0.2-0.5c0,0-0.1-0.3-0.2-0.7c0-0.2-0.1-0.4-0.2-0.6c0-0.1-0.1-0.2-0.1-0.2c0-0.1,0-0.1,0.1-0.2
			c0-0.1,0-0.1,0.1-0.2c-0.1-0.1-0.2-0.2-0.3-0.2c0-0.2,0-0.4-0.1-0.5l-0.2-0.4c0-0.1,0-0.1,0-0.2l0.2-0.1c0-0.1,0.1-0.2,0.1-0.4
			c0-0.1,0-0.2-0.1-0.3c0,0-0.1,0.1-0.1,0.1c-0.1,0-0.1,0-0.1-0.1h-0.2c0-0.1-0.1-0.4-0.2-0.9l-0.2-1l0-0.4c0-0.3-0.1-0.4-0.4-0.5
			c0-0.2-0.1-0.4-0.2-0.7l-0.4-1.1c0,0,0-0.1,0-0.3l0.1-0.1c-0.1-0.3-0.3-0.6-0.4-0.9l-0.1,0c-0.1-0.3-0.2-0.7-0.3-1.1
			c-0.3-0.6-0.4-0.9-0.4-0.9c0-0.1,0-0.1,0.1-0.2c0,0,0.1,0,0.2-0.1c0.1-0.1,0.1-0.2,0.2-0.3c0,0,0.1-0.1,0.3-0.2l0.2-0.1
			c0.1-0.1,0.3-0.2,0.4-0.3l0.2,0C380.8,189.4,380.8,189.4,380.9,189.3z"/>
	</g>
</g>
<g>
	<g id="Layer_1-2_4_">
		<path class="st7" d="M379.8,452c0.1,0.1,0.1,0.3,0.2,0.4c0,0.1,0,0.3,0.1,0.8l0.1,0.4l0,0.3c0,0.1,0.1,0.3,0.1,0.4
			c0,0-0.1,0-0.1,0c-0.1,0.1-0.1,0.1-0.1,0.2c0,0.1,0,0.2,0.1,0.3c0.2,0,0.2,0.1,0.3,0.1c0,0.1,0,0.2,0.1,0.3c0,0.1,0,0.2,0,0.3
			l0.2,0c0,0.5,0.1,1,0.3,1.5c-0.2,0.2-0.3,0.4-0.3,0.4c0,0.1,0,0.1,0.1,0.2c0.1,0.1,0.1,0.1,0.1,0.1l0.1,0c0,0,0,0,0.1,0.1
			c0.1,0.1,0.1,0.2,0.1,0.3c0,0.2-0.1,0.3-0.2,0.4l0,0.3c0,0,0,0,0,0c0.1,0,0.2,0,0.3,0.1c0,0.1,0.1,0.3,0.2,0.4
			c0,0.1,0.1,0.2,0.1,0.3l0.5,1.8c0.1,0.3,0.1,0.5,0.1,0.5c0,0,0,0.1-0.1,0.3c0.2,0.1,0.3,0.3,0.4,0.4l0.1,0.2l0.1,0.4l0.1,0.4
			l-0.8,0.3c0.3,0.2,0.6,0.4,0.9,0.6l0.3,0c0.1,0.3,0.1,0.5,0.1,0.7c0.1,0.4,0.2,0.7,0.4,1c0.1,0.4,0.1,0.6,0.1,0.8h0.2l0.2,0.4h0
			c0.1-0.2,0.1-0.3,0.1-0.4c0.1-0.2,0.1-0.4,0.1-0.6c0-0.1,0-0.3,0.1-0.4l0.4-1.3c0-0.1,0-0.2,0.1-0.2c0-0.1,0-0.3,0.1-0.4l0.3-0.6
			l0.1-0.3l0.1-0.3c0.2-0.7,0.3-1.1,0.3-1.2c0.1-0.1,0.1-0.2,0.2-0.2c0-0.1,0-0.2,0-0.2c0-0.1,0.1-0.5,0.3-1.4c0-0.2,0.2-0.6,0.4-1
			c0-0.3,0.1-0.6,0.2-0.9c0.3-0.9,0.5-1.5,0.5-1.9c0-0.1,0-0.2-0.1-0.3l0.7-0.5l0.2-0.3c0.2-0.1,0.3-0.2,0.5-0.3c0,0,0-0.1-0.1-0.1
			c-0.4-0.1-0.7-0.2-1.1-0.3l0.4-0.6c-0.1-0.1-0.2-0.2-0.2-0.3c0-0.2,0.1-0.3,0.1-0.5c0.1-0.1,0.1-0.2,0.3-0.3l0.3-0.2
			c0.3-0.3,0.5-0.4,0.5-0.4c0,0,0.1,0,0.1,0h0.1l0.4,0.4c-0.6,0.2-1,0.5-1,0.6c0,0.1,0.1,0.2,0.4,0.5c0.2,0.2,0.3,0.4,0.5,0.6
			l0.4,0.4c0,0-0.1,0.1-0.2,0.3c0,0.2,0.1,0.4,0.2,0.5c0.2,0.2,0.3,0.4,0.3,0.4c0,0.1,0.1,0.2,0.1,0.3c0,0.1,0.1,0.4,0.3,1
			c0.1,0.5,0.1,0.8,0.1,0.9c0.1,0.1,0.1,0.2,0.2,0.3l0,0c-0.3,0.1-0.5,0.1-0.5,0.2l0.1,0.1c0.1,0.2,0.1,0.3,0.1,0.5l0.5,0.6l0.2,0.5
			c0.1,0.1,0.2,0.2,0.2,0.3v0h-0.1l-0.1,0.1c0,0.1,0,0.2,0,0.3c0,0.2,0.1,0.3,0.2,0.5h0.2c0.2,0.4,0.3,0.7,0.4,1.1l0.2,0.5l0,0.4
			c0.1,0.1,0.2,0.3,0.2,0.4c0.1,0.2,0.1,0.4,0.2,0.6c0,0.1,0,0.1,0,0.2c0,0.1-0.1,0.2-0.1,0.3c0,0.1,0.1,0.2,0.2,0.3
			c0,0,0.1,0.1,0.1,0.1c0.1,0,0.1,0,0.2,0c0,0.2,0.1,0.4,0.2,0.8c0.1,0.2,0.2,0.3,0.2,0.5c0.1-0.1,0.1-0.1,0.2-0.2
			c0.1-0.1,0.2-0.2,0.2-0.4c0-0.1,0-0.2-0.1-0.3c0.1,0,0.1-0.1,0.2-0.1c0.1-0.3,0.2-0.5,0.2-0.8l0-0.2l0.1-0.3l0.1-0.4l0.1-0.2
			l0.1-0.4l0.2-0.7l0.2-1c0.1-0.4,0.2-0.7,0.3-0.8c0.1-0.1,0.1-0.3,0.2-0.4c0-0.2,0.1-0.7,0.4-1.5c0.1-0.4,0.1-0.7,0.3-1.1
			c0.1-0.1,0.1-0.2,0.1-0.4c0,0,0-0.2-0.1-0.5l0.2-0.6c0-0.3,0.1-0.5,0.1-0.8c0.1,0,0.1,0,0.2,0c0.1,0,0.2,0,0.2-0.1
			c0-0.1-0.1-0.2-0.3-0.3c0-0.2,0.1-0.5,0.1-0.7v-0.5l0.1-0.3c0-0.2,0-0.4,0.1-0.6c0.2-0.5,0.5-0.7,0.9-0.8c0.1-0.2,0.2-0.3,0.3-0.3
			c0,0,0.1,0,0.3-0.1c0,0.1,0,0.1,0,0.2c0,0.1,0,0.1,0,0.2c0,0.2-0.1,0.4-0.1,0.6l-0.1,0.3c0,0.2,0,0.4-0.1,0.6
			c-0.1,0.2-0.1,0.3-0.2,0.4c0,0.1,0,0.2,0,0.3c0,0.1,0,0.2-0.1,0.3c0,0,0,0.1,0,0.1c0,0.1,0,0.1,0,0.2c-0.1,0.1-0.1,0.2-0.1,0.3
			c0,0,0,0.1,0,0.1c-0.1,0-0.2,0.1-0.2,0.1l0,0.4v0c0,0.1-0.1,0.3-0.1,0.4c-0.1,0-0.2,0-0.3,0.1c-0.1,0-0.1,0.1-0.1,0.1l0,0.1l0,0.2
			c0.1,0.1,0.1,0.2,0.2,0.3c0,0-0.1,0.1-0.2,0.3c0,0.1-0.1,0.2-0.1,0.3c-0.2,0.6-0.3,0.9-0.3,1c0,0.2-0.1,0.5-0.2,0.7
			c0,0.1-0.1,0.3-0.2,0.4v0.2c0,0.1,0,0.2,0,0.3c0,0.1,0,0.2,0,0.3c-0.1,0.1-0.1,0.2-0.2,0.2v0.2l-0.3,1.3c-0.1,0.5-0.2,0.8-0.2,0.9
			c-0.1,0.2-0.1,0.4-0.2,0.7c-0.2,0.1-0.3,0.2-0.3,0.3c0,0.1,0.1,0.2,0.2,0.3c0,0.2-0.1,0.4-0.1,0.5l0.1,0.5l-0.1,0.1
			c-0.1,0.3-0.2,0.7-0.3,1l-0.1,0.6l-0.1,0.6c0,0.1,0,0.1,0.1,0.2c-0.1,0.1-0.2,0.2-0.2,0.2c0,0-0.1,0.1-0.1,0.3
			c0.1,0.2,0.2,0.3,0.2,0.3c0,0,0,0.2-0.1,0.4c0,0.3,0,0.4,0,0.4c0,0.1,0,0.2,0,0.4v0.3c-0.1,0.1-0.2,0.1-0.2,0.1
			c-0.2,0.1-0.3,0.2-0.5,0.3h-0.1c-0.1-0.1-0.1-0.3-0.2-0.4l-0.3-0.6l-0.1-0.2c-0.1-0.2-0.2-0.4-0.3-0.6c0-0.1,0-0.2,0-0.2
			c0-0.1-0.1-0.3-0.1-0.4c0-0.1,0.1-0.2,0.1-0.3l0,0l-0.1,0c-0.1-0.1-0.1-0.2-0.2-0.3c-0.1-0.1-0.2-0.5-0.3-1.3
			c0-0.4-0.1-0.7-0.1-1.1c-0.1,0-0.2-0.1-0.2-0.1s-0.1-0.3-0.2-0.8l-0.3-0.9l-0.1-0.5c0,0-0.1-0.3-0.3-0.9c-0.1-0.2-0.1-0.4-0.1-0.5
			c0-0.1,0-0.2-0.1-0.3c0.1-0.1,0.2-0.2,0.2-0.3c0-0.1,0-0.1-0.1-0.1c0,0.1-0.1,0.1-0.2,0.1c-0.1,0-0.1-0.1-0.2-0.2
			c-0.2-0.5-0.3-0.9-0.4-1.4c0.1-0.1,0.2-0.1,0.2-0.2c0-0.1-0.1-0.1-0.1-0.2c0,0,0,0,0,0c0-0.1,0-0.2,0.1-0.2
			c-0.2,0-0.3,0.1-0.5,0.1c-0.1-0.1-0.1-0.3-0.2-0.4c-0.1-0.2-0.2-0.6-0.4-1.3c-0.1-0.1-0.1-0.2-0.1-0.3l-0.1-0.3l-0.1-0.3
			c0-0.1-0.1-0.2-0.2-0.2c-0.1,0.1-0.2,0.2-0.2,0.4c0,0-0.1,0.3-0.1,0.8l-0.1,0.3l0,0.3l-0.1,0.2l-0.1,0.4l-0.2,0.4l-0.2,0.7
			c-0.2,0.3-0.2,0.5-0.2,0.6c0,0.3-0.1,0.6-0.1,0.9l-0.4,1.3l-0.3,1.3c-0.1,0.5-0.2,0.8-0.2,0.8c-0.1,0.1-0.1,0.2-0.2,0.3
			c-0.1,0.3-0.1,0.5-0.2,0.8l0.2,0.1c-0.2,0.4-0.3,0.9-0.4,1.4l-0.2,0.6l0,0.3l-0.1,0.3l0,0.2l-0.1,0.4l0,0.2c0,0.1-0.1,0.2-0.1,0.4
			c0,0.1,0,0.2,0.1,0.3c0.2,0.3,0.2,0.5,0.2,0.6c0,0-0.1,0.2-0.3,0.4c-0.1,0.1-0.1,0.3-0.2,0.4c-0.2,0.1-0.3,0.1-0.5,0.2
			c-0.1,0.1-0.2,0.1-0.4,0.1c-0.1,0-0.2-0.1-0.2-0.1c-0.1-0.4-0.1-0.9-0.1-1.3c0-0.1-0.1-0.3-0.2-0.7l-0.2-0.1
			c0-0.2-0.2-0.5-0.4-1.1c0-0.1,0-0.2,0-0.3c0-0.2,0.1-0.4,0.2-0.6c-0.1,0-0.1,0-0.2-0.1c-0.1,0-0.1-0.1-0.2-0.1c0,0-0.1,0-0.1,0
			c-0.1-0.1-0.1-0.2-0.1-0.3c0-0.2,0-0.3-0.1-0.5c0-0.1,0-0.2,0-0.2c0-0.1,0.1-0.2,0.1-0.3l-0.2-0.1c0-0.2-0.1-0.3-0.2-0.5
			c0,0-0.1-0.3-0.2-0.7c0-0.2-0.1-0.4-0.2-0.6c0-0.1-0.1-0.2-0.1-0.2c0-0.1,0-0.1,0.1-0.2c0-0.1,0-0.1,0.1-0.2
			c-0.1-0.1-0.2-0.2-0.3-0.2c0-0.2,0-0.4-0.1-0.5l-0.2-0.4c0-0.1,0-0.1,0-0.2l0.2-0.1c0-0.1,0.1-0.2,0.1-0.4c0-0.1,0-0.2-0.1-0.3
			c0,0-0.1,0.1-0.1,0.1c-0.1,0-0.1,0-0.1-0.1h-0.2c0-0.1-0.1-0.4-0.2-0.9l-0.2-1l0-0.4c0-0.3-0.1-0.4-0.4-0.5c0-0.2-0.1-0.4-0.2-0.7
			l-0.4-1.1c0,0,0-0.1,0-0.3l0.1-0.1c-0.1-0.3-0.3-0.6-0.4-0.9l-0.1,0c-0.1-0.3-0.2-0.7-0.3-1.1c-0.3-0.6-0.4-0.9-0.4-0.9
			c0-0.1,0-0.1,0.1-0.2c0,0,0.1,0,0.2-0.1c0.1-0.1,0.1-0.2,0.2-0.3c0,0,0.1-0.1,0.3-0.2l0.2-0.1c0.1-0.1,0.3-0.2,0.4-0.3l0.2,0
			C379.7,452.2,379.7,452.1,379.8,452z"/>
	</g>
</g>
<g>
	<g id="Layer_1-2_5_">
		<path class="st7" d="M379.8,730.5c0.1,0.1,0.1,0.3,0.2,0.4c0,0.1,0,0.3,0.1,0.8l0.1,0.4l0,0.3c0,0.1,0.1,0.3,0.1,0.4
			c0,0-0.1,0-0.1,0c-0.1,0.1-0.1,0.1-0.1,0.2c0,0.1,0,0.2,0.1,0.3c0.2,0,0.2,0.1,0.3,0.1c0,0.1,0,0.2,0.1,0.3c0,0.1,0,0.2,0,0.3
			l0.2,0c0,0.5,0.1,1,0.3,1.5c-0.2,0.2-0.3,0.4-0.3,0.4c0,0.1,0,0.1,0.1,0.2c0.1,0.1,0.1,0.1,0.1,0.1l0.1,0c0,0,0,0,0.1,0.1
			c0.1,0.1,0.1,0.2,0.1,0.3c0,0.2-0.1,0.3-0.2,0.4l0,0.3c0,0,0,0,0,0c0.1,0,0.2,0,0.3,0.1c0,0.1,0.1,0.3,0.2,0.4
			c0,0.1,0.1,0.2,0.1,0.3l0.5,1.8c0.1,0.3,0.1,0.5,0.1,0.5c0,0,0,0.1-0.1,0.3c0.2,0.1,0.3,0.3,0.4,0.4l0.1,0.2l0.1,0.4l0.1,0.4
			l-0.8,0.3c0.3,0.2,0.6,0.4,0.9,0.6l0.3,0c0.1,0.3,0.1,0.5,0.1,0.7c0.1,0.4,0.2,0.7,0.4,1c0.1,0.4,0.1,0.6,0.1,0.8h0.2l0.2,0.4h0
			c0.1-0.2,0.1-0.3,0.1-0.4c0.1-0.2,0.1-0.4,0.1-0.6c0-0.1,0-0.3,0.1-0.4l0.4-1.3c0-0.1,0-0.2,0.1-0.2c0-0.1,0-0.3,0.1-0.4l0.3-0.6
			l0.1-0.3l0.1-0.3c0.2-0.7,0.3-1.1,0.3-1.2c0.1-0.1,0.1-0.2,0.2-0.2c0-0.1,0-0.2,0-0.2c0-0.1,0.1-0.5,0.3-1.4c0-0.2,0.2-0.6,0.4-1
			c0-0.3,0.1-0.6,0.2-0.9c0.3-0.9,0.5-1.5,0.5-1.9c0-0.1,0-0.2-0.1-0.3l0.7-0.5l0.2-0.3c0.2-0.1,0.3-0.2,0.5-0.3c0,0,0-0.1-0.1-0.1
			c-0.4-0.1-0.7-0.2-1.1-0.3l0.4-0.6c-0.1-0.1-0.2-0.2-0.2-0.3c0-0.2,0.1-0.3,0.1-0.5c0.1-0.1,0.1-0.2,0.3-0.3l0.3-0.2
			c0.3-0.3,0.5-0.4,0.5-0.4c0,0,0.1,0,0.1,0h0.1l0.4,0.4c-0.6,0.2-1,0.5-1,0.6c0,0.1,0.1,0.2,0.4,0.5c0.2,0.2,0.3,0.4,0.5,0.6
			l0.4,0.4c0,0-0.1,0.1-0.2,0.3c0,0.2,0.1,0.4,0.2,0.5c0.2,0.2,0.3,0.4,0.3,0.4c0,0.1,0.1,0.2,0.1,0.3c0,0.1,0.1,0.4,0.3,1
			c0.1,0.5,0.1,0.8,0.1,0.9c0.1,0.1,0.1,0.2,0.2,0.3l0,0c-0.3,0.1-0.5,0.1-0.5,0.2l0.1,0.1c0.1,0.2,0.1,0.3,0.1,0.5l0.5,0.6l0.2,0.5
			c0.1,0.1,0.2,0.2,0.2,0.3v0h-0.1l-0.1,0.1c0,0.1,0,0.2,0,0.3c0,0.2,0.1,0.3,0.2,0.5h0.2c0.2,0.4,0.3,0.7,0.4,1.1l0.2,0.5l0,0.4
			c0.1,0.1,0.2,0.3,0.2,0.4c0.1,0.2,0.1,0.4,0.2,0.6c0,0.1,0,0.1,0,0.2c0,0.1-0.1,0.2-0.1,0.3c0,0.1,0.1,0.2,0.2,0.3
			c0,0,0.1,0.1,0.1,0.1c0.1,0,0.1,0,0.2,0c0,0.2,0.1,0.4,0.2,0.8c0.1,0.2,0.2,0.3,0.2,0.5c0.1-0.1,0.1-0.1,0.2-0.2
			c0.1-0.1,0.2-0.2,0.2-0.4c0-0.1,0-0.2-0.1-0.3c0.1,0,0.1-0.1,0.2-0.1c0.1-0.3,0.2-0.5,0.2-0.8l0-0.2l0.1-0.3l0.1-0.4l0.1-0.2
			l0.1-0.4l0.2-0.7l0.2-1c0.1-0.4,0.2-0.7,0.3-0.8c0.1-0.1,0.1-0.3,0.2-0.4c0-0.2,0.1-0.7,0.4-1.5c0.1-0.4,0.1-0.7,0.3-1.1
			c0.1-0.1,0.1-0.2,0.1-0.4c0,0,0-0.2-0.1-0.5l0.2-0.6c0-0.3,0.1-0.5,0.1-0.8c0.1,0,0.1,0,0.2,0c0.1,0,0.2,0,0.2-0.1
			c0-0.1-0.1-0.2-0.3-0.3c0-0.2,0.1-0.5,0.1-0.7v-0.5l0.1-0.3c0-0.2,0-0.4,0.1-0.6c0.2-0.5,0.5-0.7,0.9-0.8c0.1-0.2,0.2-0.3,0.3-0.3
			c0,0,0.1,0,0.3-0.1c0,0.1,0,0.1,0,0.2c0,0.1,0,0.1,0,0.2c0,0.2-0.1,0.4-0.1,0.6l-0.1,0.3c0,0.2,0,0.4-0.1,0.6
			c-0.1,0.2-0.1,0.3-0.2,0.4c0,0.1,0,0.2,0,0.3c0,0.1,0,0.2-0.1,0.3c0,0,0,0.1,0,0.1c0,0.1,0,0.1,0,0.2c-0.1,0.1-0.1,0.2-0.1,0.3
			c0,0,0,0.1,0,0.1c-0.1,0-0.2,0.1-0.2,0.1l0,0.4v0c0,0.1-0.1,0.3-0.1,0.4c-0.1,0-0.2,0-0.3,0.1c-0.1,0-0.1,0.1-0.1,0.1l0,0.1l0,0.2
			c0.1,0.1,0.1,0.2,0.2,0.3c0,0-0.1,0.1-0.2,0.3c0,0.1-0.1,0.2-0.1,0.3c-0.2,0.6-0.3,0.9-0.3,1c0,0.2-0.1,0.5-0.2,0.7
			c0,0.1-0.1,0.3-0.2,0.4v0.2c0,0.1,0,0.2,0,0.3c0,0.1,0,0.2,0,0.3c-0.1,0.1-0.1,0.2-0.2,0.2v0.2l-0.3,1.3c-0.1,0.5-0.2,0.8-0.2,0.9
			c-0.1,0.2-0.1,0.4-0.2,0.7c-0.2,0.1-0.3,0.2-0.3,0.3c0,0.1,0.1,0.2,0.2,0.3c0,0.2-0.1,0.4-0.1,0.5l0.1,0.5l-0.1,0.1
			c-0.1,0.3-0.2,0.7-0.3,1l-0.1,0.6l-0.1,0.6c0,0.1,0,0.1,0.1,0.2c-0.1,0.1-0.2,0.2-0.2,0.2c0,0-0.1,0.1-0.1,0.3
			c0.1,0.2,0.2,0.3,0.2,0.3c0,0,0,0.2-0.1,0.4c0,0.3,0,0.4,0,0.4c0,0.1,0,0.2,0,0.4v0.3c-0.1,0.1-0.2,0.1-0.2,0.1
			c-0.2,0.1-0.3,0.2-0.5,0.3h-0.1c-0.1-0.1-0.1-0.3-0.2-0.4l-0.3-0.6L393,748c-0.1-0.2-0.2-0.4-0.3-0.6c0-0.1,0-0.2,0-0.2
			c0-0.1-0.1-0.3-0.1-0.4c0-0.1,0.1-0.2,0.1-0.3l0,0l-0.1,0c-0.1-0.1-0.1-0.2-0.2-0.3c-0.1-0.1-0.2-0.5-0.3-1.3
			c0-0.4-0.1-0.7-0.1-1.1c-0.1,0-0.2-0.1-0.2-0.1c0-0.1-0.1-0.3-0.2-0.8l-0.3-0.9l-0.1-0.5c0,0-0.1-0.3-0.3-0.9
			c-0.1-0.2-0.1-0.4-0.1-0.5c0-0.1,0-0.2-0.1-0.3c0.1-0.1,0.2-0.2,0.2-0.3c0-0.1,0-0.1-0.1-0.1c0,0.1-0.1,0.1-0.2,0.1
			c-0.1,0-0.1-0.1-0.2-0.2c-0.2-0.5-0.3-0.9-0.4-1.4c0.1-0.1,0.2-0.1,0.2-0.2c0-0.1-0.1-0.1-0.1-0.2c0,0,0,0,0,0
			c0-0.1,0-0.2,0.1-0.2c-0.2,0-0.3,0.1-0.5,0.1c-0.1-0.1-0.1-0.3-0.2-0.4c-0.1-0.2-0.2-0.6-0.4-1.3c-0.1-0.1-0.1-0.2-0.1-0.3
			l-0.1-0.3l-0.1-0.3c0-0.1-0.1-0.2-0.2-0.2c-0.1,0.1-0.2,0.2-0.2,0.4c0,0-0.1,0.3-0.1,0.8l-0.1,0.3l0,0.3l-0.1,0.2l-0.1,0.4
			l-0.2,0.4l-0.2,0.7c-0.2,0.3-0.2,0.5-0.2,0.6c0,0.3-0.1,0.6-0.1,0.9l-0.4,1.3l-0.3,1.3c-0.1,0.5-0.2,0.8-0.2,0.8
			c-0.1,0.1-0.1,0.2-0.2,0.3c-0.1,0.3-0.1,0.5-0.2,0.8l0.2,0.1c-0.2,0.4-0.3,0.9-0.4,1.4l-0.2,0.6l0,0.3l-0.1,0.3l0,0.2l-0.1,0.4
			l0,0.2c0,0.1-0.1,0.2-0.1,0.4c0,0.1,0,0.2,0.1,0.3c0.2,0.3,0.2,0.5,0.2,0.6c0,0-0.1,0.2-0.3,0.4c-0.1,0.1-0.1,0.3-0.2,0.4
			c-0.2,0.1-0.3,0.1-0.5,0.2c-0.1,0.1-0.2,0.1-0.4,0.1c-0.1,0-0.2-0.1-0.2-0.1c-0.1-0.4-0.1-0.9-0.1-1.3c0-0.1-0.1-0.3-0.2-0.7
			l-0.2-0.1c0-0.2-0.2-0.5-0.4-1.1c0-0.1,0-0.2,0-0.3c0-0.2,0.1-0.4,0.2-0.6c-0.1,0-0.1,0-0.2-0.1c-0.1,0-0.1-0.1-0.2-0.1
			c0,0-0.1,0-0.1,0c-0.1-0.1-0.1-0.2-0.1-0.3c0-0.2,0-0.3-0.1-0.5c0-0.1,0-0.2,0-0.2c0-0.1,0.1-0.2,0.1-0.3l-0.2-0.1
			c0-0.2-0.1-0.3-0.2-0.5c0,0-0.1-0.3-0.2-0.7c0-0.2-0.1-0.4-0.2-0.6c0-0.1-0.1-0.2-0.1-0.2c0-0.1,0-0.1,0.1-0.2
			c0-0.1,0-0.1,0.1-0.2c-0.1-0.1-0.2-0.2-0.3-0.2c0-0.2,0-0.4-0.1-0.5l-0.2-0.4c0-0.1,0-0.1,0-0.2l0.2-0.1c0-0.1,0.1-0.2,0.1-0.4
			c0-0.1,0-0.2-0.1-0.3c0,0-0.1,0.1-0.1,0.1c-0.1,0-0.1,0-0.1-0.1h-0.2c0-0.1-0.1-0.4-0.2-0.9l-0.2-1l0-0.4c0-0.3-0.1-0.4-0.4-0.5
			c0-0.2-0.1-0.4-0.2-0.7l-0.4-1.1c0,0,0-0.1,0-0.3l0.1-0.1c-0.1-0.3-0.3-0.6-0.4-0.9l-0.1,0c-0.1-0.3-0.2-0.7-0.3-1.1
			c-0.3-0.6-0.4-0.9-0.4-0.9c0-0.1,0-0.1,0.1-0.2c0,0,0.1,0,0.2-0.1c0.1-0.1,0.1-0.2,0.2-0.3c0,0,0.1-0.1,0.3-0.2l0.2-0.1
			c0.1-0.1,0.3-0.2,0.4-0.3l0.2,0C379.7,730.7,379.7,730.6,379.8,730.5z"/>
	</g>
</g>
<g>
	<g id="Layer_1-2_6_">
		<path class="st7" d="M660.2,189.3c0.1,0.1,0.1,0.3,0.2,0.4c0,0.1,0,0.3,0.1,0.8l0.1,0.4l0,0.3c0,0.1,0.1,0.3,0.1,0.4
			c0,0-0.1,0-0.1,0c-0.1,0.1-0.1,0.1-0.1,0.2c0,0.1,0,0.2,0.1,0.3c0.2,0,0.2,0.1,0.3,0.1c0,0.1,0,0.2,0.1,0.3c0,0.1,0,0.2,0,0.3
			l0.2,0c0,0.5,0.1,1,0.3,1.5c-0.2,0.2-0.3,0.4-0.3,0.4c0,0.1,0,0.1,0.1,0.2c0.1,0.1,0.1,0.1,0.1,0.1l0.1,0c0,0,0,0,0.1,0.1
			c0.1,0.1,0.1,0.2,0.1,0.3c0,0.2-0.1,0.3-0.2,0.4l0,0.3c0,0,0,0,0,0c0.1,0,0.2,0,0.3,0.1c0,0.1,0.1,0.3,0.2,0.4
			c0,0.1,0.1,0.2,0.1,0.3l0.5,1.8c0.1,0.3,0.1,0.5,0.1,0.5c0,0,0,0.1-0.1,0.3c0.2,0.1,0.3,0.3,0.4,0.4l0.1,0.2l0.1,0.4l0.1,0.4
			l-0.8,0.3c0.3,0.2,0.6,0.4,0.9,0.6l0.3,0c0.1,0.3,0.1,0.5,0.1,0.7c0.1,0.4,0.2,0.7,0.4,1c0.1,0.4,0.1,0.6,0.1,0.8h0.2l0.2,0.4h0
			c0.1-0.2,0.1-0.3,0.1-0.4c0.1-0.2,0.1-0.4,0.1-0.6c0-0.1,0-0.3,0.1-0.4l0.4-1.3c0-0.1,0-0.2,0.1-0.2c0-0.1,0-0.3,0.1-0.4l0.3-0.6
			l0.1-0.3l0.1-0.3c0.2-0.7,0.3-1.1,0.3-1.2c0.1-0.1,0.1-0.2,0.2-0.2c0-0.1,0-0.2,0-0.2c0-0.1,0.1-0.5,0.3-1.4c0-0.2,0.2-0.6,0.4-1
			c0-0.3,0.1-0.6,0.2-0.9c0.3-0.9,0.5-1.5,0.5-1.9c0-0.1,0-0.2-0.1-0.3l0.7-0.5l0.2-0.3c0.2-0.1,0.3-0.2,0.5-0.3c0,0,0-0.1-0.1-0.1
			c-0.4-0.1-0.7-0.2-1.1-0.3l0.4-0.6c-0.1-0.1-0.2-0.2-0.2-0.3c0-0.2,0.1-0.3,0.1-0.5c0.1-0.1,0.1-0.2,0.3-0.3l0.3-0.2
			c0.3-0.3,0.5-0.4,0.5-0.4c0,0,0.1,0,0.1,0h0.1l0.4,0.4c-0.6,0.2-1,0.5-1,0.6c0,0.1,0.1,0.2,0.4,0.5c0.2,0.2,0.3,0.4,0.5,0.6
			l0.4,0.4c0,0-0.1,0.1-0.2,0.3c0,0.2,0.1,0.4,0.2,0.5c0.2,0.2,0.3,0.4,0.3,0.4c0,0.1,0.1,0.2,0.1,0.3c0,0.1,0.1,0.4,0.3,1
			c0.1,0.5,0.1,0.8,0.1,0.9c0.1,0.1,0.1,0.2,0.2,0.3l0,0c-0.3,0.1-0.5,0.1-0.5,0.2l0.1,0.1c0.1,0.2,0.1,0.3,0.1,0.5l0.5,0.6l0.2,0.5
			c0.1,0.1,0.2,0.2,0.2,0.3v0H672l-0.1,0.1c0,0.1,0,0.2,0,0.3c0,0.2,0.1,0.3,0.2,0.5h0.2c0.2,0.4,0.3,0.7,0.4,1.1l0.2,0.5l0,0.4
			c0.1,0.1,0.2,0.3,0.2,0.4c0.1,0.2,0.1,0.4,0.2,0.6c0,0.1,0,0.1,0,0.2c0,0.1-0.1,0.2-0.1,0.3c0,0.1,0.1,0.2,0.2,0.3
			c0,0,0.1,0.1,0.1,0.1c0.1,0,0.1,0,0.2,0c0,0.2,0.1,0.4,0.2,0.8c0.1,0.2,0.2,0.3,0.2,0.5c0.1-0.1,0.1-0.1,0.2-0.2
			c0.1-0.1,0.2-0.2,0.2-0.4c0-0.1,0-0.2-0.1-0.3c0.1,0,0.1-0.1,0.2-0.1c0.1-0.3,0.2-0.5,0.2-0.8l0-0.2l0.1-0.3l0.1-0.4l0.1-0.2
			l0.1-0.4l0.2-0.7l0.2-1c0.1-0.4,0.2-0.7,0.3-0.8c0.1-0.1,0.1-0.3,0.2-0.4c0-0.2,0.1-0.7,0.4-1.5c0.1-0.4,0.1-0.7,0.3-1.1
			c0.1-0.1,0.1-0.2,0.1-0.4c0,0,0-0.2-0.1-0.5l0.2-0.6c0-0.3,0.1-0.5,0.1-0.8c0.1,0,0.1,0,0.2,0c0.1,0,0.2,0,0.2-0.1
			c0-0.1-0.1-0.2-0.3-0.3c0-0.2,0.1-0.5,0.1-0.7v-0.5l0.1-0.3c0-0.2,0-0.4,0.1-0.6c0.2-0.5,0.5-0.7,0.9-0.8c0.1-0.2,0.2-0.3,0.3-0.3
			c0,0,0.1,0,0.3-0.1c0,0.1,0,0.1,0,0.2c0,0.1,0,0.1,0,0.2c0,0.2-0.1,0.4-0.1,0.6l-0.1,0.3c0,0.2,0,0.4-0.1,0.6
			c-0.1,0.2-0.1,0.3-0.2,0.4c0,0.1,0,0.2,0,0.3c0,0.1,0,0.2-0.1,0.3c0,0,0,0.1,0,0.1c0,0.1,0,0.1,0,0.2c-0.1,0.1-0.1,0.2-0.1,0.3
			c0,0,0,0.1,0,0.1c-0.1,0-0.2,0.1-0.2,0.1l0,0.4v0c0,0.1-0.1,0.3-0.1,0.4c-0.1,0-0.2,0-0.3,0.1c-0.1,0-0.1,0.1-0.1,0.1l0,0.1l0,0.2
			c0.1,0.1,0.1,0.2,0.2,0.3c0,0-0.1,0.1-0.2,0.3c0,0.1-0.1,0.2-0.1,0.3c-0.2,0.6-0.3,0.9-0.3,1c0,0.2-0.1,0.5-0.2,0.7
			c0,0.1-0.1,0.3-0.2,0.4v0.2c0,0.1,0,0.2,0,0.3c0,0.1,0,0.2,0,0.3c-0.1,0.1-0.1,0.2-0.2,0.2v0.2l-0.3,1.3c-0.1,0.5-0.2,0.8-0.2,0.9
			c-0.1,0.2-0.1,0.4-0.2,0.7c-0.2,0.1-0.3,0.2-0.3,0.3c0,0.1,0.1,0.2,0.2,0.3c0,0.2-0.1,0.4-0.1,0.5l0.1,0.5l-0.1,0.1
			c-0.1,0.3-0.2,0.7-0.3,1l-0.1,0.6l-0.1,0.6c0,0.1,0,0.1,0.1,0.2c-0.1,0.1-0.2,0.2-0.2,0.2c0,0-0.1,0.1-0.1,0.3
			c0.1,0.2,0.2,0.3,0.2,0.3c0,0,0,0.2-0.1,0.4c0,0.3,0,0.4,0,0.4c0,0.1,0,0.2,0,0.4v0.3c-0.1,0.1-0.2,0.1-0.2,0.1
			c-0.2,0.1-0.3,0.2-0.5,0.3h-0.1c-0.1-0.1-0.1-0.3-0.2-0.4l-0.3-0.6l-0.1-0.2c-0.1-0.2-0.2-0.4-0.3-0.6c0-0.1,0-0.2,0-0.2
			c0-0.1-0.1-0.3-0.1-0.4c0-0.1,0.1-0.2,0.1-0.3l0,0l-0.1,0c-0.1-0.1-0.1-0.2-0.2-0.3c-0.1-0.1-0.2-0.5-0.3-1.3
			c0-0.4-0.1-0.7-0.1-1.1c-0.1,0-0.2-0.1-0.2-0.1c0-0.1-0.1-0.3-0.2-0.8l-0.3-0.9l-0.1-0.5c0,0-0.1-0.3-0.3-0.9
			c-0.1-0.2-0.1-0.4-0.1-0.5c0-0.1,0-0.2-0.1-0.3c0.1-0.1,0.2-0.2,0.2-0.3c0-0.1,0-0.1-0.1-0.1c0,0.1-0.1,0.1-0.2,0.1
			c-0.1,0-0.1-0.1-0.2-0.2c-0.2-0.5-0.3-0.9-0.4-1.4c0.1-0.1,0.2-0.1,0.2-0.2c0-0.1-0.1-0.1-0.1-0.2c0,0,0,0,0,0
			c0-0.1,0-0.2,0.1-0.2c-0.2,0-0.3,0.1-0.5,0.1c-0.1-0.1-0.1-0.3-0.2-0.4c-0.1-0.2-0.2-0.6-0.4-1.3c-0.1-0.1-0.1-0.2-0.1-0.3
			l-0.1-0.3l-0.1-0.3c0-0.1-0.1-0.2-0.2-0.2c-0.1,0.1-0.2,0.2-0.2,0.4c0,0-0.1,0.3-0.1,0.8l-0.1,0.3l0,0.3l-0.1,0.2l-0.1,0.4
			l-0.2,0.4l-0.2,0.7c-0.2,0.3-0.2,0.5-0.2,0.6c0,0.3-0.1,0.6-0.1,0.9l-0.4,1.3l-0.3,1.3c-0.1,0.5-0.2,0.8-0.2,0.8
			c-0.1,0.1-0.1,0.2-0.2,0.3c-0.1,0.3-0.1,0.5-0.2,0.8l0.2,0.1c-0.2,0.4-0.3,0.9-0.4,1.4l-0.2,0.6l0,0.3l-0.1,0.3l0,0.2l-0.1,0.4
			l0,0.2c0,0.1-0.1,0.2-0.1,0.4c0,0.1,0,0.2,0.1,0.3c0.2,0.3,0.2,0.5,0.2,0.6c0,0-0.1,0.2-0.3,0.4c-0.1,0.1-0.1,0.3-0.2,0.4
			c-0.2,0.1-0.3,0.1-0.5,0.2c-0.1,0.1-0.2,0.1-0.4,0.1c-0.1,0-0.2-0.1-0.2-0.1c-0.1-0.4-0.1-0.9-0.1-1.3c0-0.1-0.1-0.3-0.2-0.7
			l-0.2-0.1c0-0.2-0.2-0.5-0.4-1.1c0-0.1,0-0.2,0-0.3c0-0.2,0.1-0.4,0.2-0.6c-0.1,0-0.1,0-0.2-0.1c-0.1,0-0.1-0.1-0.2-0.1
			c0,0-0.1,0-0.1,0c-0.1-0.1-0.1-0.2-0.1-0.3c0-0.2,0-0.3-0.1-0.5c0-0.1,0-0.2,0-0.2c0-0.1,0.1-0.2,0.1-0.3l-0.2-0.1
			c0-0.2-0.1-0.3-0.2-0.5c0,0-0.1-0.3-0.2-0.7c0-0.2-0.1-0.4-0.2-0.6c0-0.1-0.1-0.2-0.1-0.2c0-0.1,0-0.1,0.1-0.2
			c0-0.1,0-0.1,0.1-0.2c-0.1-0.1-0.2-0.2-0.3-0.2c0-0.2,0-0.4-0.1-0.5l-0.2-0.4c0-0.1,0-0.1,0-0.2l0.2-0.1c0-0.1,0.1-0.2,0.1-0.4
			c0-0.1,0-0.2-0.1-0.3c0,0-0.1,0.1-0.1,0.1c-0.1,0-0.1,0-0.1-0.1H661c0-0.1-0.1-0.4-0.2-0.9l-0.2-1l0-0.4c0-0.3-0.1-0.4-0.4-0.5
			c0-0.2-0.1-0.4-0.2-0.7l-0.4-1.1c0,0,0-0.1,0-0.3l0.1-0.1c-0.1-0.3-0.3-0.6-0.4-0.9l-0.1,0c-0.1-0.3-0.2-0.7-0.3-1.1
			c-0.3-0.6-0.4-0.9-0.4-0.9c0-0.1,0-0.1,0.1-0.2c0,0,0.1,0,0.2-0.1c0.1-0.1,0.1-0.2,0.2-0.3c0,0,0.1-0.1,0.3-0.2l0.2-0.1
			c0.1-0.1,0.3-0.2,0.4-0.3l0.2,0C660,189.4,660.1,189.4,660.2,189.3z"/>
	</g>
</g>
<g>
	<g id="Layer_1-2_7_">
		<path class="st7" d="M660.2,452.8c0.1,0.1,0.1,0.3,0.2,0.4c0,0.1,0,0.3,0.1,0.8l0.1,0.4l0,0.3c0,0.1,0.1,0.3,0.1,0.4
			c0,0-0.1,0-0.1,0c-0.1,0.1-0.1,0.1-0.1,0.2c0,0.1,0,0.2,0.1,0.3c0.2,0,0.2,0.1,0.3,0.1c0,0.1,0,0.2,0.1,0.3c0,0.1,0,0.2,0,0.3
			l0.2,0c0,0.5,0.1,1,0.3,1.5c-0.2,0.2-0.3,0.4-0.3,0.4c0,0.1,0,0.1,0.1,0.2c0.1,0.1,0.1,0.1,0.1,0.1l0.1,0c0,0,0,0,0.1,0.1
			c0.1,0.1,0.1,0.2,0.1,0.3c0,0.2-0.1,0.3-0.2,0.4l0,0.3c0,0,0,0,0,0c0.1,0,0.2,0,0.3,0.1c0,0.1,0.1,0.3,0.2,0.4
			c0,0.1,0.1,0.2,0.1,0.3l0.5,1.8c0.1,0.3,0.1,0.5,0.1,0.5c0,0,0,0.1-0.1,0.3c0.2,0.1,0.3,0.3,0.4,0.4l0.1,0.2l0.1,0.4l0.1,0.4
			l-0.8,0.3c0.3,0.2,0.6,0.4,0.9,0.6l0.3,0c0.1,0.3,0.1,0.5,0.1,0.7c0.1,0.4,0.2,0.7,0.4,1c0.1,0.4,0.1,0.6,0.1,0.8h0.2l0.2,0.4h0
			c0.1-0.2,0.1-0.3,0.1-0.4c0.1-0.2,0.1-0.4,0.1-0.6c0-0.1,0-0.3,0.1-0.4l0.4-1.3c0-0.1,0-0.2,0.1-0.2c0-0.1,0-0.3,0.1-0.4l0.3-0.6
			l0.1-0.3l0.1-0.3c0.2-0.7,0.3-1.1,0.3-1.2c0.1-0.1,0.1-0.2,0.2-0.2c0-0.1,0-0.2,0-0.2c0-0.1,0.1-0.5,0.3-1.4c0-0.2,0.2-0.6,0.4-1
			c0-0.3,0.1-0.6,0.2-0.9c0.3-0.9,0.5-1.5,0.5-1.9c0-0.1,0-0.2-0.1-0.3l0.7-0.5l0.2-0.3c0.2-0.1,0.3-0.2,0.5-0.3c0,0,0-0.1-0.1-0.1
			c-0.4-0.1-0.7-0.2-1.1-0.3l0.4-0.6c-0.1-0.1-0.2-0.2-0.2-0.3c0-0.2,0.1-0.3,0.1-0.5c0.1-0.1,0.1-0.2,0.3-0.3l0.3-0.2
			c0.3-0.3,0.5-0.4,0.5-0.4c0,0,0.1,0,0.1,0h0.1l0.4,0.4c-0.6,0.2-1,0.5-1,0.6c0,0.1,0.1,0.2,0.4,0.5c0.2,0.2,0.3,0.4,0.5,0.6
			l0.4,0.4c0,0-0.1,0.1-0.2,0.3c0,0.2,0.1,0.4,0.2,0.5c0.2,0.2,0.3,0.4,0.3,0.4c0,0.1,0.1,0.2,0.1,0.3c0,0.1,0.1,0.4,0.3,1
			c0.1,0.5,0.1,0.8,0.1,0.9c0.1,0.1,0.1,0.2,0.2,0.3l0,0c-0.3,0.1-0.5,0.1-0.5,0.2l0.1,0.1c0.1,0.2,0.1,0.3,0.1,0.5l0.5,0.6l0.2,0.5
			c0.1,0.1,0.2,0.2,0.2,0.3v0H672l-0.1,0.1c0,0.1,0,0.2,0,0.3c0,0.2,0.1,0.3,0.2,0.5h0.2c0.2,0.4,0.3,0.7,0.4,1.1l0.2,0.5l0,0.4
			c0.1,0.1,0.2,0.3,0.2,0.4c0.1,0.2,0.1,0.4,0.2,0.6c0,0.1,0,0.1,0,0.2c0,0.1-0.1,0.2-0.1,0.3c0,0.1,0.1,0.2,0.2,0.3
			c0,0,0.1,0.1,0.1,0.1c0.1,0,0.1,0,0.2,0c0,0.2,0.1,0.4,0.2,0.8c0.1,0.2,0.2,0.3,0.2,0.5c0.1-0.1,0.1-0.1,0.2-0.2
			c0.1-0.1,0.2-0.2,0.2-0.4c0-0.1,0-0.2-0.1-0.3c0.1,0,0.1-0.1,0.2-0.1c0.1-0.3,0.2-0.5,0.2-0.8l0-0.2l0.1-0.3l0.1-0.4l0.1-0.2
			l0.1-0.4l0.2-0.7l0.2-1c0.1-0.4,0.2-0.7,0.3-0.8c0.1-0.1,0.1-0.3,0.2-0.4c0-0.2,0.1-0.7,0.4-1.5c0.1-0.4,0.1-0.7,0.3-1.1
			c0.1-0.1,0.1-0.2,0.1-0.4c0,0,0-0.2-0.1-0.5l0.2-0.6c0-0.3,0.1-0.5,0.1-0.8c0.1,0,0.1,0,0.2,0c0.1,0,0.2,0,0.2-0.1
			c0-0.1-0.1-0.2-0.3-0.3c0-0.2,0.1-0.5,0.1-0.7v-0.5l0.1-0.3c0-0.2,0-0.4,0.1-0.6c0.2-0.5,0.5-0.7,0.9-0.8c0.1-0.2,0.2-0.3,0.3-0.3
			c0,0,0.1,0,0.3-0.1c0,0.1,0,0.1,0,0.2c0,0.1,0,0.1,0,0.2c0,0.2-0.1,0.4-0.1,0.6l-0.1,0.3c0,0.2,0,0.4-0.1,0.6
			c-0.1,0.2-0.1,0.3-0.2,0.4c0,0.1,0,0.2,0,0.3c0,0.1,0,0.2-0.1,0.3c0,0,0,0.1,0,0.1c0,0.1,0,0.1,0,0.2c-0.1,0.1-0.1,0.2-0.1,0.3
			c0,0,0,0.1,0,0.1c-0.1,0-0.2,0.1-0.2,0.1l0,0.4v0c0,0.1-0.1,0.3-0.1,0.4c-0.1,0-0.2,0-0.3,0.1c-0.1,0-0.1,0.1-0.1,0.1l0,0.1l0,0.2
			c0.1,0.1,0.1,0.2,0.2,0.3c0,0-0.1,0.1-0.2,0.3c0,0.1-0.1,0.2-0.1,0.3c-0.2,0.6-0.3,0.9-0.3,1c0,0.2-0.1,0.5-0.2,0.7
			c0,0.1-0.1,0.3-0.2,0.4v0.2c0,0.1,0,0.2,0,0.3c0,0.1,0,0.2,0,0.3c-0.1,0.1-0.1,0.2-0.2,0.2v0.2l-0.3,1.3c-0.1,0.5-0.2,0.8-0.2,0.9
			c-0.1,0.2-0.1,0.4-0.2,0.7c-0.2,0.1-0.3,0.2-0.3,0.3c0,0.1,0.1,0.2,0.2,0.3c0,0.2-0.1,0.4-0.1,0.5l0.1,0.5l-0.1,0.1
			c-0.1,0.3-0.2,0.7-0.3,1l-0.1,0.6l-0.1,0.6c0,0.1,0,0.1,0.1,0.2c-0.1,0.1-0.2,0.2-0.2,0.2c0,0-0.1,0.1-0.1,0.3
			c0.1,0.2,0.2,0.3,0.2,0.3c0,0,0,0.2-0.1,0.4c0,0.3,0,0.4,0,0.4c0,0.1,0,0.2,0,0.4v0.3c-0.1,0.1-0.2,0.1-0.2,0.1
			c-0.2,0.1-0.3,0.2-0.5,0.3h-0.1c-0.1-0.1-0.1-0.3-0.2-0.4l-0.3-0.6l-0.1-0.2c-0.1-0.2-0.2-0.4-0.3-0.6c0-0.1,0-0.2,0-0.2
			c0-0.1-0.1-0.3-0.1-0.4c0-0.1,0.1-0.2,0.1-0.3l0,0l-0.1,0c-0.1-0.1-0.1-0.2-0.2-0.3c-0.1-0.1-0.2-0.5-0.3-1.3
			c0-0.4-0.1-0.7-0.1-1.1c-0.1,0-0.2-0.1-0.2-0.1c0-0.1-0.1-0.3-0.2-0.8l-0.3-0.9l-0.1-0.5c0,0-0.1-0.3-0.3-0.9
			c-0.1-0.2-0.1-0.4-0.1-0.5c0-0.1,0-0.2-0.1-0.3c0.1-0.1,0.2-0.2,0.2-0.3c0-0.1,0-0.1-0.1-0.1c0,0.1-0.1,0.1-0.2,0.1
			c-0.1,0-0.1-0.1-0.2-0.2c-0.2-0.5-0.3-0.9-0.4-1.4c0.1-0.1,0.2-0.1,0.2-0.2c0-0.1-0.1-0.1-0.1-0.2c0,0,0,0,0,0
			c0-0.1,0-0.2,0.1-0.2c-0.2,0-0.3,0.1-0.5,0.1c-0.1-0.1-0.1-0.3-0.2-0.4c-0.1-0.2-0.2-0.6-0.4-1.3c-0.1-0.1-0.1-0.2-0.1-0.3
			l-0.1-0.3l-0.1-0.3c0-0.1-0.1-0.2-0.2-0.2c-0.1,0.1-0.2,0.2-0.2,0.4c0,0-0.1,0.3-0.1,0.8l-0.1,0.3l0,0.3l-0.1,0.2l-0.1,0.4
			l-0.2,0.4l-0.2,0.7c-0.2,0.3-0.2,0.5-0.2,0.6c0,0.3-0.1,0.6-0.1,0.9l-0.4,1.3l-0.3,1.3c-0.1,0.5-0.2,0.8-0.2,0.8
			c-0.1,0.1-0.1,0.2-0.2,0.3c-0.1,0.3-0.1,0.5-0.2,0.8l0.2,0.1c-0.2,0.4-0.3,0.9-0.4,1.4l-0.2,0.6l0,0.3l-0.1,0.3l0,0.2l-0.1,0.4
			l0,0.2c0,0.1-0.1,0.2-0.1,0.4c0,0.1,0,0.2,0.1,0.3c0.2,0.3,0.2,0.5,0.2,0.6c0,0-0.1,0.2-0.3,0.4c-0.1,0.1-0.1,0.3-0.2,0.4
			c-0.2,0.1-0.3,0.1-0.5,0.2c-0.1,0.1-0.2,0.1-0.4,0.1c-0.1,0-0.2-0.1-0.2-0.1c-0.1-0.4-0.1-0.9-0.1-1.3c0-0.1-0.1-0.3-0.2-0.7
			l-0.2-0.1c0-0.2-0.2-0.5-0.4-1.1c0-0.1,0-0.2,0-0.3c0-0.2,0.1-0.4,0.2-0.6c-0.1,0-0.1,0-0.2-0.1c-0.1,0-0.1-0.1-0.2-0.1
			c0,0-0.1,0-0.1,0c-0.1-0.1-0.1-0.2-0.1-0.3c0-0.2,0-0.3-0.1-0.5c0-0.1,0-0.2,0-0.2c0-0.1,0.1-0.2,0.1-0.3l-0.2-0.1
			c0-0.2-0.1-0.3-0.2-0.5c0,0-0.1-0.3-0.2-0.7c0-0.2-0.1-0.4-0.2-0.6c0-0.1-0.1-0.2-0.1-0.2c0-0.1,0-0.1,0.1-0.2
			c0-0.1,0-0.1,0.1-0.2c-0.1-0.1-0.2-0.2-0.3-0.2c0-0.2,0-0.4-0.1-0.5l-0.2-0.4c0-0.1,0-0.1,0-0.2l0.2-0.1c0-0.1,0.1-0.2,0.1-0.4
			c0-0.1,0-0.2-0.1-0.3c0,0-0.1,0.1-0.1,0.1c-0.1,0-0.1,0-0.1-0.1H661c0-0.1-0.1-0.4-0.2-0.9l-0.2-1l0-0.4c0-0.3-0.1-0.4-0.4-0.5
			c0-0.2-0.1-0.4-0.2-0.7l-0.4-1.1c0,0,0-0.1,0-0.3l0.1-0.1c-0.1-0.3-0.3-0.6-0.4-0.9l-0.1,0c-0.1-0.3-0.2-0.7-0.3-1.1
			c-0.3-0.6-0.4-0.9-0.4-0.9c0-0.1,0-0.1,0.1-0.2c0,0,0.1,0,0.2-0.1c0.1-0.1,0.1-0.2,0.2-0.3c0,0,0.1-0.1,0.3-0.2l0.2-0.1
			c0.1-0.1,0.3-0.2,0.4-0.3l0.2,0C660,453,660.1,452.9,660.2,452.8z"/>
	</g>
</g>
</svg>
