<?xml version="1.0" encoding="utf-8"?>
<!-- Generator: Adobe Illustrator 23.0.0, SVG Export Plug-In . SVG Version: 6.00 Build 0)  -->
<svg version="1.1" id="e3387a9b-6b7d-46c3-a89c-0412e79f7ad1"
	 xmlns="http://www.w3.org/2000/svg" xmlns:xlink="http://www.w3.org/1999/xlink" x="0px" y="0px" viewBox="0 0 879.1 631.5"
	 style="enable-background:new 0 0 879.1 631.5;" xml:space="preserve">
<style type="text/css">
	.st0{fill:#E6E6E6;}
	.st1{fill:#FFFFFF;}
	.st2{fill:#1A1A1A;}
	.st3{fill:#3F3D56;}
	.st4{fill:#2F2E41;}
	.st5{fill:#FFB6B6;}
	.st6{fill:#FFB8B8;}
	.st7{fill:#CACACA;}
	.st8{font-family:'Papyrus-Regular';}
	.st9{font-size:15.2643px;}
</style>
<rect id="b93b1ef9-49b5-4354-905b-d9dddde45a10" x="0.3" y="0.4" class="st0" width="644.7" height="412.9"/>
<rect id="ef7485f9-8ecd-46d9-949e-abdd8aa9e360" x="18.7" y="52.2" class="st1" width="607.9" height="336.7"/>
<rect id="b4c2a7ec-beab-40bc-b587-23a202562f78" class="st2" width="644.7" height="27.4"/>
<circle id="bd6d3ebf-cb6f-4fcb-b7cd-ad5a287d3324" class="st1" cx="20.4" cy="14" r="5.1"/>
<circle id="efb1158e-7a7d-4adb-9063-fc7dc50c76d5" class="st1" cx="39.6" cy="14" r="5.1"/>
<circle id="b51f9e19-f36b-4f29-afd5-008bb0fc20dd" class="st1" cx="58.9" cy="14" r="5.1"/>
<rect id="b636d421-4358-445b-b124-1d058e78c733" x="93.5" y="79.8" class="st0" width="118.9" height="129"/>
<rect id="ab9c902d-64a9-4a2b-a9ec-6dc7022c80f6" x="263.2" y="79.8" class="st0" width="118.9" height="129"/>
<rect id="f4a232af-026e-479b-8040-5c62e5965d9e" x="432.9" y="79.8" class="st0" width="118.9" height="129"/>
<rect id="ada16aa4-f84d-4851-87ee-a2852d96226a" x="93.5" y="232.2" class="st0" width="118.9" height="129"/>
<rect id="ebfcbe07-3b81-4d69-a4f5-6a8318d20e8d" x="263.2" y="232.2" class="st0" width="118.9" height="129"/>
<rect id="ead16b6d-d132-49a9-a42f-1f570e523a46" x="432.9" y="232.2" class="st0" width="118.9" height="129"/>
<path id="ab8ff6e3-f37e-4992-8347-ee905fdba816" class="st1" d="M291.9,265.3l21.7-8.6l2.5,42.9c0,0,4.5,13.1,3,18.2
	c0,0,1,8.6-1.5,9.1c-2.5,0.5-9.6,1.5-10.1,1s-0.5-2-0.5-2s-5.1,3.5-5.6,7.6c0,0-21.2,6.6-21.7,0.5c-0.5-6.1,10.6-11.1,10.6-11.1
	l8.6-13.1L291.9,265.3z"/>
<path id="e647835b-1773-4993-9de9-376235a5ef39" class="st1" d="M337.9,265.3l21.7-8.6l2.5,42.9c0,0,4.5,13.1,3,18.2
	c0,0,1,8.6-1.5,9.1c-2.5,0.5-9.6,1.5-10.1,1s-0.5-2-0.5-2s-5.1,3.5-5.6,7.6c0,0-21.2,6.6-21.7,0.5c-0.5-6.1,10.6-11.1,10.6-11.1
	l8.6-13.1L337.9,265.3z"/>
<path id="ee50e840-b8e9-4cc0-9b2e-64e12816c6e5" class="st3" d="M340,99.5c0,0-4.6,12.9,0.7,18.8l-4.5,15.4c0,0,15.9,47.6,11.3,54.3
	c0,0-16.9,8.5-50.8-3l13.8-53.4l-2-22.5l2.7-10.6l6-0.6c0,0-3.6,13.6,3,15.7s13.1-15.4,13.1-15.4L340,99.5z"/>
<path id="b668efb4-5504-4326-941b-9be143c4d030" class="st1" d="M126.4,182.9l5.8,2.4l27.9-36.6l8.8,43l5.8-1.1
	c3.7-37.1,6.8-74.9,3.1-92.7L156.1,97l-9.8,31.3l-4.8,21.2L126.4,182.9z"/>
<path id="b699d661-049e-451c-8a7e-64343ac1c335" class="st1" d="M480.7,97.6c0,0-8,11.1-7.6,15.5s5.4,77.3,5.4,77.3l11.9,0.6
	l-3.5-52.5l2.9-14.2l7.2,66.1l14.6,0.4l-13-85.7l-2.5-7.6L480.7,97.6z"/>
<path id="a4f25674-ecb7-42aa-ae9a-d508200b11eb" class="st3" d="M525.7,276c-2.1-2.5-5.8-3.9-9.2-4.7c0.1-0.3-10.6-2.5-10.8-2.1
	l-4-3.2l-12.4,6.4l-7-4.8l-3.2,1.1c0.1-0.6-10.1,1.2-10.1,1.2c-1.9,0.1-4.4,0.2-7.2,0.4c-9.7,0.8-10.5,26-10.5,26
	c4.5-1.8,9.3-2.8,14.1-3l2.6,30.2c13.6-1.2,27.8,0.2,42.5,3.5l6.9-23.7l16.1-6.3C533.4,297.3,530.7,282,525.7,276z"/>
<path id="b6d7fb25-d94e-4ba0-9382-3f72a4c565e4" class="st1" d="M180.4,261.6c-1.7-2.1-4.7-3.2-7.6-3.8c0.1-0.3-8.7-2.1-8.9-1.7
	l-3.3-2.7l-10.2,5.3l-5.7-3.9l-2.7,0.9c0.1-0.5-8.3,1-8.3,1c-1.6,0.1-3.7,0.2-5.9,0.3c-8,0.6-8.7,21.4-8.7,21.4
	c3.7-1.5,7.6-2.3,11.6-2.4l2.2,60.9c11.2-1,22.9,0.2,35,2.9l5.7-55.6l13.3-5.2C186.8,279.1,184.6,266.6,180.4,261.6z"/>
<path id="abb48a01-b3b6-4bc9-9e6f-5cc93133d8eb" class="st4" d="M749.5,277.9h57v-30.5c0-15.7-12.8-28.5-28.5-28.5
	s-28.5,12.8-28.5,28.5V277.9z"/>
<path id="f1b40e10-dbea-4491-93e9-bf21ee1afe95" class="st5" d="M724,617.2h-12.3l-5.8-47.3H724L724,617.2z"/>
<path id="f19e2682-d3fb-40a9-8809-be7b68a78ac9" class="st4" d="M727.1,613.2H703c-8.5,0-15.4,6.9-15.4,15.4v0.5h39.5V613.2z"/>
<path id="b3618d44-3857-42e4-aed2-10e127155f21" class="st5" d="M870.6,600.8l-10.7,6l-28.3-38.3l15.8-8.9L870.6,600.8z"/>
<path id="a172411a-a77d-4e4f-ac70-c8342021cfb1" class="st4" d="M871.3,595.8l-21,11.9l0,0c-7.4,4.2-10,13.6-5.8,21l0.2,0.4
	l34.4-19.4L871.3,595.8z"/>
<path id="bd1532c7-07e2-44c0-82ff-fc8e0d37942d" class="st4" d="M792.2,404.5l0.9,4.7c0,0,2.8,2.8,1.4,4.3s-0.9,8-0.9,8
	c0.8,12.1,16.6,79.9,19.4,93.2c0,0,21.8,14.2,38.8,42.1s17.5,35,17.5,35l-18.9,8l-47.3-57.2c0,0-13.2-8-18-15.1
	s-34.1-80.4-34.1-80.4l-16.6,76.6c0,0,0.9,27.9-3.3,45.9c-2.6,11.3-4.2,22.9-4.7,34.5l-22.2-2.4c0,0,1.4-67.2,3.8-74.3
	c0,0-9.9-81.8,9.9-114.5l16-42.7l15.7-6L792.2,404.5z"/>
<path id="e2a54528-859f-4f0e-9aca-6130773a8d3b" class="st6" d="M778.2,226.3c-29.8,0.5-29.8,44.9,0,45.4
	C808.1,271.2,808.1,226.8,778.2,226.3z"/>
<path id="aeace49c-5333-476f-965d-52da8fac2318" class="st4" d="M755.3,247.8h5.1l1.4-3.5l-0.7,3.5h27.7l-0.9-7.2l6.7,7.2h6.7v-3.9
	c0-12.7-10.3-23-23-23.1c-12.7,0-23,10.3-23.1,23l0,0v0L755.3,247.8z"/>
<path id="aa5a3aa9-e50b-4b43-b42d-0c1415925835" class="st3" d="M747.5,285l56.4,0.5L792,406.4c0,0-66-3.5-66-23.6l6.2-17.9
	L747.5,285z"/>
<path id="aca4d347-909c-4b66-b72e-6bb1477aee43" class="st5" d="M806.3,418c-3.3-4-2.7-9.9,1.3-13.2c0.4-0.3,0.9-0.7,1.4-0.9
	l-2.5-21.3l12.6-4.6l3,30.1c2.2,4.7,0.2,10.3-4.5,12.5C813.7,422.5,809,421.4,806.3,418z"/>
<path id="eab38d24-ad2d-4cbe-aaaa-db975580c866" class="st3" d="M796.5,295.9l7.4-10.4c0,0,5.1-1.1,11.1,5.9s9.5,94.5,9.5,94.5
	l-22,5l-13-62L796.5,295.9z"/>
<polygon class="st1" points="672.1,390.7 673.8,468.5 724.1,495.1 815.7,478.7 818,397.9 759.9,377.4 "/>
<path class="st7" d="M724,495.9L673,469l-1.7-78.9l88.7-13.4l0.2,0.1l58.7,20.7l-2.3,82L724,495.9z M674.6,468l49.7,26.2L815,478
	l2.2-79.6l-57.4-20.2L673,391.4L674.6,468z"/>
<polygon class="st7" points="723,411.8 722.8,411.7 671.8,391.5 672.4,390 723.2,410.2 817.9,397.1 818.1,398.7 "/>
<rect x="722.8" y="411" transform="matrix(0.9999 -1.216377e-02 1.216377e-02 0.9999 -5.457 8.835)" class="st7" width="1.6" height="84.1"/>
<polygon class="st7" points="716.5,407.8 698.2,400.3 786.6,386.3 804.9,393.7 "/>
<rect x="682" y="407" transform="matrix(0.3955 -0.9185 0.9185 0.3955 28.2829 880.1946)" class="st7" width="1.6" height="23.2"/>
<rect x="691.6" y="433.5" transform="matrix(0.3955 -0.9185 0.9185 0.3955 9.7547 905.0846)" class="st2" width="1.6" height="23.2"/>
<polygon class="st1" points="392.1,498.7 393.8,576.5 444.1,603.1 535.7,586.7 538,505.9 479.9,485.4 "/>
<path class="st7" d="M444,603.9L393,577l-1.7-78.9l88.7-13.4l0.2,0.1l58.7,20.7l-2.3,82L444,603.9z M394.6,576l49.7,26.2L535,586
	l2.2-79.6l-57.4-20.2L393,499.4L394.6,576z"/>
<polygon class="st7" points="443,519.8 442.8,519.7 391.8,499.5 392.4,498 443.2,518.2 537.9,505.1 538.1,506.7 "/>
<rect x="442.8" y="519" transform="matrix(0.9999 -1.216377e-02 1.216377e-02 0.9999 -6.7914 5.4372)" class="st7" width="1.6" height="84.1"/>
<polygon class="st7" points="432.1,514 418.2,508.3 506.6,494.3 520.5,499.9 "/>
<rect x="402" y="515" transform="matrix(0.3955 -0.9185 0.9185 0.3955 -240.1855 688.3096)" class="st7" width="1.6" height="23.2"/>
<rect x="411.6" y="541.5" transform="matrix(0.3955 -0.9185 0.9185 0.3955 -258.7137 713.1996)" class="st2" width="1.6" height="23.2"/>
<polygon class="st2" points="479.6,509.4 481.5,599.6 539.9,630.5 646.3,611.5 648.9,517.7 581.4,494 "/>
<path class="st3" d="M539.7,631.5l-59.2-31.3l-1.9-91.6L581.5,493l0.2,0.1l68.1,24l-2.7,95.2L539.7,631.5z M482.4,599.1l57.7,30.5
	l105.3-18.8l2.6-92.4l-66.6-23.4l-100.8,15.3L482.4,599.1z"/>
<polygon class="st3" points="538.6,533.9 538.3,533.8 479.2,510.3 479.9,508.5 538.8,531.9 648.8,516.8 649,518.6 "/>
<rect x="538.4" y="532.9" transform="matrix(0.9999 -1.216377e-02 1.216377e-02 0.9999 -7.0359 6.6028)" class="st3" width="1.9" height="97.6"/>
<polygon class="st3" points="526.9,527.1 509.8,520.6 612.4,504.2 629.5,510.8 "/>
<rect x="491" y="528.3" transform="matrix(0.3955 -0.9185 0.9185 0.3955 -200.2034 779.3379)" class="st3" width="1.9" height="26.9"/>
<rect x="502.2" y="559.1" transform="matrix(0.3955 -0.9185 0.9185 0.3955 -221.7117 808.2312)" class="st1" width="1.9" height="26.9"/>
<path id="af1e2e82-f248-43bd-a869-489ddf745161" class="st5" d="M700.7,403.6c4.7-2.2,6.7-7.8,4.5-12.5c-0.2-0.5-0.5-1-0.8-1.4
	l11.4-18.1l-9.3-9.6l-15.8,25.8c-4,3.3-4.7,9.2-1.4,13.3C692,404.4,696.7,405.5,700.7,403.6L700.7,403.6z"/>
<path id="ed6195a6-5e50-4e12-8380-54bfefa6b2ae" class="st3" d="M756.1,289.7l-8.2-5.4c0,0-6.3,1.4-13,14.3s-33.8,70.7-33.8,70.7
	l11.1,11.3l29.7-45.3L756.1,289.7z"/>
<g>
	<g id="Layer_1-2">
		<text transform="matrix(1 0 0 1 70.0005 19.081)" class="st1 st8 st9">Wintex</text>
	</g>
</g>
<title>black</title>
<g>
	<g id="Layer_1-2_1_">
		<path d="M760.4,432.9c0.1,0.1,0.1,0.3,0.2,0.5c0,0.1,0.1,0.4,0.1,0.9l0.1,0.4l0,0.3c0,0.2,0.1,0.3,0.1,0.5c0,0-0.1,0-0.1,0.1
			c-0.1,0.1-0.1,0.1-0.1,0.2c0,0.1,0,0.2,0.1,0.3c0.2,0,0.3,0.1,0.3,0.1c0,0.1,0.1,0.2,0.1,0.3c0,0.1,0,0.2,0.1,0.3l0.2,0
			c0,0.5,0.1,1.1,0.3,1.6c-0.2,0.2-0.3,0.4-0.3,0.5c0,0.1,0,0.1,0.1,0.2c0.1,0.1,0.1,0.1,0.1,0.1l0.1,0c0,0,0.1,0,0.1,0.1
			c0.1,0.1,0.1,0.2,0.1,0.3c0,0.2-0.1,0.3-0.2,0.4l0,0.4c0,0,0,0,0.1,0c0.1,0,0.3,0,0.4,0.1c0,0.2,0.1,0.3,0.2,0.5
			c0.1,0.1,0.1,0.2,0.1,0.3l0.6,2c0.1,0.4,0.2,0.6,0.2,0.6c0,0,0,0.1-0.1,0.3c0.2,0.1,0.3,0.3,0.4,0.5l0.1,0.2l0.1,0.4l0.1,0.5
			l-0.8,0.3c0.3,0.2,0.6,0.4,0.9,0.6l0.3,0c0.1,0.3,0.1,0.6,0.1,0.8c0.1,0.4,0.3,0.8,0.4,1.1c0.1,0.4,0.1,0.6,0.2,0.8h0.2l0.2,0.4h0
			c0.1-0.2,0.1-0.4,0.1-0.4c0.1-0.2,0.1-0.4,0.1-0.6c0-0.1,0-0.3,0.1-0.4l0.5-1.4c0-0.1,0-0.2,0.1-0.3c0-0.1,0-0.3,0.1-0.4l0.3-0.6
			l0.1-0.3l0.1-0.3c0.2-0.8,0.3-1.2,0.3-1.2c0.1-0.1,0.1-0.2,0.2-0.3c0-0.1,0-0.2,0-0.2c0-0.1,0.1-0.6,0.3-1.5
			c0-0.2,0.2-0.6,0.4-1.1c0-0.3,0.1-0.6,0.2-0.9c0.3-0.9,0.5-1.6,0.5-2c0-0.1,0-0.2-0.1-0.3l0.7-0.5l0.3-0.4
			c0.2-0.1,0.3-0.2,0.5-0.4c0,0,0-0.1-0.1-0.1c-0.4-0.1-0.8-0.2-1.2-0.3l0.4-0.7c-0.1-0.1-0.2-0.2-0.2-0.3c0-0.2,0.1-0.3,0.1-0.5
			c0.1-0.1,0.2-0.2,0.3-0.3l0.3-0.2c0.3-0.3,0.5-0.4,0.5-0.4c0,0,0.1,0,0.2,0h0.1l0.4,0.4c-0.7,0.3-1,0.5-1,0.7
			c0,0.1,0.2,0.3,0.5,0.5c0.2,0.2,0.4,0.4,0.5,0.7l0.4,0.5c0,0.1-0.1,0.1-0.2,0.3c0,0.2,0.1,0.4,0.3,0.6c0.2,0.3,0.3,0.4,0.3,0.4
			c0,0.1,0.1,0.2,0.1,0.4c0,0.1,0.1,0.4,0.3,1.1c0.1,0.6,0.1,0.9,0.1,0.9c0.1,0.1,0.1,0.2,0.2,0.3l0,0c-0.4,0.1-0.6,0.1-0.6,0.2
			l0.1,0.1c0.1,0.2,0.1,0.4,0.1,0.5l0.6,0.6l0.3,0.5c0.1,0.1,0.2,0.2,0.2,0.3v0.1H773l-0.1,0.1c0,0.1,0,0.2,0,0.3
			c0,0.2,0.1,0.4,0.2,0.5h0.2c0.2,0.4,0.3,0.8,0.4,1.2l0.2,0.6l0,0.5c0.1,0.1,0.2,0.3,0.2,0.5c0.1,0.2,0.1,0.4,0.2,0.7
			c0,0.1,0,0.1,0,0.2c0,0.1-0.1,0.2-0.1,0.3c0,0.1,0.1,0.2,0.2,0.3c0,0,0.1,0.1,0.1,0.1c0.1,0,0.1,0,0.2-0.1c0,0.2,0.1,0.5,0.2,0.8
			c0.1,0.2,0.2,0.4,0.3,0.5c0.1-0.1,0.1-0.1,0.2-0.2c0.1-0.1,0.2-0.3,0.2-0.4c0-0.1-0.1-0.2-0.1-0.3c0.1,0,0.2-0.1,0.2-0.2
			c0.1-0.3,0.2-0.5,0.3-0.8l0-0.2l0.1-0.3l0.1-0.5l0.1-0.2l0.1-0.4l0.2-0.7l0.2-1.1c0.2-0.5,0.2-0.7,0.3-0.8
			c0.1-0.2,0.1-0.3,0.2-0.4c0-0.2,0.1-0.7,0.4-1.6c0.1-0.4,0.2-0.8,0.3-1.1c0.1-0.1,0.1-0.3,0.1-0.4c0,0,0-0.2-0.1-0.5l0.2-0.6
			c0-0.3,0.1-0.5,0.1-0.8c0.1,0,0.1,0,0.2,0c0.1,0,0.2,0,0.3-0.1c0-0.1-0.1-0.3-0.3-0.4c0-0.3,0.1-0.5,0.1-0.7V435l0.1-0.3
			c0-0.2,0-0.4,0.1-0.6c0.2-0.5,0.5-0.8,0.9-0.8c0.1-0.2,0.3-0.3,0.4-0.3c0,0,0.1,0,0.3-0.1c0,0.1,0,0.1,0.1,0.2c0,0.1,0,0.1,0,0.2
			c0,0.2-0.1,0.4-0.1,0.6l-0.1,0.3c0,0.2,0,0.4-0.1,0.6c-0.1,0.2-0.2,0.3-0.3,0.5c0,0.1,0,0.2,0,0.3c0,0.1,0,0.2-0.1,0.3
			c0,0,0,0.1,0,0.1c0,0.1,0,0.1,0,0.2c-0.1,0.1-0.1,0.2-0.1,0.3c0,0,0,0.1,0,0.1c-0.1,0-0.2,0.1-0.2,0.1l0.1,0.4v0
			c0,0.2-0.1,0.3-0.1,0.4c-0.1,0-0.2,0-0.3,0.1c-0.1,0-0.1,0.1-0.1,0.1l0,0.1l0,0.2c0.1,0.1,0.2,0.2,0.2,0.3c0,0-0.1,0.1-0.2,0.3
			c0,0.1-0.1,0.2-0.1,0.3c-0.2,0.6-0.3,1-0.3,1.1c-0.1,0.2-0.1,0.5-0.2,0.7c0,0.1-0.1,0.3-0.2,0.4v0.2c0,0.1,0,0.2,0,0.3
			c0,0.1,0,0.2,0,0.3c-0.1,0.1-0.1,0.2-0.2,0.2v0.2l-0.3,1.4c-0.1,0.5-0.2,0.8-0.2,1c-0.1,0.2-0.2,0.5-0.3,0.7
			c-0.2,0.1-0.3,0.2-0.3,0.3c0,0.1,0.1,0.2,0.2,0.3c0,0.2-0.1,0.4-0.2,0.6l0.1,0.5l-0.1,0.1c-0.1,0.4-0.3,0.7-0.4,1.1l-0.1,0.6
			l-0.2,0.7c0,0.1,0,0.1,0.1,0.2c-0.1,0.1-0.2,0.2-0.2,0.2c0,0-0.1,0.1-0.1,0.3c0.1,0.2,0.2,0.3,0.2,0.4c0,0,0,0.2-0.1,0.5
			c0,0.3,0,0.4,0,0.5c0,0.1,0,0.2,0,0.4v0.3c-0.1,0.1-0.2,0.1-0.3,0.2c-0.2,0.1-0.4,0.2-0.5,0.4h-0.1c-0.1-0.1-0.2-0.3-0.2-0.5
			l-0.3-0.7l-0.1-0.3c-0.1-0.2-0.2-0.4-0.3-0.6c0-0.1,0-0.2-0.1-0.2c0-0.1-0.1-0.3-0.1-0.5c0-0.1,0.1-0.2,0.1-0.3l0,0l-0.1,0
			c-0.1-0.1-0.1-0.2-0.2-0.3c-0.1-0.1-0.2-0.6-0.3-1.4c0-0.4-0.1-0.8-0.1-1.2c-0.1,0-0.2-0.1-0.2-0.1c0-0.1-0.1-0.3-0.2-0.8
			l-0.3-0.9l-0.1-0.5c0,0-0.1-0.4-0.4-0.9c-0.1-0.2-0.1-0.4-0.1-0.6c0-0.1,0-0.2-0.1-0.4c0.1-0.1,0.2-0.2,0.2-0.3
			c0-0.1,0-0.1-0.1-0.2c0,0.1-0.1,0.1-0.2,0.1c-0.1,0-0.1-0.1-0.2-0.3c-0.2-0.5-0.3-1-0.4-1.5c0.1-0.1,0.2-0.2,0.2-0.2
			c0-0.1-0.1-0.2-0.1-0.2c0,0,0,0,0-0.1c0-0.1,0-0.2,0.1-0.2c-0.2,0-0.4,0.1-0.5,0.1c-0.1-0.1-0.2-0.3-0.2-0.4
			c-0.1-0.2-0.2-0.6-0.5-1.4c-0.1-0.1-0.1-0.2-0.1-0.3l-0.1-0.3l-0.1-0.3c-0.1-0.1-0.1-0.2-0.2-0.3c-0.1,0.1-0.2,0.3-0.2,0.4
			c0,0-0.1,0.3-0.2,0.9l-0.1,0.4l0,0.4l-0.1,0.2l-0.1,0.4l-0.2,0.4l-0.2,0.7c-0.2,0.3-0.2,0.5-0.3,0.6c0,0.3-0.1,0.7-0.1,1l-0.4,1.4
			l-0.3,1.4c-0.1,0.5-0.2,0.8-0.3,0.9c-0.1,0.1-0.1,0.2-0.2,0.3c-0.1,0.3-0.1,0.6-0.3,0.8l0.2,0.1c-0.2,0.5-0.3,1-0.4,1.4l-0.2,0.7
			l0,0.3l-0.1,0.3l0,0.3l-0.1,0.4l-0.1,0.2c0,0.1-0.1,0.3-0.1,0.4c0,0.1,0,0.2,0.1,0.3c0.2,0.3,0.3,0.5,0.3,0.6c0,0-0.1,0.2-0.3,0.4
			c-0.1,0.1-0.1,0.3-0.2,0.4c-0.2,0.1-0.3,0.2-0.5,0.2c-0.1,0.1-0.2,0.1-0.4,0.1c-0.1,0-0.2-0.1-0.2-0.1c-0.1-0.5-0.1-0.9-0.1-1.3
			c0-0.1-0.1-0.3-0.2-0.8l-0.2-0.1c0-0.2-0.2-0.5-0.4-1.1c0-0.1-0.1-0.2-0.1-0.3c0-0.2,0.1-0.4,0.2-0.6c-0.1,0-0.2,0-0.2-0.1
			c-0.1,0-0.1-0.1-0.2-0.1c0,0-0.1,0-0.1,0.1c-0.1-0.1-0.1-0.2-0.1-0.3c0-0.2,0-0.3-0.1-0.5c0-0.1,0-0.2-0.1-0.3
			c0-0.1,0.1-0.2,0.1-0.3l-0.3-0.1c0-0.2-0.1-0.3-0.2-0.5c0,0-0.1-0.3-0.2-0.8c-0.1-0.2-0.1-0.4-0.2-0.6c0-0.1-0.1-0.2-0.1-0.3
			c0-0.1,0.1-0.1,0.1-0.2c0-0.1,0.1-0.1,0.1-0.2c-0.1-0.1-0.2-0.2-0.4-0.2c0-0.2,0-0.4-0.1-0.6l-0.2-0.5c0-0.1,0-0.1,0-0.2l0.2-0.1
			c0-0.1,0.1-0.3,0.1-0.4c0-0.1-0.1-0.2-0.1-0.3c0,0-0.1,0.1-0.2,0.1c-0.1,0-0.1,0-0.2-0.1h-0.2c0-0.1-0.1-0.4-0.2-0.9l-0.3-1l0-0.4
			c0-0.3-0.1-0.5-0.4-0.5c0-0.2-0.1-0.5-0.2-0.7l-0.4-1.2c0,0,0-0.1,0-0.3l0.2-0.1c-0.2-0.3-0.3-0.6-0.4-0.9l-0.1,0
			c-0.1-0.4-0.2-0.7-0.3-1.1c-0.3-0.6-0.4-0.9-0.4-1c0-0.1,0-0.2,0.1-0.2c0,0,0.1,0,0.3-0.1c0.1-0.1,0.1-0.2,0.2-0.3
			c0,0,0.1-0.1,0.3-0.2l0.2-0.1c0.1-0.1,0.3-0.2,0.4-0.3l0.2,0C760.2,433.1,760.3,433,760.4,432.9z"/>
	</g>
</g>
<g>
	<g id="Layer_1-2_2_">
		<path class="st1" d="M578.7,560.5c0.1,0.2,0.1,0.4,0.2,0.5c0,0.1,0.1,0.4,0.1,1l0.1,0.5l0,0.3c0,0.2,0.1,0.4,0.1,0.5
			c0,0-0.1,0-0.1,0.1c-0.1,0.1-0.1,0.2-0.1,0.2c0,0.1,0,0.2,0.1,0.3c0.2,0,0.3,0.1,0.3,0.1c0,0.1,0.1,0.2,0.1,0.3
			c0,0.1,0,0.2,0.1,0.3l0.3,0c0,0.6,0.1,1.2,0.3,1.8c-0.2,0.3-0.3,0.4-0.3,0.5c0,0.1,0.1,0.2,0.1,0.2c0.1,0.1,0.1,0.1,0.1,0.1l0.1,0
			c0,0,0.1,0,0.1,0.1c0.1,0.1,0.1,0.3,0.1,0.4c0,0.2-0.1,0.4-0.3,0.5l0,0.4c0,0,0,0,0.1,0c0.1,0,0.3,0.1,0.4,0.1
			c0.1,0.2,0.1,0.4,0.2,0.5c0.1,0.1,0.1,0.2,0.1,0.3l0.7,2.3c0.1,0.4,0.2,0.6,0.2,0.7c0,0,0,0.1-0.1,0.4c0.2,0.1,0.3,0.3,0.4,0.5
			l0.2,0.3l0.1,0.5l0.1,0.5l-1,0.3c0.4,0.2,0.7,0.4,1.1,0.7l0.3,0c0.1,0.4,0.1,0.7,0.2,0.9c0.1,0.4,0.3,0.9,0.5,1.3
			c0.1,0.4,0.1,0.7,0.2,0.9h0.3l0.2,0.5h0c0.1-0.3,0.1-0.4,0.2-0.5c0.1-0.2,0.1-0.5,0.2-0.7c0-0.2,0-0.3,0.1-0.5l0.5-1.6
			c0-0.1,0.1-0.2,0.1-0.3c0-0.2,0.1-0.3,0.1-0.5l0.3-0.7l0.1-0.4l0.2-0.4c0.2-0.9,0.3-1.4,0.4-1.4c0.1-0.1,0.2-0.2,0.3-0.3
			c0-0.1,0-0.2,0-0.2c0-0.1,0.1-0.7,0.3-1.7c0.1-0.3,0.2-0.7,0.5-1.3c0-0.4,0.1-0.7,0.2-1.1c0.4-1.1,0.6-1.9,0.6-2.3
			c0-0.1,0-0.3-0.1-0.4l0.8-0.6l0.3-0.4c0.2-0.1,0.4-0.3,0.6-0.4c0,0,0-0.1-0.1-0.1c-0.4-0.2-0.9-0.3-1.3-0.3l0.5-0.8
			c-0.1-0.2-0.2-0.3-0.2-0.4c0-0.2,0.1-0.4,0.1-0.6c0.1-0.1,0.2-0.3,0.3-0.4l0.4-0.3c0.4-0.3,0.6-0.5,0.6-0.5c0.1,0,0.1,0,0.2,0h0.1
			l0.5,0.4c-0.8,0.3-1.2,0.6-1.2,0.8c0,0.1,0.2,0.3,0.5,0.6c0.2,0.2,0.4,0.5,0.6,0.8l0.5,0.5c0,0.1-0.1,0.2-0.2,0.3
			c0,0.2,0.1,0.5,0.3,0.7c0.3,0.3,0.4,0.5,0.4,0.5c0.1,0.1,0.1,0.3,0.1,0.4c0,0.1,0.2,0.5,0.4,1.2c0.1,0.7,0.1,1,0.2,1.1
			c0.1,0.1,0.1,0.3,0.3,0.4l0,0c-0.4,0.1-0.6,0.1-0.7,0.2l0.1,0.1c0.1,0.2,0.1,0.4,0.1,0.6l0.7,0.7l0.3,0.6c0.1,0.2,0.2,0.3,0.2,0.3
			v0.1h-0.1l-0.1,0.1c0,0.2,0,0.3,0,0.3c0,0.2,0.1,0.4,0.2,0.6h0.2c0.2,0.4,0.3,0.9,0.5,1.3l0.2,0.7l0,0.5c0.1,0.2,0.2,0.3,0.3,0.5
			c0.1,0.2,0.2,0.5,0.2,0.8c0,0.1,0,0.1,0,0.2c0,0.1-0.1,0.2-0.1,0.4c0,0.1,0.1,0.2,0.2,0.3c0,0,0.1,0.1,0.2,0.1
			c0.1,0,0.2,0,0.2-0.1c0.1,0.2,0.1,0.5,0.2,0.9c0.1,0.2,0.2,0.4,0.3,0.6c0.1-0.1,0.1-0.1,0.2-0.2c0.1-0.1,0.2-0.3,0.2-0.5
			c0-0.1-0.1-0.3-0.1-0.4c0.1,0,0.2-0.1,0.2-0.2c0.1-0.3,0.2-0.6,0.3-0.9l0-0.3l0.1-0.4l0.1-0.5l0.2-0.3l0.1-0.5l0.3-0.8l0.3-1.3
			c0.2-0.5,0.3-0.9,0.3-1c0.1-0.2,0.2-0.3,0.3-0.5c0-0.2,0.2-0.9,0.4-1.9c0.1-0.4,0.2-0.9,0.3-1.3c0.1-0.1,0.1-0.3,0.1-0.5
			c0,0,0-0.2-0.1-0.6l0.3-0.7c0-0.3,0.1-0.6,0.1-0.9c0.1,0,0.1,0,0.2,0c0.1,0,0.2,0,0.3-0.1c0-0.2-0.1-0.3-0.4-0.4
			c0-0.3,0.1-0.6,0.2-0.9v-0.6l0.1-0.3c0-0.2,0-0.5,0.1-0.7c0.2-0.6,0.6-0.9,1-1c0.2-0.2,0.3-0.4,0.4-0.4c0,0,0.1-0.1,0.3-0.1
			c0,0.1,0.1,0.1,0.1,0.2c0,0.1,0,0.2,0,0.2c-0.1,0.2-0.1,0.5-0.1,0.7l-0.1,0.3c0,0.2-0.1,0.5-0.1,0.7c-0.1,0.2-0.2,0.4-0.3,0.5
			c0,0.1,0,0.2,0,0.3c0,0.1-0.1,0.3-0.1,0.4c0,0,0,0.1,0,0.1c0,0.1,0,0.1,0,0.2c-0.1,0.1-0.1,0.2-0.2,0.4c0,0,0,0.1,0,0.1
			c-0.2,0-0.3,0.1-0.3,0.1l0.1,0.5v0c0,0.2-0.1,0.3-0.1,0.5c-0.1,0-0.2,0.1-0.4,0.1c-0.1,0.1-0.2,0.1-0.2,0.1l0,0.1l0,0.2
			c0.1,0.1,0.2,0.2,0.2,0.4c0,0-0.1,0.1-0.2,0.4c-0.1,0.1-0.1,0.2-0.1,0.3c-0.2,0.7-0.3,1.1-0.3,1.2c-0.1,0.3-0.1,0.6-0.3,0.8
			c0,0.2-0.1,0.3-0.3,0.5v0.2c0,0.1,0,0.2,0,0.3c0,0.1,0,0.2,0,0.4c-0.1,0.1-0.2,0.2-0.3,0.3v0.2l-0.4,1.6c-0.1,0.6-0.2,1-0.2,1.1
			c-0.1,0.3-0.2,0.5-0.3,0.8c-0.2,0.1-0.3,0.2-0.3,0.4c0,0.1,0.1,0.2,0.2,0.4c0,0.2-0.1,0.4-0.2,0.7l0.1,0.6l-0.1,0.1
			c-0.2,0.4-0.3,0.8-0.4,1.2l-0.1,0.7l-0.2,0.8c0,0.1,0.1,0.2,0.1,0.2c-0.2,0.1-0.3,0.2-0.3,0.2c0,0-0.1,0.2-0.2,0.4
			c0.1,0.2,0.2,0.3,0.2,0.4c0,0,0,0.2-0.1,0.5c0,0.3,0,0.5,0,0.5c0,0.1,0,0.2,0,0.5v0.4c-0.2,0.1-0.3,0.2-0.3,0.2
			c-0.2,0.1-0.4,0.2-0.6,0.4h-0.1c-0.1-0.2-0.2-0.3-0.2-0.5l-0.3-0.8l-0.1-0.3c-0.2-0.2-0.3-0.5-0.3-0.7c0-0.1-0.1-0.2-0.1-0.2
			c-0.1-0.2-0.1-0.3-0.1-0.5c0-0.1,0.1-0.2,0.1-0.3l0,0l-0.2,0c-0.1-0.1-0.1-0.2-0.2-0.3c-0.1-0.1-0.2-0.7-0.4-1.6
			c0-0.5-0.1-0.9-0.2-1.4c-0.2,0-0.2-0.1-0.3-0.2c0-0.1-0.1-0.4-0.2-1l-0.3-1.1l-0.1-0.6c0-0.1-0.2-0.4-0.4-1.1
			c-0.1-0.2-0.1-0.4-0.2-0.7c0-0.1,0-0.3-0.1-0.4c0.1-0.1,0.2-0.3,0.2-0.3c0-0.1,0-0.1-0.1-0.2c-0.1,0.1-0.1,0.1-0.2,0.1
			c-0.1,0-0.1-0.1-0.2-0.3c-0.2-0.6-0.4-1.2-0.5-1.8c0.2-0.1,0.2-0.2,0.2-0.3c0-0.1-0.1-0.2-0.1-0.3c0,0,0,0,0-0.1
			c0-0.1,0-0.2,0.1-0.3c-0.2,0-0.4,0.1-0.6,0.2c-0.1-0.1-0.2-0.3-0.2-0.5c-0.1-0.2-0.2-0.7-0.5-1.6c-0.1-0.1-0.1-0.3-0.2-0.4
			l-0.1-0.3l-0.1-0.4c-0.1-0.1-0.1-0.2-0.3-0.3c-0.1,0.1-0.2,0.3-0.2,0.5c0,0-0.1,0.4-0.2,1l-0.2,0.4l0,0.4l-0.1,0.2l-0.1,0.5
			l-0.3,0.5l-0.2,0.9c-0.2,0.3-0.3,0.6-0.3,0.7c0,0.4-0.1,0.8-0.2,1.1l-0.4,1.6l-0.4,1.7c-0.1,0.6-0.2,0.9-0.3,1
			c-0.1,0.1-0.2,0.2-0.3,0.3c-0.1,0.3-0.2,0.7-0.3,1l0.2,0.2c-0.2,0.5-0.4,1.1-0.5,1.7l-0.2,0.8l0,0.4l-0.1,0.4l0,0.3l-0.1,0.5
			l-0.1,0.3c-0.1,0.2-0.1,0.3-0.1,0.5c0,0.1,0,0.3,0.1,0.4c0.2,0.4,0.3,0.6,0.3,0.7c0,0-0.1,0.2-0.4,0.5c-0.1,0.2-0.2,0.3-0.3,0.5
			c-0.2,0.1-0.4,0.2-0.6,0.2c-0.1,0.1-0.3,0.1-0.4,0.2c-0.1,0-0.2-0.1-0.3-0.1c-0.1-0.6-0.1-1.1-0.2-1.5c0-0.1-0.1-0.4-0.2-0.9
			l-0.2-0.1c0-0.2-0.2-0.6-0.5-1.3c0-0.1-0.1-0.2-0.1-0.3c0-0.3,0.1-0.5,0.2-0.7c-0.1,0-0.2,0-0.3-0.1c-0.1,0-0.2-0.1-0.3-0.1
			c-0.1,0-0.1,0-0.1,0.1c-0.1-0.1-0.1-0.2-0.1-0.4c0-0.2-0.1-0.4-0.1-0.6c0-0.1-0.1-0.2-0.1-0.3c0-0.1,0.1-0.2,0.1-0.3l-0.3-0.1
			c0-0.2-0.1-0.4-0.2-0.6c0,0-0.1-0.3-0.2-0.9c-0.1-0.2-0.1-0.5-0.3-0.7c0-0.1-0.1-0.2-0.1-0.3c0-0.1,0.1-0.1,0.1-0.2
			c0-0.1,0.1-0.2,0.1-0.3c-0.1-0.1-0.3-0.2-0.4-0.2c0-0.2-0.1-0.4-0.1-0.6l-0.3-0.5c0-0.1,0-0.2,0-0.2l0.2-0.1
			c0.1-0.1,0.1-0.3,0.1-0.5c0-0.1-0.1-0.2-0.1-0.3c0,0.1-0.1,0.1-0.2,0.1c-0.1,0-0.1-0.1-0.2-0.1h-0.3c0-0.1-0.1-0.5-0.3-1.1
			l-0.3-1.2l0-0.5c0-0.3-0.2-0.5-0.5-0.6c0-0.3-0.1-0.5-0.2-0.8l-0.5-1.4c0,0,0-0.1,0-0.4l0.2-0.2c-0.2-0.3-0.3-0.7-0.5-1.1l-0.2,0
			c-0.2-0.4-0.3-0.9-0.4-1.3c-0.3-0.7-0.5-1.1-0.5-1.1c0-0.1,0-0.2,0.1-0.2c0,0,0.1-0.1,0.3-0.1c0.1-0.1,0.1-0.2,0.2-0.4
			c0,0,0.1-0.1,0.4-0.3l0.2-0.2c0.2-0.1,0.3-0.2,0.5-0.4l0.2,0C578.5,560.7,578.6,560.6,578.7,560.5z"/>
	</g>
</g>
</svg>
